<?xml version="1.0" encoding="UTF-8"?>
<svg id="Calque_1_-_copie" data-name="Calque 1 - copie" xmlns="http://www.w3.org/2000/svg" xmlns:xlink="http://www.w3.org/1999/xlink" viewBox="0 0 1615.64 1696.8">
  <defs>
    <style>
      .cls-1 {
        filter: url(#outer-glow-1);
      }

      .cls-1, .cls-2 {
        fill: #1b2340;
      }
    </style>
    <filter id="outer-glow-1" filterUnits="userSpaceOnUse">
      <feOffset dx="0" dy="0"/>
      <feGaussianBlur result="blur" stdDeviation="20"/>
      <feFlood flood-color="#1d1d1b" flood-opacity=".75"/>
      <feComposite in2="blur" operator="in"/>
      <feComposite in="SourceGraphic"/>
    </filter>
  </defs>
  <path class="cls-1" d="M1140,88.26c-40.77-16.87-107.2-37.36-181.94-23.54-139.05,25.71-148.85,140.96-263.6,164.41-138.93,28.4-207.76-123.55-412.16-134.99-95.95-5.37-175.05,22.83-222.3,44.14,0,499.51,0,999.02,0,1498.52H1140V88.26Z"/>
  <g id="Calque_1_-_copie_2" data-name="Calque 1 - copie 2">
    <path class="cls-2" d="M1140,88.26c-40.77-16.87-107.2-37.36-181.94-23.54-139.05,25.71-148.85,140.96-263.6,164.41-138.93,28.4-207.76-123.55-412.16-134.99-95.95-5.37-175.05,22.83-222.3,44.14,0,499.51,0,999.02,0,1498.52H1140V88.26Z"/>
  </g>
</svg>