<!--?xml version="1.0" standalone="no"?-->
              <svg id="sw-js-blob-svg" viewBox="0 0 100 100" xmlns="http://www.w3.org/2000/svg" version="1.1">
                    <defs> 
                        <linearGradient id="sw-gradient" x1="0" x2="1" y1="1" y2="0">
                            <stop id="stop1" stop-color="rgba(245, 245, 220, 1)" offset="0%"></stop>
                            <stop id="stop2" stop-color="rgba(245, 245, 220, 1)" offset="100%"></stop>
                        </linearGradient>
                    </defs>
                <path fill="url(#sw-gradient)" d="M27.3,-31.6C33.7,-27.2,35.9,-17,37.9,-6.6C39.8,3.8,41.6,14.4,37.7,22.5C33.9,30.5,24.5,36.1,14.8,38.7C5.2,41.4,-4.8,41.1,-13.8,37.8C-22.7,34.6,-30.6,28.4,-34.3,20.5C-38.1,12.6,-37.7,3,-35.9,-6.2C-34.1,-15.3,-30.8,-24.1,-24.6,-28.5C-18.4,-33,-9.2,-33.1,0.6,-33.8C10.5,-34.6,21,-36,27.3,-31.6Z" width="100%" height="100%" transform="translate(50 50)" stroke-width="0" style="transition: all 0.3s ease 0s;" stroke="url(#sw-gradient)"></path>
              </svg>