<?xml version="1.0" encoding="UTF-8"?>
<svg xmlns="http://www.w3.org/2000/svg" id="a" width="865.76" height="682.89" viewBox="0 0 865.76 682.89">
  <g>
    <rect x="397.58" y="75.49" width="282.39" height="502.09" rx="7.33" ry="7.33" fill="#031D44"></rect>
    <path d="M672.65,578.08H404.9c-4.32,0-7.83-3.51-7.83-7.83V82.82c0-4.31,3.51-7.83,7.83-7.83h267.74c4.32,0,7.83,3.51,7.83,7.83v487.44c0,4.31-3.51,7.83-7.83,7.83h.01ZM404.9,75.99c-3.76,0-6.83,3.06-6.83,6.83v487.44c0,3.76,3.06,6.83,6.83,6.83h267.74c3.76,0,6.83-3.06,6.83-6.83V82.82c0-3.76-3.06-6.83-6.83-6.83H404.9Z" fill="#35374e"></path>
  </g>
  <g>
    <path d="M330.86,611.62h-7.13c-5.34-.38-6.88,5.27-6.88,5.27-7.84,16.13-17.16,2.25-17.16,2.25,.96-5.34,1.61-19.72,1.61-19.72l23.52-8.62,5.66,5.61,.38,15.22h0Z" fill="#fff"></path>
    <path d="M308.14,625.19c-4.93,0-8.7-5.53-8.86-5.77l-.11-.17,.04-.2c.95-5.24,1.6-19.51,1.61-19.65v-.33l24.14-8.85,6.03,5.97,.4,15.93h-7.65c-4.85-.35-6.34,4.68-6.4,4.9-2.52,5.21-5.45,7.93-8.74,8.16-.15,.01-.3,.02-.46,.02h0Zm-7.92-6.18c.67,.92,4.2,5.46,8.31,5.16,2.9-.2,5.55-2.73,7.87-7.51h0s1.72-5.94,7.37-5.55h6.58l-.37-14.5-5.29-5.24-22.91,8.4c-.1,2.21-.7,14.19-1.57,19.24h.01Z" fill="#35374e"></path>
  </g>
  <g>
    <rect x="224.76" y="595.52" width="28.79" height="33" fill="#fff"></rect>
    <path d="M254.05,629.02h-29.79v-34h29.79v34h0Zm-28.79-1h27.79v-32h-27.79v32Z" fill="#35374e"></path>
  </g>
  <g>
    <path d="M369.55,232.33s1.18,10.86-9.41,18.62c0,0-14.21,10.45-24.33-6.07,0,0-.12-12.81,.6-21.5l28.82-2.92,4.32,11.87h0Z" fill="#fff"></path>
    <path d="M350.06,254.72c-.92,0-1.88-.08-2.86-.28-4.62-.91-8.59-4.03-11.81-9.29l-.07-.12v-.14c0-.13-.12-12.93,.6-21.55l.03-.41,29.62-3.01,4.48,12.36c.01,.11,1.08,11.24-9.61,19.08-.21,.16-4.65,3.36-10.38,3.36h0Zm-13.74-9.97c3.05,4.94,6.78,7.87,11.07,8.71,6.61,1.31,12.41-2.86,12.46-2.91,9.83-7.21,9.28-17.27,9.21-18.11l-4.17-11.45-28.01,2.84c-.64,8.08-.57,19.52-.56,20.91h0Z" fill="#35374e"></path>
  </g>
  <g>
    <path d="M223.83,316.09l-11.8,188.77-2.36,86.12c-.03,1.18,.41,2.32,1.24,3.15,3.12,3.11,13.74,8.81,49.4,7.56,1-.04,1.84-.74,2.03-1.72,.65-3.24,2.07-11.78,3.69-30.41l5.71-92.89,7.99-59.69c.17-1.28,1.27-2.24,2.56-2.24h0c1.33,0,2.45,1.01,2.57,2.34,1.05,11.02,5.46,58.33,6.6,82.82l6.35,97.47c.06,.94,.76,1.7,1.69,1.85,4.14,.64,16.99,1.34,45.92-6.4,1.45-.39,2.46-1.71,2.45-3.21-.05-12.42-.34-66.94-1.45-85.58l-3.55-97.51-4.6-102.97-70.78-7.7-38.63-6.89-5.04,27.14h.01Z" fill="#031D44"></path>
    <path d="M250.63,602.38c-27.71,0-36.97-4.8-40.06-7.88-.92-.92-1.43-2.2-1.39-3.52l2.36-86.12,11.8-188.85,5.13-27.63,39.12,6.98,71.18,7.74,.02,.43,4.6,102.97,3.55,97.52c1.12,18.77,1.4,74.59,1.45,85.6,0,1.73-1.15,3.25-2.82,3.69-28.95,7.75-41.9,7.07-46.12,6.41-1.17-.18-2.03-1.13-2.11-2.31l-6.35-97.47c-1.15-24.74-5.7-73.32-6.6-82.8-.1-1.07-.99-1.88-2.07-1.88s-1.93,.78-2.07,1.81l-7.99,59.69-5.71,92.86c-1.6,18.4-3,26.99-3.7,30.48-.24,1.21-1.27,2.08-2.51,2.12-3.46,.12-6.7,.18-9.71,.18v-.02Zm-26.3-286.22l-11.79,188.74-2.36,86.1c-.03,1.05,.37,2.06,1.1,2.78,2.67,2.65,12.78,8.69,49.03,7.41,.77-.03,1.41-.57,1.56-1.32,.69-3.47,2.08-12.02,3.68-30.36l5.71-92.88,8-59.73c.2-1.52,1.52-2.67,3.06-2.67s2.92,1.2,3.07,2.79c.9,9.49,5.45,58.09,6.6,82.84l6.35,97.46c.05,.71,.56,1.28,1.26,1.38,4.16,.65,16.95,1.31,45.71-6.39,1.23-.33,2.09-1.45,2.08-2.72-.05-11-.34-66.8-1.45-85.55l-3.55-97.52-4.58-102.53-70.36-7.66-38.17-6.81-4.95,26.63h0Z" fill="#35374e"></path>
  </g>
  <g>
    <path d="M251.22,120.86s-6.47,4.59-32.57,16.29c0,0-16.5,3.76-19.84,18.79l-12.49,55.15c-.02,.07,.04,.13,.11,.12,2.31-.46,31.42-5.89,47.25,6.54l-10.65,36.96-1.04,61.39h7.93s2.92-9.61,2.3-20.25c0,0,1.88,9.19,4.38,12.32,0,0,30.9,4.38,103.15-4.8,0,0-5.85-49.91-3.34-79.97l28.82-2.92-11.48-55.13s-3.13-21.29-16.5-25.68c0,0-26.94-13.47-33.1-17.14l-52.93-1.66h0Z" fill="#FF8E72"></path>
    <path d="M230.29,316.59h-8.81l1.07-62.03,10.56-36.63c-15.86-12.13-45.33-6.48-46.58-6.24l-.27,.05-.28-.22c-.14-.15-.2-.35-.15-.55l12.5-55.15c3.37-15.17,20.04-19.13,20.21-19.17,25.62-11.49,32.33-16.16,32.4-16.21l.14-.1h.17l53.06,1.67,.11,.07c6.07,3.62,32.79,16.99,33.06,17.12,13.43,4.41,16.64,25.17,16.77,26.05l11.59,55.64-28.95,2.94c-2.39,29.72,3.32,78.96,3.37,79.46l.06,.49-.49,.06c-71.49,9.09-102.97,4.85-103.29,4.8l-.2-.03-.12-.15c-1.42-1.77-2.62-5.33-3.42-8.21-.22,8.73-2.36,15.89-2.39,15.98l-.11,.35h0Zm-7.8-.99h7.05c.51-1.83,2.72-10.43,2.17-19.72l.99-.13c.02,.09,1.82,8.8,4.16,11.95,2.77,.34,34.3,3.85,102.33-4.77-.6-5.28-5.63-51.4-3.29-79.58l.03-.41,28.68-2.91-11.37-54.58c-.04-.24-3.25-21.06-16.16-25.3-.33-.16-26.77-13.38-33.08-17.12l-52.64-1.65c-1.08,.73-8.39,5.43-32.52,16.24-.25,.07-16.32,3.9-19.55,18.44l-12.36,54.55c5.23-.96,31.91-5.13,47.05,6.75l.27,.21-10.72,37.22-1.03,60.81h-.01Z" fill="#35374e"></path>
  </g>
  <g>
    <path d="M194.8,209.93c.29-.03,.54,8.1,.54,8.1,0,0-10.91-2.03-9.41-5.81,.28-.71,.49-1.18,1.25-1.28l7.62-1.02h0Z" fill="#FF8E72"></path>
    <path d="M195.86,218.63l-.61-.11c-.33-.06-8.05-1.53-9.65-4.43-.37-.67-.41-1.35-.13-2.05,.28-.71,.58-1.45,1.65-1.59l7.86-1.04,.18,.15c.19,.17,.44,.4,.69,8.45l.02,.62h0Zm-1.42-8.15l-7.19,.96c-.45,.06-.56,.24-.85,.97-.17,.42-.14,.8,.08,1.2,1.04,1.89,5.91,3.28,8.34,3.81-.1-2.9-.25-5.91-.39-6.93h.01Z" fill="#35374e"></path>
  </g>
  <g>
    <path d="M288.31,229.82c-7.75,4.74-16.65,9.52-22.31,12.47-4.05,2.11-8.25,3.91-12.58,5.37-26.13,8.8-40.75,8.35-47.06,7.34-2.93-.47-5.38-2.51-6.34-5.32-3.88-11.41-5.23-39.76-5.23-39.76,0,0,24.23-3.04,38.88,7.82,0,0,18.48,2.98,52.89-3.77,0,0,7.82-16.3,15.29-13,0,0,1.91-5.21,7.47-2.95,0,0,3.65-5.56,9.56-1.39l-27.63,34.23-2.95-1.04h.01Z" fill="#fff"></path>
    <path d="M213.76,256.03c-3.2,0-5.67-.24-7.48-.53-3.14-.5-5.71-2.67-6.73-5.65-3.85-11.34-5.24-39.61-5.25-39.9l-.02-.46,.46-.06c.24-.03,24.48-2.93,39.14,7.84,1.63,.23,20,2.58,52.35-3.73,1.01-2.03,8.1-15.7,15.37-13.2,.38-.75,1.29-2.2,2.95-2.94,1.36-.6,2.9-.59,4.61,.02,.55-.7,2.04-2.3,4.3-2.73,1.86-.36,3.78,.16,5.72,1.54l.44,.31-28.19,34.92-3.06-1.08c-7.58,4.62-16.21,9.27-22.14,12.37-4.07,2.12-8.32,3.94-12.65,5.4-18.78,6.33-31.66,7.89-39.82,7.89h0Zm-18.44-45.67c.2,3.74,1.64,28.74,5.18,39.15,.89,2.63,3.17,4.54,5.94,4.99,6.35,1.02,20.87,1.41,46.82-7.32,4.28-1.44,8.48-3.24,12.5-5.34,5.97-3.12,14.68-7.81,22.28-12.46l.2-.12,2.84,1,27.06-33.53c-1.55-.98-3.06-1.34-4.51-1.08-2.44,.46-3.89,2.61-3.9,2.63l-.23,.34-.38-.15c-1.58-.64-2.98-.7-4.18-.18-1.86,.82-2.63,2.82-2.63,2.84l-.18,.5-.49-.21c-6.95-3.07-14.56,12.6-14.64,12.76l-.11,.23-.25,.05c-34.1,6.69-52.88,3.8-53.06,3.77l-.12-.02-.1-.07c-13.22-9.8-34.65-8.11-38.06-7.77h.02Z" fill="#35374e"></path>
  </g>
  <g>
    <path d="M317.5,200.46l-30.33,34.66s0,.09,.04,.09l70.91-3.12,26.03-35.35s0-.09-.05-.09l-66.61,3.82h0Z" fill="#031D44"></path>
    <path d="M286.91,235.72l-.2-.33c-.1-.2-.06-.44,.08-.61l30.46-34.82h.21l66.92-3.85,.21,.31c.1,.19,.08,.43-.04,.6l-26.17,35.54h-.24l-71.24,3.15h.01Zm30.83-34.77l-29.5,33.72,69.63-3.07,25.33-34.4-65.46,3.75Zm66.4-3.8h0Z" fill="#35374e"></path>
  </g>
  <g>
    <path d="M287.04,235.15l-.4-.48c-.75-.9-.76-2.21-.03-3.12l27.31-33.82c.37-.46,.92-.74,1.5-.77l65.93-3.72c.88-.05,1.7,.47,2.02,1.29l.84,2.1-66.73,3.82-30.36,34.7s-.07,.03-.1,0h.02Z" fill="#031D44"></path>
    <path d="M287.08,235.68c-.16,0-.32-.08-.42-.21l-.4-.47c-.9-1.08-.91-2.66-.03-3.75l27.32-33.82c.46-.57,1.14-.92,1.86-.96l65.93-3.72c1.11-.05,2.11,.58,2.52,1.6l1.1,2.75-67.21,3.85-30.38,34.71-.29,.02h0Zm94.4-41.94h-.09l-65.93,3.72c-.45,.03-.86,.24-1.14,.59l-27.31,33.82c-.58,.72-.57,1.77,.02,2.49l.07,.09,30.16-34.47h.21l66.04-3.79-.58-1.46c-.24-.59-.81-.98-1.44-.98h-.01Z" fill="#35374e"></path>
  </g>
  <path d="M336.99,158.49h-.05c-.28-.02-.48-.27-.45-.54,1.33-14.73,4.29-16.55,4.62-16.71,.25-.12,.55,0,.67,.24,.12,.24,.02,.53-.22,.66-.09,.06-2.82,1.98-4.07,15.91-.02,.26-.24,.46-.5,.46v-.02Z" fill="#35374e"></path>
  <path d="M334.46,195.58c-.27,0-.49-.21-.5-.48-.74-19.7,2.51-32.35,2.54-32.48,.07-.27,.34-.43,.61-.36,.27,.07,.43,.34,.36,.61-.03,.12-3.24,12.64-2.51,32.19,0,.28-.21,.51-.48,.52h-.02Z" fill="#35374e"></path>
  <g>
    <path d="M377.28,219.25s7.43-7.14,0-9.37c0,0-25.72-5.35-23.19,4.68,0,0-12.79,.97-8.77,6.17,0,0-7.04,3.2-.78,7.43,0,0-5.02,3.12,4.65,5.95l12.48,2.73c2.13,.47,4.4-.13,5.93-1.68,.68-.69,1.36-1.61,1.96-2.84,0,0,3.87-.3,4.16-5.06,0,0,6.24-.89,3.57-8.03v.02Z" fill="#fff"></path>
    <path d="M363.08,237.5c-.51,0-1.02-.05-1.52-.17l-12.48-2.73c-4.04-1.18-6.1-2.54-6.32-4.17-.14-.99,.47-1.78,.96-2.24-1.61-1.22-2.37-2.51-2.26-3.82,.16-1.92,2.15-3.26,3.13-3.81-.59-.96-.71-1.87-.33-2.71,1.2-2.7,7.24-3.53,9.24-3.73-.24-1.48,.11-2.72,1.05-3.7,4.58-4.77,22.11-1.19,22.85-1.03,2.06,.62,3.26,1.64,3.6,3.06,.67,2.75-2.26,6.03-3.13,6.93,.82,2.35,.78,4.31-.11,5.82-1,1.69-2.78,2.3-3.57,2.5-.42,4.01-3.35,4.91-4.3,5.09-.54,1.07-1.19,1.99-1.93,2.74-1.26,1.28-3.04,1.98-4.87,1.98h-.01Zm.99-28.56c-3.74,0-7.23,.51-8.82,2.17-.81,.84-1.03,1.93-.68,3.33l.15,.58-.59,.04c-2.17,.16-8.01,1.06-8.96,3.19-.28,.62-.1,1.33,.55,2.17l.38,.5-.57,.26s-2.92,1.35-3.08,3.26c-.09,1.07,.71,2.18,2.37,3.3l.63,.43-.65,.41s-1.19,.76-1.06,1.71c.09,.67,.94,1.98,5.58,3.34l12.45,2.72c2,.44,4.1-.15,5.47-1.54,.72-.73,1.34-1.63,1.86-2.7l.13-.26,.29-.02c.14,0,3.44-.34,3.7-4.59l.03-.4,.4-.06s2.22-.35,3.25-2.1c.77-1.3,.74-3.07-.08-5.25l-.12-.31,.24-.23s3.71-3.6,3.08-6.21c-.25-1.04-1.22-1.83-2.88-2.32-.08-.02-6.91-1.41-13.07-1.41h0Z" fill="#35374e"></path>
  </g>
  <path d="M357.81,230.16h-.06l-13.27-1.49c-.27-.03-.47-.28-.44-.55,.03-.28,.28-.47,.55-.44l13.27,1.49c.27,.03,.47,.28,.44,.55-.03,.26-.25,.44-.5,.44h.01Z" fill="#35374e"></path>
  <path d="M361.27,222.43h-.04l-15.95-1.19c-.28-.02-.48-.26-.46-.54s.25-.49,.54-.46l15.95,1.19c.28,.02,.48,.26,.46,.54-.02,.26-.24,.46-.5,.46Z" fill="#35374e"></path>
  <path d="M375.2,216.42h-.03l-21.11-1.36c-.28-.02-.48-.26-.47-.53,.02-.28,.29-.49,.53-.47l21.11,1.36c.28,.02,.48,.26,.47,.53-.02,.26-.24,.47-.5,.47h0Z" fill="#35374e"></path>
  <path d="M308.43,592.85c-.27,0-.5-.22-.5-.49-.01-.64-1.07-64.24-3.13-78.66-.04-.27,.15-.53,.42-.57,.27-.04,.53,.15,.57,.42,2.07,14.48,3.13,78.14,3.14,78.78,0,.28-.22,.5-.49,.51h-.01Z" fill="#fff"></path>
  <path d="M303.84,504.94c-.26,0-.48-.2-.5-.46l-8.35-115.89c-.02-.28,.19-.51,.46-.54,.26-.03,.51,.19,.54,.46l8.35,115.89c.02,.28-.19,.51-.46,.54h-.04Z" fill="#fff"></path>
  <path d="M282.31,415.24h-.07c-.27-.04-.46-.29-.42-.57l14.01-95.93c.04-.27,.3-.46,.57-.42,.27,.04,.46,.29,.42,.57l-14.01,95.93c-.04,.25-.25,.43-.49,.43h-.01Z" fill="#35374e"></path>
  <path d="M294.17,341.17c-.38,0-.77-.06-1.16-.18-.26-.08-.41-.36-.33-.62,.08-.26,.36-.41,.62-.33,.85,.26,1.65,.14,2.46-.34,4.05-2.46,6.11-13.15,6.13-13.26,.05-.27,.32-.45,.58-.4,.27,.05,.45,.31,.4,.58-.09,.46-2.17,11.24-6.6,13.92-.68,.41-1.39,.62-2.11,.62h.01Z" fill="#35374e"></path>
  <g>
    <path d="M376.3,642.98h-55.35c-.89,0-1.78-.13-2.64-.38-11.85-3.37-24.35-4.8-25.19-4.9-.03,0-.04-.03-.03-.05l4.42-16.73c.77-3.66,2.18-1.8,2.18-1.8,0,0,9.32,13.88,17.16-2.25,0,0,1.54-5.65,6.88-5.27h7.13c5.39-.45,6.51,2.54,6.75,3.84,.1,.57,.24,1.12,.47,1.65,4.22,9.42,21.41,15.44,21.41,15.44,13.26,4.18,16.81,10.44,16.81,10.44h0Z" fill="#FF8E72"></path>
    <path d="M377.16,643.48h-56.21c-.92,0-1.85-.13-2.78-.39-11.87-3.38-24.58-4.82-25.11-4.88l-.22-.03-.29-.38,.04-.26,4.42-16.74c.33-1.58,.86-2.45,1.6-2.62,.81-.19,1.4,.56,1.46,.64,.05,.08,3.88,5.68,8.44,5.34,2.9-.2,5.55-2.73,7.87-7.51h0s1.72-5.94,7.37-5.55h7.1c5.77-.48,6.98,2.82,7.24,4.25,.11,.61,.25,1.1,.44,1.53,4.09,9.11,20.95,15.11,21.12,15.17,13.28,4.18,16.93,10.4,17.08,10.67l.42,.75h.01Zm-83.45-6.2c2.6,.31,14.01,1.8,24.75,4.85,.83,.24,1.68,.36,2.5,.36h54.38c-1.4-1.76-5.79-6.25-15.99-9.46-.72-.25-17.45-6.2-21.71-15.71-.23-.51-.39-1.07-.51-1.77-.26-1.45-1.41-3.84-6.21-3.43h-7.17c-4.85-.34-6.34,4.69-6.4,4.9-2.52,5.21-5.45,7.93-8.74,8.16-5.14,.35-9.15-5.51-9.32-5.76-.07-.08-.29-.27-.43-.25-.05,.01-.49,.16-.85,1.87l-4.29,16.24h-.01Z" fill="#35374e"></path>
  </g>
  <g>
    <path d="M378.13,649.26c-.09,1.06-.97,1.89-2.03,1.95-34.39,1.8-83.03-1.64-83.03-1.64-2.63-.63,0-11.85,0-11.85,0,0,12.97,1.41,25.24,4.9,.86,.24,1.75,.38,2.64,.38h55.35c1.66,2.88,1.95,4.94,1.83,6.27h0Z" fill="#35374e"></path>
    <path d="M353.57,652.22c-29.6,0-60.15-2.13-60.53-2.16-2.97-.7-1.09-9.72-.45-12.47l.1-.43,.44,.05c.13,.01,13.15,1.46,25.32,4.92,.83,.24,1.68,.36,2.5,.36h55.64l.14,.25c1.42,2.47,2.06,4.68,1.9,6.56h0c-.11,1.3-1.19,2.34-2.51,2.41-7.08,.37-14.79,.52-22.56,.52h0Zm-60.11-13.98c-1.13,5.05-1.56,10.51-.27,10.82,.41,.02,48.92,3.41,82.88,1.63,.82-.04,1.5-.68,1.56-1.49,.09-1.12-.12-3.01-1.63-5.73h-55.06c-.92,0-1.85-.13-2.78-.39-10.83-3.08-22.34-4.55-24.72-4.83h.02Z" fill="#35374e"></path>
  </g>
  <g>
    <path d="M255.32,638.93c-5.01-.25-7.71,3.06-8.77,4.78-.4,.65-1.1,1.07-1.87,1.12-10.24,.61-40.43-2.36-41.5-2.47-.02,0-.03-.02-.02-.04,1-6.4,5.64-8.94,5.64-8.94,7.86-4.65,10.96-15.39,10.96-15.39,1.77-4.65,5.98-4.43,5.98-4.43h9.97c2.66,0,3.43,1.22,3.43,1.22l6.2,8.66c.56,.78,1.45,1.24,2.41,1.24h0c1.09,0,2.06-.61,2.6-1.55,.76-1.32,1.69-2,2.45-2.34,.67-.3,1.44,.16,1.48,.89l1.03,17.24h.01Z" fill="#FF8E72"></path>
    <path d="M241.38,645.41c-12.26,0-37.08-2.44-38.24-2.55l-.22-.02-.28-.36,.03-.24c1.03-6.56,5.7-9.18,5.89-9.29,7.59-4.49,10.69-14.99,10.72-15.09,1.89-4.98,6.45-4.79,6.49-4.79h9.94c2.9,0,3.82,1.39,3.86,1.45l6.18,8.64c.46,.64,1.21,1.03,2,1.03,.88,0,1.71-.5,2.17-1.3,.68-1.18,1.6-2.06,2.68-2.55,.47-.21,1.01-.18,1.44,.08,.44,.26,.72,.72,.75,1.23l1.06,17.8-.56-.03c-4.67-.21-7.21,2.75-8.32,4.55-.49,.79-1.33,1.3-2.26,1.35-.95,.06-2.08,.08-3.34,.08h0Zm-37.63-3.49c4.18,.41,31.33,2.98,40.91,2.42,.6-.04,1.15-.36,1.47-.88,.95-1.54,3.65-5.03,8.66-5.04l-1-16.7c0-.18-.11-.34-.26-.44-.16-.09-.34-.1-.51-.03-.9,.41-1.64,1.13-2.22,2.14-.64,1.11-1.8,1.8-3.03,1.8-1.11,0-2.16-.54-2.81-1.45l-6.2-8.66c-.04-.06-.72-1.01-3.03-1.01h-9.97c-.17-.02-3.9-.13-5.51,4.11-.12,.41-3.23,10.95-11.17,15.64-.06,.03-4.21,2.39-5.32,8.09h-.01Z" fill="#35374e"></path>
  </g>
  <g>
    <path d="M253.55,650.89c-29.12,1.35-44.16-.58-48.79-1.36-.92-.15-1.59-.95-1.59-1.88v-5.22s.03-.06,.06-.06c1.56,.15,31.31,3.06,41.46,2.46,.77-.05,1.47-.46,1.87-1.12,1.06-1.72,3.75-5.03,8.76-4.78,2.44,11.96-1.77,11.96-1.77,11.96h0Z" fill="#35374e"></path>
    <path d="M234.42,651.85c-16.55,0-25.92-1.19-29.74-1.83-1.17-.2-2.01-1.2-2.01-2.38v-5.44l.35-.34h.27c3.19,.32,31.5,3.06,41.37,2.47,.61-.04,1.16-.37,1.47-.88,.98-1.6,3.85-5.31,9.21-5.02l.39,.02,.08,.38c1.47,7.23,.54,10.28-.51,11.56-.76,.93-1.58,.99-1.74,1-7.23,.33-13.59,.47-19.15,.47h0Zm-30.75-8.95v4.73c0,.69,.49,1.28,1.17,1.39,5.08,.85,19.99,2.68,48.69,1.35h.02s.54-.05,1.02-.68c.71-.91,1.68-3.46,.34-10.29h-.12c-4.34,0-6.75,2.83-7.81,4.56-.49,.79-1.33,1.3-2.27,1.36-9.56,.57-36.16-1.95-41.05-2.42h0Z" fill="#35374e"></path>
  </g>
  <path d="M211.01,632.34c-.23,0-.43-.16-.49-.39-.06-.27,.11-.54,.37-.6,14.26-3.32,22.87-.12,23.23,.02,.26,.1,.39,.39,.29,.65s-.39,.39-.65,.29c-.09-.03-8.71-3.23-22.65,.02-.04,0-.08,.01-.11,.01h.01Z" fill="#35374e"></path>
  <g>
    <path d="M269.8,86.82s4.18,15.45-18.58,34.04c0,0,8.74,17.29,30.79,18.74,4.32,.28,8.68-.39,12.62-2.2,4.87-2.24,10.15-6.6,9.52-14.88l-22.03-27.97-6.26-12.03-6.06,4.3h0Z" fill="#fff"></path>
    <path d="M283.89,140.16c-.63,0-1.27-.02-1.91-.06-22.09-1.45-31.12-18.83-31.21-19.01l-.18-.36,.31-.25c22.2-18.13,18.46-33.37,18.42-33.52l-.09-.34,6.81-4.84,6.53,12.54,22.07,28.01v.15c.67,8.67-4.96,13.14-9.8,15.37-3.31,1.52-7.06,2.31-10.96,2.31h0Zm-32.03-19.17c1.39,2.44,10.42,16.82,30.19,18.11,4.4,.29,8.68-.46,12.38-2.16,4.52-2.08,9.78-6.24,9.24-14.23l-21.93-27.84-6.05-11.6-5.32,3.78c.5,2.44,2.32,16.78-18.51,33.95h0Z" fill="#35374e"></path>
  </g>
  <g>
    <path d="M290.2,115.74h0c-11.42-3.26-18.04-15.17-14.77-26.59l7.17-25.08c3.26-11.42,15.17-18.04,26.59-14.77h0c11.42,3.26,18.04,15.17,14.77,26.59l-12.02,35.92c-3.26,11.42-10.32,7.2-21.74,3.94h0Z" fill="#fff"></path>
    <path d="M304.24,119.78c-2.71,0-5.93-1.01-9.68-2.19-1.42-.44-2.91-.92-4.5-1.37h0c-5.65-1.62-10.34-5.34-13.19-10.48s-3.54-11.08-1.92-16.74l7.17-25.08c3.33-11.67,15.54-18.45,27.21-15.12,11.67,3.33,18.45,15.54,15.12,27.21l-12.03,35.94c-1.04,3.65-2.5,5.88-4.56,6.99-1.08,.58-2.29,.83-3.61,.83h-.01Zm-13.9-4.51c1.59,.45,3.1,.93,4.52,1.37,5.36,1.68,9.59,3.01,12.52,1.44,1.79-.96,3.13-3.06,4.08-6.41l12.03-35.94c3.18-11.12-3.3-22.77-14.44-25.96-11.13-3.18-22.79,3.29-25.98,14.43l-7.17,25.08c-1.54,5.4-.89,11.07,1.83,15.98,2.73,4.91,7.2,8.46,12.6,10h.01Z" fill="#35374e"></path>
  </g>
  <path d="M311.94,111.81c-.01,2.59-1.03,5.08-2.85,6.93-10.18,10.34-22.37,4.42-22.37,4.42-19.84-8.35-10.86-40.64-10.86-40.64l-6.06-8.22c-1.67-6.06,0-20.88,0-20.88-8.1-1.83-9.58-6.93-9.55-10.49,.02-2.71,1.03-5.36,2.89-7.34,5.18-5.53,13.56-2.64,13.56-2.64,.97-3,4.16-3.86,6.18-4.09,1.54-.18,3.13,.2,4.31,1.21,3.73,3.19,1.61,9.98,1.61,9.98,12.95-6.06,32.16,8.77,32.16,8.77,5.21,3.74,6.55,8.4,6.68,11.88,.12,3.24-2.36,6-5.6,6.17-12.52,.65-26.14-13.46-26.14-13.46,0,0-8.06-.84-6.01,5.01,0,0,5.37,10.82-2.13,12.32,0,0-6.89,1.62-8.14,11.77,0,0-7.31,26.44,5.64,28.32l7.87-10.02c.53-.68,1.35-1.06,2.21-1.03,2.71,.09,8.96,.54,14.93,2.82,1.04,.4,1.71,1.41,1.7,2.52l-.03,6.68h0Z" fill="#35374e"></path>
  <g>
    <path d="M295.7,101.65l12.53,3.76s-11.69,10.86-12.53-3.76Z" fill="#fff"></path>
    <path d="M300.5,109.79c-.58,0-1.15-.09-1.69-.31-2.16-.87-3.37-3.49-3.62-7.8l-.04-.71,14.05,4.21-.64,.59c-.2,.19-4.37,4.01-8.06,4.01h0Zm-4.26-7.44c.3,3.46,1.29,5.54,2.94,6.21,2.66,1.07,6.47-1.67,8.01-2.92l-10.96-3.29h0Z" fill="#35374e"></path>
  </g>
  <path d="M269.8,53.91c-.06,0-.11,0-.17-.03-.26-.09-.4-.38-.3-.64,.03-.1,3.6-9.73,15.6-12.43,.27-.06,.54,.11,.6,.38s-.11,.54-.38,.6c-11.45,2.58-14.85,11.7-14.88,11.79-.07,.2-.27,.33-.47,.33Z" fill="#fff"></path>
  <g>
    <ellipse cx="271.04" cy="79.24" rx="7.36" ry="10.02" fill="#fff"></ellipse>
    <path d="M271.04,89.76c-4.33,0-7.86-4.72-7.86-10.52s3.53-10.52,7.86-10.52,7.86,4.72,7.86,10.52-3.53,10.52-7.86,10.52Zm0-20.05c-3.78,0-6.86,4.27-6.86,9.52s3.08,9.52,6.86,9.52,6.86-4.27,6.86-9.52-3.08-9.52-6.86-9.52Z" fill="#35374e"></path>
  </g>
  <path d="M233.68,218.25h-.03c-.28-.02-.49-.25-.47-.53l2.7-45.78c.02-.28,.26-.51,.53-.47,.28,.02,.49,.25,.47,.53l-2.7,45.78c-.02,.27-.24,.47-.5,.47Z" fill="#35374e"></path>
  <g>
    <line x1="301.86" y1="200.98" x2="304.04" y2="209.99" fill="none"></line>
    <rect x="302.45" y="200.86" width="1" height="9.27" transform="translate(-39.76 76.82) rotate(-13.57)" fill="#35374e"></rect>
  </g>
  <g>
    <line x1="309.33" y1="198.02" x2="310.44" y2="202.05" fill="none"></line>
    <rect x="309.38" y="197.97" width="1" height="4.18" transform="translate(-42.04 89.6) rotate(-15.42)" fill="#35374e"></rect>
  </g>
  <g>
    <rect x="404.47" y="82.78" width="268.62" height="487.52" rx="7.33" ry="7.33" fill="#fff"></rect>
    <path d="M665.76,570.79h-253.97c-4.32,0-7.83-3.51-7.83-7.83V90.1c0-4.32,3.51-7.83,7.83-7.83h253.97c4.31,0,7.83,3.51,7.83,7.83v472.87c0,4.31-3.51,7.83-7.83,7.83h0ZM411.79,83.28c-3.76,0-6.83,3.06-6.83,6.83v472.87c0,3.76,3.06,6.83,6.83,6.83h253.97c3.76,0,6.83-3.06,6.83-6.83V90.1c0-3.76-3.06-6.83-6.83-6.83h-253.97Z" fill="#35374e"></path>
  </g>
  <g>
    <rect x="422.84" y="141.28" width="233.91" height="28.96" rx="6.73" ry="6.73" fill="#fff"></rect>
    <path d="M650.02,170.74h-220.46c-3.98,0-7.23-3.24-7.23-7.23v-15.5c0-3.98,3.24-7.23,7.23-7.23h220.46c3.98,0,7.23,3.24,7.23,7.23v15.5c0,3.98-3.24,7.23-7.23,7.23Zm-220.46-28.96c-3.43,0-6.23,2.79-6.23,6.23v15.5c0,3.43,2.79,6.23,6.23,6.23h220.46c3.43,0,6.23-2.79,6.23-6.23v-15.5c0-3.43-2.79-6.23-6.23-6.23h-220.46Z" fill="#35374e"></path>
  </g>
  <g>
    <rect x="422.84" y="228.66" width="233.91" height="28.96" rx="6.73" ry="6.73" fill="#fff"></rect>
    <path d="M650.02,258.12h-220.46c-3.98,0-7.23-3.24-7.23-7.23v-15.51c0-3.98,3.24-7.23,7.23-7.23h220.46c3.98,0,7.23,3.24,7.23,7.23v15.51c0,3.98-3.24,7.23-7.23,7.23Zm-220.46-28.96c-3.43,0-6.23,2.79-6.23,6.23v15.51c0,3.43,2.79,6.23,6.23,6.23h220.46c3.43,0,6.23-2.79,6.23-6.23v-15.51c0-3.43-2.79-6.23-6.23-6.23h-220.46Z" fill="#35374e"></path>
  </g>
  <g>
    <rect x="422.84" y="293.12" width="233.91" height="28.96" rx="6.73" ry="6.73" fill="#fff"></rect>
    <path d="M650.02,322.58h-220.46c-3.98,0-7.23-3.24-7.23-7.23v-15.5c0-3.98,3.24-7.23,7.23-7.23h220.46c3.98,0,7.23,3.24,7.23,7.23v15.5c0,3.98-3.24,7.23-7.23,7.23Zm-220.46-28.96c-3.43,0-6.23,2.79-6.23,6.23v15.5c0,3.43,2.79,6.23,6.23,6.23h220.46c3.43,0,6.23-2.79,6.23-6.23v-15.5c0-3.43-2.79-6.23-6.23-6.23h-220.46Z" fill="#35374e"></path>
  </g>
  <g>
    <rect x="422.84" y="357.58" width="233.91" height="28.96" rx="6.73" ry="6.73" fill="#fff"></rect>
    <path d="M650.02,387.03h-220.46c-3.98,0-7.23-3.24-7.23-7.23v-15.51c0-3.98,3.24-7.23,7.23-7.23h220.46c3.98,0,7.23,3.24,7.23,7.23v15.51c0,3.98-3.24,7.23-7.23,7.23Zm-220.46-28.96c-3.43,0-6.23,2.79-6.23,6.23v15.51c0,3.43,2.79,6.23,6.23,6.23h220.46c3.43,0,6.23-2.79,6.23-6.23v-15.51c0-3.43-2.79-6.23-6.23-6.23h-220.46Z" fill="#35374e"></path>
  </g>
  <g>
    <rect x="422.84" y="451.5" width="233.91" height="28.96" rx="6.73" ry="6.73" fill="#FF8E72"></rect>
    <path d="M650.02,480.96h-220.46c-3.98,0-7.23-3.24-7.23-7.23v-15.5c0-3.98,3.24-7.23,7.23-7.23h220.46c3.98,0,7.23,3.24,7.23,7.23v15.5c0,3.98-3.24,7.23-7.23,7.23Zm-220.46-28.96c-3.43,0-6.23,2.79-6.23,6.23v15.5c0,3.43,2.79,6.23,6.23,6.23h220.46c3.43,0,6.23-2.79,6.23-6.23v-15.5c0-3.43-2.79-6.23-6.23-6.23h-220.46Z" fill="#35374e"></path>
  </g>
  <path d="M656.75,188.08h-233.91c-.28,0-.5-.22-.5-.5s.22-.5,.5-.5h233.91c.28,0,.5,.22,.5,.5s-.22,.5-.5,.5Z" fill="#35374e"></path>
  <g opacity=".2">
    <path d="M478.69,397.62h-55.85c-.28,0-.5-.22-.5-.5s.22-.5,.5-.5h55.85c.28,0,.5,.22,.5,.5s-.22,.5-.5,.5Z" fill="#35374e"></path>
  </g>
  <g opacity=".2">
    <path d="M538.05,397.62h-55.85c-.28,0-.5-.22-.5-.5s.22-.5,.5-.5h55.85c.28,0,.5,.22,.5,.5s-.22,.5-.5,.5Z" fill="#35374e"></path>
  </g>
  <g opacity=".2">
    <path d="M597.4,397.62h-55.85c-.28,0-.5-.22-.5-.5s.22-.5,.5-.5h55.85c.28,0,.5,.22,.5,.5s-.22,.5-.5,.5Z" fill="#35374e"></path>
  </g>
  <g opacity=".2">
    <path d="M656.75,397.62h-55.85c-.28,0-.5-.22-.5-.5s.22-.5,.5-.5h55.85c.28,0,.5,.22,.5,.5s-.22,.5-.5,.5Z" fill="#35374e"></path>
  </g>
  <g opacity=".2">
    <path d="M432.19,432.8h-4.59c-2.9,0-5.26-2.36-5.26-5.26v-4.59c0-2.9,2.36-5.26,5.26-5.26h4.59c2.9,0,5.26,2.36,5.26,5.26v4.59c0,2.9-2.36,5.26-5.26,5.26Zm-4.59-14.11c-2.35,0-4.26,1.91-4.26,4.26v4.59c0,2.35,1.91,4.26,4.26,4.26h4.59c2.35,0,4.26-1.91,4.26-4.26v-4.59c0-2.35-1.91-4.26-4.26-4.26h-4.59Z" fill="#35374e"></path>
  </g>
  <rect x="422.84" y="497.46" width="233.91" height="1"></rect>
  <path d="M632.86,372.06s6.44-9.32,13.99,0c0,0-6.12,8.86-13.99,0Z" fill="#35374e"></path>
  <g>
    <circle cx="652.28" cy="103.84" r="10.09" fill="#031D44"></circle>
    <path d="M652.28,114.43c-5.84,0-10.59-4.75-10.59-10.59s4.75-10.59,10.59-10.59,10.59,4.75,10.59,10.59-4.75,10.59-10.59,10.59Zm0-20.18c-5.29,0-9.59,4.3-9.59,9.59s4.3,9.59,9.59,9.59,9.59-4.3,9.59-9.59-4.3-9.59-9.59-9.59Z" fill="#35374e"></path>
  </g>
  <path d="M649.06,107.1c-.13,0-.26-.05-.35-.15-.2-.2-.2-.51,0-.71l5.93-5.93c.2-.2,.51-.2,.71,0s.2,.51,0,.71l-5.93,5.93c-.1,.1-.23,.15-.35,.15h-.01Z"></path>
  <path d="M654.99,107.31c-.13,0-.26-.05-.35-.15l-5.93-5.93c-.2-.2-.2-.51,0-.71s.51-.2,.71,0l5.93,5.93c.2,.2,.2,.51,0,.71-.1,.1-.23,.15-.35,.15h-.01Z"></path>
  <g>
    <path d="M424.01,114.14h1.37c.04,.53,.2,1.01,.48,1.43s.66,.75,1.15,.99,1.06,.36,1.72,.36c.57,0,1.05-.08,1.43-.26,.39-.17,.68-.41,.87-.71s.29-.66,.29-1.06-.1-.75-.3-1.01c-.2-.25-.49-.47-.87-.65s-.83-.35-1.35-.51c-.49-.15-1-.33-1.5-.53-.51-.2-.98-.45-1.42-.74s-.79-.64-1.05-1.05c-.27-.41-.4-.91-.4-1.49s.15-1.1,.46-1.61c.31-.5,.77-.91,1.37-1.22s1.33-.47,2.18-.47c1.33,0,2.32,.36,2.98,1.08s.98,1.68,.95,2.87h-1.37c-.03-.9-.28-1.54-.76-1.94-.48-.39-1.11-.59-1.88-.59-.65,0-1.21,.15-1.69,.45-.48,.3-.72,.76-.72,1.4,0,.28,.05,.52,.16,.73,.11,.21,.28,.4,.53,.58s.58,.35,1.01,.52c.42,.17,.95,.36,1.57,.56,.41,.13,.82,.28,1.24,.46,.42,.18,.82,.4,1.18,.67s.65,.61,.87,1.02c.22,.41,.33,.93,.33,1.55s-.14,1.15-.43,1.66c-.28,.51-.73,.93-1.33,1.24s-1.38,.48-2.33,.48c-.81,0-1.5-.11-2.08-.33s-1.05-.51-1.42-.86c-.37-.35-.65-.73-.85-1.11-.2-.39-.33-.75-.39-1.09-.06-.34-.07-.61-.02-.8l.02-.02Z" fill="#35374e"></path>
    <path d="M436.73,104.85v1.84h-1.98v-1.84h1.98Zm-1.75,3.8h1.52v9.5h-1.52v-9.5Z" fill="#35374e"></path>
    <path d="M442.5,116.65c-.67,0-1.31-.16-1.91-.48s-1.09-.79-1.46-1.4-.56-1.34-.56-2.19,.18-1.58,.55-2.19,.85-1.09,1.44-1.43c.6-.33,1.24-.5,1.94-.5,.21,0,.42,.02,.62,.05,.2,.03,.38,.08,.56,.14h3.86v1.63c-.54,0-1.09-.1-1.62-.3-.54-.2-1-.41-1.38-.63l-.08-.08c.44,.24,.81,.53,1.09,.86s.5,.7,.65,1.11,.22,.86,.22,1.34c0,.85-.18,1.58-.54,2.19-.36,.61-.84,1.07-1.43,1.4-.6,.32-1.24,.48-1.94,.48h0Zm2.79,5.3v-.42c0-.67-.17-1.16-.52-1.46-.35-.3-.87-.46-1.57-.46h-1.9c-.42,0-.78-.04-1.09-.1s-.57-.17-.77-.31c-.2-.14-.35-.31-.46-.51-.1-.2-.15-.43-.15-.68,0-.48,.15-.85,.44-1.09,.29-.25,.65-.4,1.08-.47s.84-.06,1.24,0l.91,.21c-.68,.04-1.21,.11-1.59,.21-.37,.1-.56,.32-.56,.65,0,.19,.07,.35,.22,.47s.36,.18,.66,.18h1.98c.66,0,1.26,.09,1.8,.28s.98,.49,1.31,.93,.49,1.04,.49,1.79v.8h-1.52v-.02Zm-2.79-6.73c.42,0,.81-.1,1.17-.3,.36-.2,.66-.5,.88-.89,.23-.39,.34-.87,.34-1.44s-.11-1.05-.33-1.45c-.22-.4-.52-.7-.88-.91-.37-.21-.76-.31-1.18-.31s-.81,.1-1.18,.31-.67,.51-.89,.9c-.23,.39-.34,.88-.34,1.46s.11,1.05,.34,1.44,.53,.69,.89,.89c.37,.2,.76,.3,1.18,.3h0Z" fill="#35374e"></path>
    <path d="M449.32,108.65h1.52v9.5h-1.52v-9.5Zm4.79-.19c.51,0,.96,.08,1.37,.23s.75,.37,1.03,.67c.28,.29,.49,.64,.65,1.05,.15,.41,.23,.88,.23,1.4v6.35h-1.52v-5.97c0-.73-.17-1.29-.51-1.65-.34-.37-.86-.55-1.54-.55-.52,0-1,.13-1.44,.4-.44,.27-.81,.63-1.09,1.09-.29,.46-.46,1-.52,1.61l-.02-1.1c.06-.53,.19-1.01,.39-1.44s.44-.8,.74-1.11,.64-.55,1.03-.71c.39-.17,.79-.25,1.23-.25l-.03-.02Z" fill="#35374e"></path>
    <path d="M470.47,113.72l.02,.53c-.01,.15-.05,.39-.1,.7-.06,.32-.15,.67-.29,1.05s-.32,.76-.57,1.11c-.25,.36-.56,.65-.95,.87-.39,.23-.86,.34-1.43,.34-.37,0-.74-.05-1.13-.16s-.75-.29-1.07-.53-.6-.59-.8-1.04c-.2-.44-.3-.99-.3-1.65v-6.31h1.52v5.93c0,.57,.09,1.02,.28,1.34s.43,.55,.75,.69,.67,.21,1.06,.21c.65,0,1.18-.16,1.62-.49,.43-.33,.76-.73,.99-1.22,.23-.48,.37-.94,.42-1.39l-.02,.02Zm1.43,4.43h-1.52v-9.5h1.52v9.5Z" fill="#35374e"></path>
    <path d="M474.37,108.65h1.46l.06,2v11.31h-1.52v-13.3h0Zm4.75,9.68c-.7,0-1.27-.16-1.71-.49-.44-.32-.79-.74-1.04-1.25s-.42-1.05-.52-1.62c-.1-.56-.15-1.09-.15-1.57,0-.68,.05-1.32,.14-1.92,.09-.6,.26-1.12,.5-1.58s.59-.81,1.04-1.07,1.03-.39,1.74-.39c.76,0,1.45,.21,2.07,.65,.62,.43,1.12,1.02,1.49,1.77s.56,1.6,.56,2.55-.19,1.8-.57,2.54-.88,1.32-1.51,1.75-1.31,.64-2.04,.64h0Zm-.38-1.45c.58,0,1.1-.15,1.55-.45,.45-.3,.8-.71,1.05-1.24s.38-1.12,.38-1.8c0-1.01-.26-1.85-.78-2.52s-1.25-1-2.2-1c-.56,0-1.05,.15-1.48,.45s-.77,.71-1.01,1.23c-.24,.53-.36,1.14-.36,1.83,0,.63,.1,1.21,.31,1.74s.52,.95,.94,1.26c.42,.32,.95,.48,1.6,.48v.02Z" fill="#35374e"></path>
  </g>
  <g>
    <path d="M485.34,157.3h.91c.03,.35,.13,.67,.32,.95s.44,.5,.77,.66,.71,.24,1.15,.24c.38,0,.7-.06,.96-.17,.26-.11,.45-.27,.58-.48,.13-.2,.2-.44,.2-.71s-.07-.5-.2-.67c-.14-.17-.33-.31-.58-.43s-.55-.23-.9-.34c-.33-.1-.66-.22-1-.35s-.65-.3-.94-.49-.53-.43-.7-.7c-.18-.27-.27-.61-.27-.99s.1-.74,.31-1.07,.51-.6,.91-.81c.4-.21,.88-.31,1.45-.31,.89,0,1.55,.24,1.99,.72s.65,1.12,.63,1.91h-.91c-.02-.6-.19-1.03-.51-1.29s-.74-.39-1.25-.39c-.43,0-.81,.1-1.13,.3s-.48,.51-.48,.93c0,.19,.04,.35,.11,.49,.07,.14,.19,.27,.36,.39,.16,.12,.39,.23,.67,.35,.28,.11,.63,.24,1.04,.37,.27,.08,.55,.19,.83,.3s.54,.27,.79,.44c.24,.18,.43,.4,.58,.68,.15,.27,.22,.62,.22,1.03s-.09,.77-.29,1.11-.49,.62-.89,.83-.92,.32-1.55,.32c-.54,0-1-.07-1.39-.22-.38-.15-.7-.34-.94-.58-.25-.24-.43-.48-.56-.74s-.22-.5-.26-.73-.05-.41-.01-.53l-.02-.02Z" fill="#35374e"></path>
    <path d="M493.81,151.11v1.23h-1.32v-1.23h1.32Zm-1.17,2.53h1.01v6.33h-1.01v-6.33Z" fill="#35374e"></path>
    <path d="M497.66,158.98c-.45,0-.87-.11-1.27-.32s-.73-.53-.97-.93c-.25-.41-.37-.89-.37-1.46s.12-1.05,.37-1.46,.57-.73,.96-.95c.4-.22,.83-.34,1.29-.34,.14,0,.28,0,.41,.03s.25,.05,.37,.09h2.57v1.09c-.36,0-.72-.07-1.08-.2-.36-.13-.67-.27-.92-.42l-.05-.05c.3,.16,.54,.35,.73,.57s.33,.47,.43,.74,.15,.57,.15,.89c0,.57-.12,1.05-.36,1.46s-.56,.72-.96,.93c-.4,.22-.83,.32-1.29,.32h-.01Zm1.86,3.54v-.28c0-.45-.12-.77-.35-.98-.23-.2-.58-.3-1.04-.3h-1.27c-.28,0-.52-.02-.73-.07-.21-.05-.38-.12-.51-.21-.14-.09-.24-.21-.3-.34s-.1-.29-.1-.46c0-.32,.1-.56,.29-.73,.19-.16,.43-.27,.72-.31s.56-.04,.82,0l.61,.14c-.46,.03-.81,.07-1.06,.14s-.37,.21-.37,.43c0,.13,.05,.23,.15,.31s.24,.12,.44,.12h1.32c.44,0,.84,.06,1.2,.18s.65,.33,.87,.62,.33,.69,.33,1.2v.53h-1.02Zm-1.86-4.47c.28,0,.54-.07,.78-.2,.24-.13,.44-.33,.59-.6s.23-.58,.23-.96-.07-.7-.22-.97-.34-.47-.59-.61-.51-.21-.79-.21-.54,.07-.79,.21-.44,.34-.6,.6c-.15,.26-.23,.59-.23,.98s.08,.7,.23,.96c.15,.26,.35,.46,.6,.6s.51,.2,.79,.2Z" fill="#35374e"></path>
    <path d="M502.21,153.64h1.01v6.33h-1.01v-6.33Zm3.19-.13c.34,0,.64,.05,.91,.15s.5,.25,.68,.44c.19,.19,.33,.43,.43,.7s.15,.58,.15,.93v4.23h-1.01v-3.98c0-.49-.11-.86-.34-1.1s-.57-.37-1.03-.37c-.35,0-.67,.09-.96,.27-.3,.18-.54,.42-.73,.73s-.31,.67-.35,1.07v-.74c.03-.35,.12-.68,.25-.96s.3-.53,.49-.74,.43-.37,.68-.48c.26-.11,.53-.17,.82-.17v.02Z" fill="#35374e"></path>
    <path d="M516.31,157.03v.35c0,.1-.02,.26-.06,.47s-.1,.45-.19,.7c-.09,.26-.21,.5-.38,.74-.16,.24-.38,.43-.63,.58-.26,.15-.58,.23-.96,.23-.25,0-.5-.04-.75-.11-.26-.07-.5-.19-.71-.35-.22-.16-.4-.39-.53-.69-.14-.29-.2-.66-.2-1.1v-4.21h1.01v3.95c0,.38,.06,.68,.18,.89s.29,.37,.5,.46c.21,.09,.45,.14,.71,.14,.43,0,.79-.11,1.08-.33s.51-.49,.66-.81c.15-.32,.25-.63,.28-.92h0Zm.95,2.96h-1.01v-6.33h1.01v6.33Z" fill="#35374e"></path>
    <path d="M518.91,153.64h.98l.04,1.33v7.54h-1.01v-8.87h0Zm3.17,6.46c-.46,0-.84-.11-1.14-.32-.3-.22-.53-.49-.69-.84-.17-.34-.28-.7-.35-1.08-.07-.38-.1-.72-.1-1.04,0-.46,.03-.88,.09-1.28s.18-.75,.34-1.05c.16-.3,.39-.54,.69-.72,.3-.17,.69-.26,1.16-.26,.51,0,.97,.14,1.38,.43,.41,.29,.75,.68,.99,1.18s.37,1.06,.37,1.7-.13,1.2-.38,1.69-.59,.88-1.01,1.17c-.42,.28-.87,.42-1.36,.42h0Zm-.25-.96c.39,0,.73-.1,1.03-.3s.53-.47,.7-.82,.25-.75,.25-1.2c0-.68-.17-1.24-.52-1.68-.35-.44-.84-.67-1.47-.67-.37,0-.7,.1-.99,.3s-.51,.47-.67,.82-.24,.76-.24,1.22c0,.42,.07,.81,.21,1.16s.35,.63,.63,.84,.63,.32,1.06,.32h0Z" fill="#35374e"></path>
    <path d="M535.14,159.05h-.25l1.48-5.41h1.1l-1.94,6.33h-.95l-1.88-5.55h.25l-1.88,5.55h-.95l-1.93-6.33h1.1l1.46,5.4h-.25l1.71-5.4h1.23l1.68,5.41h.02Z" fill="#35374e"></path>
    <path d="M539.8,151.11v1.23h-1.32v-1.23h1.32Zm-1.17,2.53h1.01v6.33h-1.01v-6.33Z" fill="#35374e"></path>
    <path d="M540.94,153.64h3.72v.95h-3.72v-.95Zm1.36-1.65h1.01v7.98h-1.01v-7.98Z" fill="#35374e"></path>
    <path d="M546.02,159.98v-8.87h1.01v8.87h-1.01Zm4.36,0v-3.98c0-.33-.05-.6-.15-.82-.1-.21-.25-.38-.46-.49-.2-.11-.46-.17-.76-.17-.35,0-.67,.09-.96,.27-.3,.18-.54,.42-.73,.73s-.31,.67-.35,1.07v-.74c.03-.35,.12-.68,.25-.96,.13-.29,.29-.53,.49-.74s.43-.37,.68-.48c.26-.11,.53-.17,.82-.17,.34,0,.64,.05,.91,.15,.27,.1,.5,.25,.68,.44s.33,.43,.43,.7,.15,.58,.15,.93v4.23h-1.01v.03Z" fill="#35374e"></path>
    <path d="M559.38,160.1c-.6,0-1.14-.1-1.62-.3s-.88-.49-1.22-.85-.59-.81-.77-1.32c-.18-.51-.27-1.08-.27-1.7s.1-1.2,.29-1.73,.47-.98,.82-1.37c.35-.38,.77-.68,1.26-.89s1.02-.32,1.6-.32c.63,0,1.19,.12,1.68,.36s.89,.58,1.19,1.01c.3,.44,.49,.94,.54,1.53h-.86c-.11-.41-.29-.75-.53-1.04s-.54-.51-.88-.67-.72-.23-1.15-.23c-.58,0-1.1,.15-1.54,.44s-.79,.69-1.05,1.2c-.25,.51-.38,1.08-.38,1.72s.11,1.21,.34,1.69c.23,.49,.56,.86,.99,1.13s.94,.41,1.53,.41c.46,0,.86-.09,1.2-.27,.34-.18,.62-.44,.83-.78s.36-.76,.43-1.26h.62c-.13,1.09-.48,1.9-1.03,2.45-.55,.54-1.23,.81-2.05,.81l.03-.02Zm2.88-.13c0-.28,0-.59,.02-.94s.03-.71,.06-1.07c.03-.36,.05-.69,.06-.98h-2.79v-.95h3.64v3.94h-.99Z" fill="#35374e"></path>
    <path d="M567.58,160.1c-.54,0-1.05-.13-1.52-.39-.47-.26-.85-.64-1.15-1.13-.29-.49-.44-1.08-.44-1.75s.15-1.26,.44-1.75,.67-.88,1.15-1.15c.47-.27,.98-.41,1.52-.41s1.04,.14,1.51,.41c.47,.27,.85,.65,1.13,1.15,.29,.49,.43,1.08,.43,1.75s-.14,1.26-.43,1.75-.67,.87-1.13,1.13-.97,.39-1.51,.39Zm0-.95c.35,0,.69-.09,1-.27,.31-.18,.57-.44,.77-.79,.2-.35,.3-.78,.3-1.27s-.1-.92-.3-1.27-.45-.62-.77-.8-.65-.28-1-.28-.69,.09-1.01,.27c-.32,.18-.58,.45-.78,.8s-.3,.78-.3,1.29,.1,.92,.3,1.27,.46,.61,.78,.79,.66,.27,1.01,.27h0Z" fill="#35374e"></path>
    <path d="M574.7,160.1c-.54,0-1.05-.13-1.52-.39-.47-.26-.85-.64-1.15-1.13-.29-.49-.44-1.08-.44-1.75s.15-1.26,.44-1.75,.67-.88,1.15-1.15c.47-.27,.98-.41,1.52-.41s1.04,.14,1.51,.41c.47,.27,.85,.65,1.13,1.15,.29,.49,.43,1.08,.43,1.75s-.14,1.26-.43,1.75-.67,.87-1.13,1.13-.97,.39-1.51,.39Zm0-.95c.35,0,.69-.09,1-.27,.31-.18,.57-.44,.77-.79,.2-.35,.3-.78,.3-1.27s-.1-.92-.3-1.27-.45-.62-.77-.8-.65-.28-1-.28-.69,.09-1.01,.27c-.32,.18-.58,.45-.78,.8s-.3,.78-.3,1.29,.1,.92,.3,1.27,.46,.61,.78,.79,.66,.27,1.01,.27h0Z" fill="#35374e"></path>
    <path d="M581.33,158.98c-.45,0-.87-.11-1.27-.32s-.73-.53-.97-.93c-.25-.41-.37-.89-.37-1.46s.12-1.05,.37-1.46,.57-.73,.96-.95c.4-.22,.83-.34,1.29-.34,.14,0,.28,0,.41,.03,.13,.02,.25,.05,.37,.09h2.57v1.09c-.36,0-.72-.07-1.08-.2-.36-.13-.67-.27-.92-.42l-.05-.05c.3,.16,.54,.35,.73,.57s.33,.47,.43,.74,.15,.57,.15,.89c0,.57-.12,1.05-.36,1.46s-.56,.72-.96,.93c-.4,.22-.83,.32-1.29,.32h-.01Zm1.86,3.54v-.28c0-.45-.12-.77-.35-.98-.23-.2-.58-.3-1.04-.3h-1.27c-.28,0-.52-.02-.73-.07-.21-.05-.38-.12-.51-.21-.14-.09-.24-.21-.3-.34s-.1-.29-.1-.46c0-.32,.1-.56,.29-.73,.19-.16,.43-.27,.72-.31s.56-.04,.82,0l.61,.14c-.46,.03-.81,.07-1.06,.14s-.37,.21-.37,.43c0,.13,.05,.23,.15,.31,.1,.08,.24,.12,.44,.12h1.32c.44,0,.84,.06,1.2,.18s.65,.33,.87,.62,.33,.69,.33,1.2v.53h-1.02Zm-1.86-4.47c.28,0,.54-.07,.78-.2,.24-.13,.44-.33,.59-.6s.23-.58,.23-.96-.07-.7-.22-.97c-.15-.27-.34-.47-.59-.61s-.51-.21-.79-.21-.54,.07-.79,.21-.44,.34-.6,.6c-.15,.26-.23,.59-.23,.98s.08,.7,.23,.96c.15,.26,.35,.46,.6,.6s.51,.2,.79,.2h0Z" fill="#35374e"></path>
    <path d="M586.01,151.11h1.01v8.87h-1.01v-8.87Z" fill="#35374e"></path>
    <path d="M593.28,157.94h.95c-.07,.41-.22,.78-.45,1.11-.23,.33-.54,.58-.91,.77-.38,.19-.81,.29-1.3,.29-.59,0-1.12-.14-1.6-.42-.47-.28-.85-.67-1.12-1.17-.28-.49-.41-1.06-.41-1.69s.13-1.2,.4-1.7,.63-.89,1.1-1.18c.46-.29,.99-.43,1.57-.43,.62,0,1.14,.14,1.56,.41s.74,.68,.95,1.2c.21,.53,.29,1.18,.25,1.94h-4.81c.04,.41,.16,.78,.34,1.09s.43,.56,.73,.73,.65,.26,1.04,.26c.43,0,.8-.11,1.1-.34s.5-.52,.61-.88h0Zm-1.74-3.46c-.52,0-.96,.15-1.32,.46-.35,.3-.59,.72-.71,1.24h3.71c-.03-.56-.21-.98-.54-1.27s-.71-.43-1.15-.43h.01Z" fill="#35374e"></path>
  </g>
  <g>
    <path d="M520.07,467.24h.91c.03,.35,.13,.67,.32,.95s.44,.5,.77,.66,.71,.24,1.15,.24c.38,0,.7-.06,.96-.17,.26-.11,.45-.27,.58-.48,.13-.2,.2-.44,.2-.71s-.07-.5-.2-.67c-.14-.17-.33-.31-.58-.43s-.55-.23-.9-.34c-.33-.1-.66-.22-1-.35s-.65-.3-.94-.49-.53-.43-.7-.7c-.18-.27-.27-.61-.27-.99s.1-.74,.31-1.07c.21-.33,.51-.6,.91-.81,.4-.21,.88-.31,1.45-.31,.89,0,1.55,.24,1.99,.72s.65,1.12,.63,1.91h-.91c-.02-.6-.19-1.03-.51-1.29s-.74-.39-1.25-.39c-.43,0-.81,.1-1.13,.3-.32,.2-.48,.51-.48,.93,0,.19,.04,.35,.11,.49,.07,.14,.19,.27,.36,.39,.16,.12,.39,.23,.67,.35,.28,.11,.63,.24,1.04,.37,.27,.08,.55,.19,.83,.3s.54,.27,.79,.44c.24,.18,.43,.4,.58,.68,.15,.27,.22,.62,.22,1.03s-.09,.77-.29,1.11-.49,.62-.89,.83-.92,.32-1.55,.32c-.54,0-1-.07-1.39-.22-.38-.15-.7-.34-.94-.58-.25-.24-.43-.48-.56-.74s-.22-.5-.26-.73c-.04-.23-.05-.41-.01-.53l-.02-.02Z" fill="#35374e"></path>
    <path d="M528.54,461.05v1.23h-1.32v-1.23h1.32Zm-1.17,2.53h1.01v6.33h-1.01v-6.33Z" fill="#35374e"></path>
    <path d="M532.39,468.92c-.45,0-.87-.11-1.27-.32-.4-.21-.73-.53-.97-.93-.25-.41-.37-.89-.37-1.46s.12-1.05,.37-1.46,.57-.73,.96-.95c.4-.22,.83-.34,1.29-.34,.14,0,.28,.01,.41,.03,.13,.02,.25,.05,.37,.09h2.57v1.09c-.36,0-.72-.07-1.08-.2-.36-.13-.67-.27-.92-.42l-.05-.05c.3,.16,.54,.35,.73,.57s.33,.47,.43,.74,.15,.57,.15,.89c0,.57-.12,1.05-.36,1.46s-.56,.72-.96,.93c-.4,.22-.83,.32-1.29,.32h-.01Zm1.86,3.54v-.28c0-.45-.12-.77-.35-.98-.23-.2-.58-.3-1.04-.3h-1.27c-.28,0-.52-.02-.73-.07-.21-.05-.38-.12-.51-.21-.14-.09-.24-.21-.3-.34s-.1-.29-.1-.46c0-.32,.1-.56,.29-.73,.19-.16,.43-.27,.72-.31s.56-.04,.82,0l.61,.14c-.46,.03-.81,.07-1.06,.14s-.37,.21-.37,.43c0,.13,.05,.23,.15,.31,.1,.08,.24,.12,.44,.12h1.32c.44,0,.84,.06,1.2,.18s.65,.33,.87,.62,.33,.69,.33,1.2v.53h-1.02Zm-1.86-4.47c.28,0,.54-.07,.78-.2,.24-.13,.44-.33,.59-.6s.23-.58,.23-.96-.07-.7-.22-.97c-.15-.27-.34-.47-.59-.61-.25-.14-.51-.21-.79-.21s-.54,.07-.79,.21c-.25,.14-.44,.34-.6,.6-.15,.26-.23,.59-.23,.98s.08,.7,.23,.96c.15,.26,.35,.46,.6,.6s.51,.2,.79,.2h0Z" fill="#35374e"></path>
    <path d="M536.94,463.58h1.01v6.33h-1.01v-6.33Zm3.19-.13c.34,0,.64,.05,.91,.15s.5,.25,.68,.44c.19,.19,.33,.43,.43,.7,.1,.27,.15,.58,.15,.93v4.23h-1.01v-3.98c0-.49-.11-.86-.34-1.1-.23-.24-.57-.37-1.03-.37-.35,0-.67,.09-.96,.27-.3,.18-.54,.42-.73,.73s-.31,.67-.35,1.07v-.74c.03-.35,.12-.68,.25-.96s.3-.53,.49-.74,.43-.37,.68-.48c.26-.11,.53-.17,.82-.17v.02Z" fill="#35374e"></path>
    <path d="M551.04,466.97v.35c0,.1-.02,.26-.06,.47s-.1,.45-.19,.7c-.09,.26-.21,.5-.38,.74-.16,.24-.38,.43-.63,.58-.26,.15-.58,.23-.96,.23-.25,0-.5-.04-.75-.11-.26-.07-.5-.19-.71-.35-.22-.16-.4-.39-.53-.69-.14-.29-.2-.66-.2-1.1v-4.21h1.01v3.95c0,.38,.06,.68,.18,.89,.12,.21,.29,.37,.5,.46s.45,.14,.71,.14c.43,0,.79-.11,1.08-.33s.51-.49,.66-.81c.15-.32,.25-.63,.28-.92h0Zm.95,2.96h-1.01v-6.33h1.01v6.33Z" fill="#35374e"></path>
    <path d="M553.63,463.58h.98l.04,1.33v7.54h-1.01v-8.87h0Zm3.17,6.46c-.46,0-.84-.11-1.14-.32-.3-.22-.53-.49-.69-.84-.17-.34-.28-.7-.35-1.08-.07-.38-.1-.72-.1-1.04,0-.46,.03-.88,.09-1.28s.18-.75,.34-1.05c.16-.3,.39-.54,.69-.72,.3-.17,.69-.26,1.16-.26,.51,0,.97,.14,1.38,.43,.41,.29,.75,.68,.99,1.18s.37,1.06,.37,1.7-.13,1.2-.38,1.69-.59,.88-1.01,1.17c-.42,.28-.87,.42-1.36,.42h0Zm-.25-.96c.39,0,.73-.1,1.03-.3s.53-.47,.7-.82,.25-.75,.25-1.2c0-.68-.17-1.24-.52-1.68-.35-.44-.84-.67-1.47-.67-.37,0-.7,.1-.99,.3s-.51,.47-.67,.82-.24,.76-.24,1.22c0,.42,.07,.81,.21,1.16s.35,.63,.63,.84,.63,.32,1.06,.32h0Z" fill="#35374e"></path>
  </g>
  <g>
    <path d="M467.55,529.55l3.13-8.23h1.06l3.15,8.23h-1.09l-2.75-7.45h.3l-2.75,7.45h-1.05Zm1.67-2.15v-.95h3.95v.95h-3.95Z" fill="#35374e"></path>
    <path d="M476.11,520.68h1.01v8.87h-1.01v-8.87Z" fill="#35374e"></path>
    <path d="M478.89,523.22h1.01v6.33h-1.01v-6.33Zm3.04,.95c-.43,0-.79,.11-1.08,.32-.29,.21-.52,.48-.68,.79-.17,.31-.27,.61-.32,.89v-.74c-.01-.08,0-.2,.04-.38,.03-.18,.1-.38,.19-.6s.22-.44,.37-.65c.16-.21,.36-.38,.6-.51s.54-.2,.89-.2v1.08h-.01Z" fill="#35374e"></path>
    <path d="M487.56,527.51h.95c-.07,.41-.22,.78-.45,1.11-.23,.33-.54,.58-.91,.77-.38,.19-.81,.29-1.3,.29-.59,0-1.12-.14-1.6-.42-.47-.28-.85-.67-1.12-1.17-.28-.49-.41-1.06-.41-1.69s.13-1.2,.4-1.7,.63-.89,1.1-1.18c.46-.29,.99-.43,1.57-.43,.62,0,1.14,.14,1.56,.41s.74,.68,.95,1.2c.21,.53,.29,1.18,.25,1.94h-4.81c.04,.41,.16,.78,.34,1.09s.43,.56,.73,.73c.3,.17,.65,.26,1.04,.26,.43,0,.8-.11,1.1-.34s.5-.52,.61-.88h0Zm-1.74-3.46c-.52,0-.96,.15-1.32,.46-.35,.3-.59,.72-.71,1.24h3.71c-.03-.56-.21-.98-.54-1.27s-.71-.43-1.15-.43h.01Z" fill="#35374e"></path>
    <path d="M492.24,529.68c-.5,0-.96-.14-1.38-.42-.42-.28-.75-.67-1-1.17-.25-.49-.37-1.06-.37-1.69s.13-1.2,.38-1.7,.6-.89,1.03-1.18c.44-.29,.92-.43,1.46-.43,.59,0,1.04,.15,1.35,.45s.52,.7,.63,1.2c.11,.5,.17,1.05,.17,1.66,0,.32-.03,.67-.1,1.04-.07,.38-.18,.74-.35,1.08-.16,.34-.39,.62-.69,.84-.3,.21-.68,.32-1.14,.32h.01Zm.25-.96c.43,0,.79-.11,1.07-.32s.49-.49,.63-.84c.14-.35,.2-.74,.2-1.16,0-.46-.07-.87-.21-1.22-.14-.35-.35-.62-.63-.82s-.63-.3-1.06-.3c-.63,0-1.12,.22-1.47,.67-.35,.44-.52,1-.52,1.68,0,.45,.09,.85,.26,1.2,.17,.35,.41,.62,.71,.82s.64,.3,1.02,.3h0Zm1.9-5.51h1.01v6.33h-.92c-.03-.3-.05-.56-.06-.76-.02-.2-.03-.37-.03-.51v-5.07h0Z" fill="#35374e"></path>
    <path d="M499.45,529.68c-.51,0-.97-.14-1.39-.42-.42-.28-.75-.67-.99-1.17s-.37-1.06-.37-1.69,.12-1.2,.35-1.7,.56-.89,.98-1.18c.41-.29,.89-.43,1.42-.43,.47,0,.86,.09,1.16,.26,.3,.17,.53,.41,.69,.72,.16,.3,.27,.66,.33,1.05,.06,.4,.1,.82,.1,1.28,0,.32-.03,.67-.1,1.04-.07,.38-.18,.74-.35,1.08-.16,.34-.39,.62-.69,.84-.3,.21-.68,.32-1.14,.32h0Zm.25-.96c.43,0,.79-.11,1.07-.32s.49-.49,.63-.84c.14-.35,.2-.74,.2-1.16,0-.46-.07-.87-.21-1.22-.14-.35-.35-.62-.63-.82s-.63-.3-1.06-.3c-.63,0-1.12,.22-1.47,.67-.35,.44-.52,1-.52,1.68,0,.45,.09,.85,.26,1.2,.17,.35,.41,.62,.71,.82s.64,.3,1.02,.3h0Zm1.9-8.04h1.01v8.87h-.92c-.02-.19-.04-.41-.06-.66s-.03-.46-.03-.61v-7.6h0Z" fill="#35374e"></path>
    <path d="M503.88,523.22h1.09l2.27,6.08-.89,.25-2.47-6.33h0Zm5.89,0l-3.53,8.87h-1.1l1.53-3.42,2.03-5.45h1.07Z" fill="#35374e"></path>
    <path d="M513.66,529.55v-8.87h1.01v8.87h-1.01Zm4.36,0v-3.98c0-.33-.05-.6-.15-.82-.1-.21-.25-.38-.46-.49-.2-.11-.46-.17-.76-.17-.35,0-.67,.09-.96,.27-.3,.18-.54,.42-.73,.73s-.31,.67-.35,1.07v-.74c.03-.35,.12-.68,.25-.96,.13-.29,.29-.53,.49-.74,.2-.21,.43-.37,.68-.48,.26-.11,.53-.17,.82-.17,.34,0,.64,.05,.91,.15,.27,.1,.5,.25,.68,.44s.33,.43,.43,.7,.15,.58,.15,.93v4.23h-1.01v.03Z" fill="#35374e"></path>
    <path d="M523.08,529.68c-.5,0-.96-.14-1.38-.42-.42-.28-.75-.67-1-1.17-.25-.49-.37-1.06-.37-1.69s.13-1.2,.38-1.7,.6-.89,1.03-1.18c.44-.29,.92-.43,1.46-.43,.59,0,1.04,.15,1.35,.45s.52,.7,.63,1.2,.17,1.05,.17,1.66c0,.32-.03,.67-.1,1.04-.07,.38-.18,.74-.35,1.08-.16,.34-.39,.62-.69,.84-.3,.21-.68,.32-1.14,.32h0Zm.25-.96c.43,0,.79-.11,1.07-.32s.49-.49,.63-.84c.14-.35,.2-.74,.2-1.16,0-.46-.07-.87-.21-1.22s-.35-.62-.63-.82-.63-.3-1.06-.3c-.63,0-1.12,.22-1.47,.67-.35,.44-.52,1-.52,1.68,0,.45,.09,.85,.26,1.2,.17,.35,.41,.62,.71,.82s.64,.3,1.02,.3h0Zm1.9-5.51h1.01v6.33h-.92c-.03-.3-.05-.56-.06-.76-.02-.2-.03-.37-.03-.51v-5.07h0Z" fill="#35374e"></path>
    <path d="M530.33,528.68h-.3l1.94-5.46h1.1l-2.41,6.33h-.95l-2.39-6.33h1.1l1.91,5.46h0Z" fill="#35374e"></path>
    <path d="M538.44,527.51h.95c-.07,.41-.22,.78-.45,1.11-.23,.33-.54,.58-.91,.77-.38,.19-.81,.29-1.3,.29-.59,0-1.12-.14-1.6-.42-.47-.28-.85-.67-1.12-1.17-.28-.49-.41-1.06-.41-1.69s.13-1.2,.4-1.7,.63-.89,1.1-1.18c.46-.29,.99-.43,1.57-.43,.62,0,1.14,.14,1.56,.41s.74,.68,.95,1.2c.21,.53,.29,1.18,.25,1.94h-4.81c.04,.41,.16,.78,.34,1.09s.43,.56,.73,.73,.65,.26,1.04,.26c.43,0,.8-.11,1.1-.34s.5-.52,.61-.88h0Zm-1.74-3.46c-.52,0-.96,.15-1.32,.46-.35,.3-.59,.72-.71,1.24h3.71c-.03-.56-.21-.98-.54-1.27s-.71-.43-1.15-.43h.01Z" fill="#35374e"></path>
    <path d="M545.79,529.68c-.5,0-.96-.14-1.38-.42-.42-.28-.75-.67-1-1.17-.25-.49-.37-1.06-.37-1.69s.13-1.2,.38-1.7,.6-.89,1.03-1.18c.44-.29,.92-.43,1.46-.43,.59,0,1.04,.15,1.35,.45s.52,.7,.63,1.2,.17,1.05,.17,1.66c0,.32-.03,.67-.1,1.04-.07,.38-.18,.74-.35,1.08-.16,.34-.39,.62-.69,.84-.3,.21-.68,.32-1.14,.32h0Zm.25-.96c.43,0,.79-.11,1.07-.32s.49-.49,.63-.84c.14-.35,.2-.74,.2-1.16,0-.46-.07-.87-.21-1.22s-.35-.62-.63-.82-.63-.3-1.06-.3c-.63,0-1.12,.22-1.47,.67-.35,.44-.52,1-.52,1.68,0,.45,.09,.85,.26,1.2,.17,.35,.41,.62,.71,.82s.64,.3,1.02,.3h0Zm1.9-5.51h1.01v6.33h-.92c-.03-.3-.05-.56-.06-.76-.02-.2-.03-.37-.03-.51v-5.07h0Z" fill="#35374e"></path>
    <path d="M550.6,523.22h1.01v6.33h-1.01v-6.33Zm3.19-.13c.34,0,.64,.05,.91,.15s.5,.25,.68,.44c.19,.19,.33,.43,.43,.7s.15,.58,.15,.93v4.23h-1.01v-3.98c0-.49-.11-.86-.34-1.1-.23-.24-.57-.37-1.03-.37-.35,0-.67,.09-.96,.27-.3,.18-.54,.42-.73,.73s-.31,.67-.35,1.07v-.74c.03-.35,.12-.68,.25-.96s.3-.53,.49-.74,.43-.37,.68-.48c.26-.11,.53-.17,.82-.17v.02Z" fill="#35374e"></path>
    <path d="M562.67,529.68c-.5,0-.96-.14-1.38-.42-.42-.28-.75-.67-1-1.17-.25-.49-.37-1.06-.37-1.69s.13-1.2,.38-1.7,.6-.89,1.03-1.18c.44-.29,.92-.43,1.46-.43,.59,0,1.04,.15,1.35,.45s.52,.7,.63,1.2,.17,1.05,.17,1.66c0,.32-.03,.67-.1,1.04-.07,.38-.18,.74-.35,1.08-.16,.34-.39,.62-.69,.84-.3,.21-.68,.32-1.14,.32h0Zm.25-.96c.43,0,.79-.11,1.07-.32s.49-.49,.63-.84c.14-.35,.2-.74,.2-1.16,0-.46-.07-.87-.21-1.22s-.35-.62-.63-.82-.63-.3-1.06-.3c-.63,0-1.12,.22-1.47,.67-.35,.44-.52,1-.52,1.68,0,.45,.09,.85,.26,1.2,.17,.35,.41,.62,.71,.82s.64,.3,1.02,.3h0Zm1.9-5.51h1.01v6.33h-.92c-.03-.3-.05-.56-.06-.76-.02-.2-.03-.37-.03-.51v-5.07h0Z" fill="#35374e"></path>
    <path d="M573.11,527.17c-.06,.52-.23,.97-.5,1.35s-.62,.66-1.03,.86-.86,.3-1.34,.3c-.54,0-1.05-.13-1.52-.39-.47-.26-.85-.64-1.15-1.13-.29-.49-.44-1.08-.44-1.75s.15-1.26,.44-1.75,.67-.88,1.15-1.15c.47-.27,.98-.41,1.52-.41,.48,0,.93,.1,1.34,.3,.41,.2,.75,.49,1.03,.86,.27,.37,.45,.81,.51,1.33h-.92c-.14-.48-.39-.86-.75-1.13-.35-.27-.76-.41-1.2-.41-.36,0-.71,.09-1.03,.28s-.58,.45-.77,.8-.29,.78-.29,1.27,.1,.91,.29,1.26,.45,.62,.77,.8,.66,.27,1.03,.27c.51,0,.94-.14,1.26-.41s.56-.66,.7-1.15h.9Z" fill="#35374e"></path>
    <path d="M580.03,527.17c-.06,.52-.23,.97-.5,1.35s-.62,.66-1.03,.86-.86,.3-1.34,.3c-.54,0-1.05-.13-1.52-.39-.47-.26-.85-.64-1.15-1.13-.29-.49-.44-1.08-.44-1.75s.15-1.26,.44-1.75,.67-.88,1.15-1.15c.47-.27,.98-.41,1.52-.41,.48,0,.93,.1,1.34,.3,.41,.2,.75,.49,1.03,.86,.27,.37,.45,.81,.51,1.33h-.92c-.14-.48-.39-.86-.75-1.13-.35-.27-.76-.41-1.2-.41-.36,0-.71,.09-1.03,.28s-.58,.45-.77,.8-.29,.78-.29,1.27,.1,.91,.29,1.26,.45,.62,.77,.8,.66,.27,1.03,.27c.51,0,.94-.14,1.26-.41s.56-.66,.7-1.15h.9Z" fill="#35374e"></path>
    <path d="M584.07,529.68c-.54,0-1.05-.13-1.52-.39-.47-.26-.85-.64-1.15-1.13-.29-.49-.44-1.08-.44-1.75s.15-1.26,.44-1.75,.67-.88,1.15-1.15c.47-.27,.98-.41,1.52-.41s1.04,.14,1.51,.41c.47,.27,.85,.65,1.13,1.15,.29,.49,.43,1.08,.43,1.75s-.14,1.26-.43,1.75-.67,.87-1.13,1.13-.97,.39-1.51,.39Zm0-.95c.35,0,.69-.09,1-.27s.57-.44,.77-.79,.3-.78,.3-1.27-.1-.92-.3-1.27c-.2-.35-.45-.62-.77-.8s-.65-.28-1-.28-.69,.09-1.01,.27-.58,.45-.78,.8-.3,.78-.3,1.29,.1,.92,.3,1.27c.2,.35,.46,.61,.78,.79s.66,.27,1.01,.27h0Z" fill="#35374e"></path>
    <path d="M592.86,526.6v.35c0,.1-.02,.26-.06,.47s-.1,.45-.19,.7c-.09,.26-.21,.5-.38,.74-.16,.24-.38,.43-.63,.58-.26,.15-.58,.23-.96,.23-.25,0-.5-.04-.75-.11-.26-.07-.5-.19-.71-.35-.22-.16-.4-.39-.53-.69-.14-.29-.2-.66-.2-1.1v-4.21h1.01v3.95c0,.38,.06,.68,.18,.89s.29,.37,.5,.46,.45,.14,.71,.14c.43,0,.79-.11,1.08-.33s.51-.49,.66-.81c.15-.32,.25-.63,.28-.92h0Zm.95,2.96h-1.01v-6.33h1.01v6.33Z" fill="#35374e"></path>
    <path d="M595.46,523.22h1.01v6.33h-1.01v-6.33Zm3.19-.13c.34,0,.64,.05,.91,.15s.5,.25,.68,.44c.19,.19,.33,.43,.43,.7s.15,.58,.15,.93v4.23h-1.01v-3.98c0-.49-.11-.86-.34-1.1-.23-.24-.57-.37-1.03-.37-.35,0-.67,.09-.96,.27-.3,.18-.54,.42-.73,.73s-.31,.67-.35,1.07v-.74c.03-.35,.12-.68,.25-.96s.3-.53,.49-.74,.43-.37,.68-.48c.26-.11,.53-.17,.82-.17v.02Z" fill="#35374e"></path>
    <path d="M602.03,523.22h3.72v.95h-3.72v-.95Zm1.36-1.65h1.01v7.98h-1.01v-7.98Z" fill="#35374e"></path>
    <path d="M608.71,527v-2.19h.3c.67,0,1.18-.15,1.51-.45s.5-.72,.5-1.25c0-.5-.15-.89-.44-1.18s-.67-.43-1.13-.43c-.3,0-.56,.06-.8,.19s-.42,.3-.55,.53c-.13,.23-.2,.5-.2,.81h-1.01c0-.28,.04-.54,.12-.79s.2-.48,.35-.68c.16-.21,.34-.38,.56-.53s.46-.26,.72-.35c.27-.08,.55-.13,.87-.13,.39,0,.74,.06,1.05,.19s.57,.31,.79,.54,.39,.5,.51,.81,.18,.64,.18,1.01c0,.51-.1,.94-.3,1.29s-.48,.63-.83,.84c-.35,.2-.75,.33-1.18,.38v1.39h-1.02Zm-.15,2.55v-1.24h1.3v1.24h-1.3Z" fill="#35374e"></path>
  </g>
  <g>
    <path d="M525.02,539.25v7.28h4.56v.95h-5.57v-8.23h1.01Z" fill="#FF8E72"></path>
    <path d="M533.53,547.61c-.54,0-1.05-.13-1.52-.39-.47-.26-.85-.64-1.15-1.13-.29-.49-.44-1.08-.44-1.75s.15-1.26,.44-1.75,.67-.88,1.15-1.15c.47-.27,.98-.41,1.52-.41s1.04,.14,1.51,.41c.47,.27,.85,.65,1.13,1.15,.29,.49,.43,1.08,.43,1.75s-.14,1.26-.43,1.75-.67,.87-1.13,1.13-.97,.39-1.51,.39Zm0-.95c.35,0,.69-.09,1-.27s.57-.44,.77-.79,.3-.78,.3-1.27-.1-.92-.3-1.27c-.2-.35-.45-.62-.77-.8s-.65-.28-1-.28-.69,.09-1.01,.27-.58,.45-.78,.8-.3,.78-.3,1.29,.1,.92,.3,1.27c.2,.35,.46,.61,.78,.79s.66,.27,1.01,.27h0Z" fill="#FF8E72"></path>
    <path d="M540.17,546.48c-.45,0-.87-.11-1.27-.32s-.73-.53-.97-.93c-.25-.41-.37-.89-.37-1.46s.12-1.05,.37-1.46c.25-.41,.57-.73,.96-.95,.4-.22,.83-.34,1.29-.34,.14,0,.28,.01,.41,.03,.13,.02,.25,.05,.37,.09h2.57v1.09c-.36,0-.72-.07-1.08-.2-.36-.13-.67-.27-.92-.42l-.05-.05c.3,.16,.54,.35,.73,.57s.33,.47,.43,.74,.15,.57,.15,.89c0,.57-.12,1.05-.36,1.46-.24,.41-.56,.72-.96,.93-.4,.22-.83,.32-1.29,.32h-.01Zm1.86,3.54v-.28c0-.45-.12-.77-.35-.98-.23-.2-.58-.3-1.04-.3h-1.27c-.28,0-.52-.02-.73-.07-.21-.05-.38-.12-.51-.21-.14-.09-.24-.21-.3-.34s-.1-.29-.1-.46c0-.32,.1-.56,.29-.73,.19-.16,.43-.27,.72-.31s.56-.04,.82,0l.61,.14c-.46,.03-.81,.07-1.06,.14s-.37,.21-.37,.43c0,.13,.05,.23,.15,.31,.1,.08,.24,.12,.44,.12h1.32c.44,0,.84,.06,1.2,.18s.65,.33,.87,.62,.33,.69,.33,1.2v.53h-1.02Zm-1.86-4.47c.28,0,.54-.07,.78-.2,.24-.13,.44-.33,.59-.6s.23-.58,.23-.96-.07-.7-.22-.97c-.15-.27-.34-.47-.59-.61s-.51-.21-.79-.21-.54,.07-.79,.21-.44,.34-.6,.6c-.15,.26-.23,.59-.23,.98s.08,.7,.23,.96c.15,.26,.35,.46,.6,.6s.51,.2,.79,.2h0Z" fill="#FF8E72"></path>
    <path d="M548.63,538.61v1.23h-1.32v-1.23h1.32Zm-1.17,2.53h1.01v6.33h-1.01v-6.33Z" fill="#FF8E72"></path>
    <path d="M550.22,541.15h1.01v6.33h-1.01v-6.33Zm3.19-.13c.34,0,.64,.05,.91,.15s.5,.25,.68,.44c.19,.19,.33,.43,.43,.7s.15,.58,.15,.93v4.23h-1.01v-3.98c0-.49-.11-.86-.34-1.1-.23-.24-.57-.37-1.03-.37-.35,0-.67,.09-.96,.27-.3,.18-.54,.42-.73,.73s-.31,.67-.35,1.07v-.74c.03-.35,.12-.68,.25-.96s.3-.53,.49-.74,.43-.37,.68-.48c.26-.11,.53-.17,.82-.17v.02Z" fill="#FF8E72"></path>
  </g>
  <g>
    <path d="M430.22,217.76l-.28,.09v-7.12h1.01v8.23h-1.01l-5.35-7.02,.28-.09v7.11h-1.01v-8.23h1.01l5.35,7.03Z" fill="#35374e"></path>
    <path d="M435.18,219.09c-.5,0-.96-.14-1.38-.42s-.75-.67-1-1.17c-.25-.49-.37-1.06-.37-1.69s.13-1.2,.38-1.7,.6-.89,1.03-1.18c.44-.29,.92-.43,1.46-.43,.59,0,1.04,.15,1.35,.45s.52,.7,.63,1.2c.11,.5,.17,1.05,.17,1.66,0,.32-.03,.67-.1,1.04-.07,.38-.18,.74-.35,1.08-.16,.34-.39,.62-.69,.84-.3,.21-.68,.32-1.14,.32h.01Zm.25-.96c.43,0,.79-.11,1.07-.32s.49-.49,.63-.84c.14-.35,.2-.74,.2-1.16,0-.46-.07-.87-.21-1.22-.14-.35-.35-.62-.63-.82-.28-.2-.63-.3-1.06-.3-.63,0-1.12,.22-1.47,.67-.35,.44-.52,1-.52,1.68,0,.45,.09,.85,.26,1.2,.17,.35,.41,.62,.71,.82s.64,.3,1.02,.3h0Zm1.9-5.51h1.01v6.33h-.92c-.03-.3-.05-.56-.06-.76-.02-.2-.03-.37-.03-.51v-5.07h0Z" fill="#35374e"></path>
    <path d="M439.99,212.63h1.01v6.33h-1.01v-6.33Zm3.19-.13c.34,0,.64,.05,.91,.15s.5,.25,.68,.44c.19,.19,.33,.43,.43,.7s.15,.58,.15,.93v4.23h-1.01v-3.98c0-.49-.11-.86-.34-1.1s-.57-.37-1.03-.37c-.35,0-.67,.09-.96,.27-.3,.18-.54,.42-.73,.73s-.31,.67-.35,1.07v-.74c.03-.35,.12-.68,.25-.96s.3-.53,.49-.74,.43-.37,.68-.48c.26-.11,.53-.17,.82-.17v.02Zm4.27,0c.34,0,.64,.05,.91,.15,.27,.1,.5,.25,.68,.44s.33,.43,.43,.7,.15,.58,.15,.93v4.23h-1.01v-3.98c0-.49-.11-.86-.34-1.1s-.57-.37-1.03-.37c-.35,0-.67,.09-.96,.27-.3,.18-.54,.42-.73,.73s-.31,.67-.35,1.07v-.74c.03-.35,.12-.68,.25-.96s.3-.53,.49-.74,.43-.37,.68-.48c.26-.11,.53-.17,.82-.17v.02Z" fill="#35374e"></path>
    <path d="M455.75,216.93h.95c-.07,.41-.22,.78-.45,1.11s-.54,.58-.91,.77c-.38,.19-.81,.29-1.3,.29-.59,0-1.12-.14-1.6-.42-.47-.28-.85-.67-1.12-1.17-.28-.49-.41-1.06-.41-1.69s.13-1.2,.4-1.7,.63-.89,1.1-1.18c.46-.29,.99-.43,1.57-.43,.62,0,1.14,.14,1.56,.41s.74,.68,.95,1.2c.21,.53,.29,1.18,.25,1.94h-4.81c.04,.41,.16,.78,.34,1.09s.43,.56,.73,.73c.3,.17,.65,.26,1.04,.26,.43,0,.8-.11,1.1-.34s.5-.52,.61-.88h0Zm-1.74-3.46c-.52,0-.96,.15-1.32,.46-.35,.3-.59,.72-.71,1.24h3.71c-.03-.56-.21-.98-.54-1.27s-.71-.43-1.15-.43h.01Z" fill="#35374e"></path>
  </g>
  <g opacity=".2">
    <path d="M433.06,239.41v7.28h4.56v.95h-5.57v-8.23h1.01Z" fill="#35374e"></path>
    <path d="M443.31,245.6h.95c-.07,.41-.22,.78-.45,1.11s-.54,.58-.91,.77c-.38,.19-.81,.29-1.3,.29-.59,0-1.12-.14-1.6-.42-.47-.28-.85-.67-1.12-1.17-.28-.49-.41-1.06-.41-1.69s.13-1.2,.4-1.7,.63-.89,1.1-1.18c.46-.29,.99-.43,1.57-.43,.62,0,1.14,.14,1.56,.41s.74,.68,.95,1.2c.21,.53,.29,1.18,.25,1.94h-4.81c.04,.41,.16,.78,.34,1.09s.43,.56,.73,.73c.3,.17,.65,.26,1.04,.26,.43,0,.8-.11,1.1-.34s.5-.52,.61-.88h0Zm-1.74-3.46c-.52,0-.96,.15-1.32,.46-.35,.3-.59,.72-.71,1.24h3.71c-.03-.56-.21-.98-.54-1.27s-.71-.43-1.15-.43h.01Z" fill="#35374e"></path>
    <path d="M445.3,245.6h.94c.03,.36,.16,.66,.41,.89s.61,.34,1.08,.34c.29,0,.51-.04,.68-.11,.17-.08,.29-.18,.36-.31s.11-.28,.11-.44c0-.19-.05-.35-.15-.46s-.23-.21-.39-.29c-.17-.08-.35-.15-.56-.21-.25-.09-.5-.19-.75-.3-.26-.11-.5-.23-.72-.38s-.4-.33-.54-.54c-.14-.21-.2-.47-.2-.78,0-.25,.05-.49,.15-.72,.1-.22,.25-.42,.44-.58,.19-.17,.41-.29,.67-.39s.54-.14,.86-.14c.42,0,.78,.08,1.07,.25s.51,.41,.67,.72,.24,.67,.25,1.07h-.87c-.06-.38-.18-.66-.36-.83s-.44-.26-.78-.26-.61,.08-.8,.23-.28,.35-.28,.61c0,.19,.07,.34,.2,.46,.13,.12,.31,.23,.53,.33,.21,.1,.45,.2,.69,.3s.48,.2,.71,.3c.23,.1,.43,.22,.61,.36,.18,.13,.32,.3,.42,.5s.16,.45,.16,.74c0,.35-.08,.67-.25,.94s-.41,.49-.72,.64c-.32,.15-.7,.23-1.16,.23-.41,0-.77-.05-1.06-.16s-.53-.25-.73-.42c-.19-.17-.34-.36-.45-.55s-.18-.38-.21-.57-.04-.34-.03-.47h0Z" fill="#35374e"></path>
    <path d="M451.32,238.78h1.01v8.87h-1.01v-8.87Z" fill="#35374e"></path>
    <path d="M455.36,238.78v1.23h-1.32v-1.23h1.32Zm-1.17,2.53h1.01v6.33h-1.01v-6.33Z" fill="#35374e"></path>
    <path d="M461.43,245.6h.95c-.07,.41-.22,.78-.45,1.11s-.54,.58-.91,.77c-.38,.19-.81,.29-1.3,.29-.59,0-1.12-.14-1.6-.42-.47-.28-.85-.67-1.12-1.17-.28-.49-.41-1.06-.41-1.69s.13-1.2,.4-1.7,.63-.89,1.1-1.18c.46-.29,.99-.43,1.57-.43,.62,0,1.14,.14,1.56,.41s.74,.68,.95,1.2c.21,.53,.29,1.18,.25,1.94h-4.81c.04,.41,.16,.78,.34,1.09s.43,.56,.73,.73c.3,.17,.65,.26,1.04,.26,.43,0,.8-.11,1.1-.34s.5-.52,.61-.88h0Zm-1.74-3.46c-.52,0-.96,.15-1.32,.46-.35,.3-.59,.72-.71,1.24h3.71c-.03-.56-.21-.98-.54-1.27s-.71-.43-1.15-.43h.01Z" fill="#35374e"></path>
    <path d="M465.81,247.64l3.13-8.23h1.06l3.15,8.23h-1.09l-2.75-7.45h.3l-2.75,7.45h-1.05Zm1.67-2.15v-.95h3.95v.95h-3.95Z" fill="#35374e"></path>
    <path d="M474.36,238.78h1.01v8.87h-1.01v-8.87Z" fill="#35374e"></path>
    <path d="M481.63,245.6h.95c-.07,.41-.22,.78-.45,1.11s-.54,.58-.91,.77c-.38,.19-.81,.29-1.3,.29-.59,0-1.12-.14-1.6-.42-.47-.28-.85-.67-1.12-1.17-.28-.49-.41-1.06-.41-1.69s.13-1.2,.4-1.7,.63-.89,1.1-1.18c.46-.29,.99-.43,1.57-.43,.62,0,1.14,.14,1.56,.41s.74,.68,.95,1.2c.21,.53,.29,1.18,.25,1.94h-4.81c.04,.41,.16,.78,.34,1.09s.43,.56,.73,.73c.3,.17,.65,.26,1.04,.26,.43,0,.8-.11,1.1-.34s.5-.52,.61-.88h0Zm-1.74-3.46c-.52,0-.96,.15-1.32,.46-.35,.3-.59,.72-.71,1.24h3.71c-.03-.56-.21-.98-.54-1.27s-.71-.43-1.15-.43h.01Z" fill="#35374e"></path>
    <path d="M483.23,241.31h1.27l1.96,2.72,2.6,3.61h-1.23l-2.05-2.89-2.55-3.45h0Zm5.7,0l-2.46,3.45-2.01,2.89h-1.23l2.62-3.64,1.85-2.7h1.23Z" fill="#35374e"></path>
    <path d="M492.4,247.77c-.5,0-.96-.14-1.38-.42s-.75-.67-1-1.17c-.25-.49-.37-1.06-.37-1.69s.13-1.2,.38-1.7,.6-.89,1.03-1.18c.44-.29,.92-.43,1.46-.43,.59,0,1.04,.15,1.35,.45s.52,.7,.63,1.2c.11,.5,.17,1.05,.17,1.66,0,.32-.03,.67-.1,1.04-.07,.38-.18,.74-.35,1.08-.16,.34-.39,.62-.69,.84-.3,.21-.68,.32-1.14,.32h.01Zm.25-.96c.43,0,.79-.11,1.07-.32s.49-.49,.63-.84c.14-.35,.2-.74,.2-1.16,0-.46-.07-.87-.21-1.22-.14-.35-.35-.62-.63-.82-.28-.2-.63-.3-1.06-.3-.63,0-1.12,.22-1.47,.67-.35,.44-.52,1-.52,1.68,0,.45,.09,.85,.26,1.2,.17,.35,.41,.62,.71,.82s.64,.3,1.02,.3h0Zm1.9-5.51h1.01v6.33h-.92c-.03-.3-.05-.56-.06-.76-.02-.2-.03-.37-.03-.51v-5.07h0Z" fill="#35374e"></path>
    <path d="M497.21,241.31h1.01v6.33h-1.01v-6.33Zm3.19-.13c.34,0,.64,.05,.91,.15s.5,.25,.68,.44c.19,.19,.33,.43,.43,.7s.15,.58,.15,.93v4.23h-1.01v-3.98c0-.49-.11-.86-.34-1.1s-.57-.37-1.03-.37c-.35,0-.67,.09-.96,.27-.3,.18-.54,.42-.73,.73s-.31,.67-.35,1.07v-.74c.03-.35,.12-.68,.25-.96s.3-.53,.49-.74,.43-.37,.68-.48c.26-.11,.53-.17,.82-.17v.02Z" fill="#35374e"></path>
    <path d="M506.62,247.77c-.51,0-.97-.14-1.39-.42s-.75-.67-.99-1.17-.37-1.06-.37-1.69,.12-1.2,.35-1.7,.56-.89,.98-1.18c.41-.29,.89-.43,1.42-.43,.47,0,.86,.09,1.16,.26,.3,.17,.53,.41,.69,.72,.16,.3,.27,.66,.33,1.05,.06,.4,.1,.82,.1,1.28,0,.32-.03,.67-.1,1.04-.07,.38-.18,.74-.35,1.08-.16,.34-.39,.62-.69,.84-.3,.21-.68,.32-1.14,.32h0Zm.25-.96c.43,0,.79-.11,1.07-.32s.49-.49,.63-.84c.14-.35,.2-.74,.2-1.16,0-.46-.07-.87-.21-1.22-.14-.35-.35-.62-.63-.82-.28-.2-.63-.3-1.06-.3-.63,0-1.12,.22-1.47,.67-.35,.44-.52,1-.52,1.68,0,.45,.09,.85,.26,1.2,.17,.35,.41,.62,.71,.82s.64,.3,1.02,.3h0Zm1.9-8.04h1.01v8.87h-.92c-.02-.19-.04-.41-.06-.66s-.03-.46-.03-.61v-7.6h0Z" fill="#35374e"></path>
    <path d="M516.11,245.6h.95c-.07,.41-.22,.78-.45,1.11-.23,.33-.54,.58-.91,.77-.38,.19-.81,.29-1.3,.29-.59,0-1.12-.14-1.6-.42-.47-.28-.85-.67-1.12-1.17-.28-.49-.41-1.06-.41-1.69s.13-1.2,.4-1.7,.63-.89,1.1-1.18c.46-.29,.99-.43,1.57-.43,.62,0,1.14,.14,1.56,.41s.74,.68,.95,1.2c.21,.53,.29,1.18,.25,1.94h-4.81c.04,.41,.16,.78,.34,1.09s.43,.56,.73,.73,.65,.26,1.04,.26c.43,0,.8-.11,1.1-.34s.5-.52,.61-.88h0Zm-1.74-3.46c-.52,0-.96,.15-1.32,.46-.35,.3-.59,.72-.71,1.24h3.71c-.03-.56-.21-.98-.54-1.27s-.71-.43-1.15-.43h.01Z" fill="#35374e"></path>
    <path d="M518.4,241.31h1.01v6.33h-1.01v-6.33Zm3.04,.95c-.43,0-.79,.11-1.08,.32-.29,.21-.52,.48-.68,.79-.17,.31-.27,.61-.32,.89v-.74c-.01-.08,0-.2,.04-.38,.03-.18,.1-.38,.19-.6s.22-.44,.37-.65c.16-.21,.36-.38,.6-.51s.54-.2,.89-.2v1.08h0Z" fill="#35374e"></path>
  </g>
  <g>
    <path d="M424.87,279.1v2.67h4.83v.95h-5.84v-8.23h5.83v.95h-4.81v2.71h3.94v.95h-3.95Z" fill="#35374e"></path>
    <path d="M431.28,276.39h1.01v6.33h-1.01v-6.33Zm3.19-.13c.34,0,.64,.05,.91,.15s.5,.25,.68,.44c.19,.19,.33,.43,.43,.7,.1,.27,.15,.58,.15,.93v4.23h-1.01v-3.98c0-.49-.11-.86-.34-1.1-.23-.24-.57-.37-1.03-.37-.35,0-.67,.09-.96,.27-.3,.18-.54,.42-.73,.73s-.31,.67-.35,1.07v-.74c.03-.35,.12-.68,.25-.96s.3-.53,.49-.74,.43-.37,.68-.48c.26-.11,.53-.17,.82-.17v.02Zm4.27,0c.34,0,.64,.05,.91,.15s.5,.25,.68,.44,.33,.43,.43,.7,.15,.58,.15,.93v4.23h-1.01v-3.98c0-.49-.11-.86-.34-1.1-.23-.24-.57-.37-1.03-.37-.35,0-.67,.09-.96,.27-.3,.18-.54,.42-.73,.73s-.31,.67-.35,1.07v-.74c.03-.35,.12-.68,.25-.96s.3-.53,.49-.74,.43-.37,.68-.48c.26-.11,.53-.17,.82-.17v.02Z" fill="#35374e"></path>
    <path d="M444.95,282.85c-.5,0-.96-.14-1.38-.42s-.75-.67-1-1.17c-.25-.49-.37-1.06-.37-1.69s.13-1.2,.38-1.7,.6-.89,1.03-1.18c.44-.29,.92-.43,1.46-.43,.59,0,1.04,.15,1.35,.45s.52,.7,.63,1.2c.11,.5,.17,1.05,.17,1.66,0,.32-.03,.67-.1,1.04-.07,.38-.18,.74-.35,1.08-.16,.34-.39,.62-.69,.84-.3,.21-.68,.32-1.14,.32h.01Zm.25-.96c.43,0,.79-.11,1.07-.32,.28-.21,.49-.49,.63-.84s.2-.74,.2-1.16c0-.46-.07-.87-.21-1.22-.14-.35-.35-.62-.63-.82s-.63-.3-1.06-.3c-.63,0-1.12,.22-1.47,.67-.35,.44-.52,1-.52,1.68,0,.45,.09,.85,.26,1.2s.41,.62,.71,.82,.64,.3,1.02,.3h0Zm1.9-5.51h1.01v6.33h-.92c-.03-.3-.05-.56-.06-.76-.02-.2-.03-.37-.03-.51v-5.07h0Z" fill="#35374e"></path>
    <path d="M451.01,273.86v1.23h-1.32v-1.23h1.32Zm-1.17,2.53h1.01v6.33h-1.01v-6.33Z" fill="#35374e"></path>
    <path d="M452.73,273.86h1.01v8.87h-1.01v-8.87Z" fill="#35374e"></path>
  </g>
  <g>
    <path d="M424.64,344.56v-.95h2.58c.51,0,.92-.16,1.24-.48s.47-.73,.47-1.24-.16-.94-.47-1.25-.73-.46-1.24-.46h-2.38v7.28h-1.01v-8.23h3.39c.38,0,.74,.06,1.06,.18s.62,.29,.87,.52c.25,.23,.44,.51,.58,.84s.21,.71,.21,1.13-.07,.8-.21,1.13-.33,.61-.58,.84-.54,.4-.87,.52-.68,.18-1.06,.18h-2.58Z" fill="#35374e"></path>
    <path d="M433.48,347.6c-.5,0-.96-.14-1.38-.42s-.75-.67-1-1.17c-.25-.49-.37-1.06-.37-1.69s.13-1.2,.38-1.7,.6-.89,1.03-1.18c.44-.29,.92-.43,1.46-.43,.59,0,1.04,.15,1.35,.45s.52,.7,.63,1.2c.11,.5,.17,1.05,.17,1.66,0,.32-.03,.67-.1,1.04-.07,.38-.18,.74-.35,1.08-.16,.34-.39,.62-.69,.84-.3,.21-.68,.32-1.14,.32h.01Zm.25-.96c.43,0,.79-.11,1.07-.32,.28-.21,.49-.49,.63-.84s.2-.74,.2-1.16c0-.46-.07-.87-.21-1.22-.14-.35-.35-.62-.63-.82s-.63-.3-1.06-.3c-.63,0-1.12,.22-1.47,.67-.35,.44-.52,1-.52,1.68,0,.45,.09,.85,.26,1.2s.41,.62,.71,.82,.64,.3,1.02,.3h0Zm1.9-5.51h1.01v6.33h-.92c-.03-.3-.05-.56-.06-.76-.02-.2-.03-.37-.03-.51v-5.07h0Z" fill="#35374e"></path>
    <path d="M437.99,345.44h.94c.03,.36,.16,.66,.41,.89s.61,.34,1.08,.34c.29,0,.51-.04,.68-.11,.17-.08,.29-.18,.36-.31s.11-.28,.11-.44c0-.19-.05-.35-.15-.46s-.23-.21-.39-.29c-.17-.08-.35-.15-.56-.21-.25-.09-.5-.19-.75-.3-.26-.11-.5-.23-.72-.38s-.4-.33-.54-.54c-.14-.21-.2-.47-.2-.78,0-.25,.05-.49,.15-.72,.1-.22,.25-.42,.44-.58,.19-.17,.41-.29,.67-.39s.54-.14,.86-.14c.42,0,.78,.08,1.07,.25s.51,.41,.67,.72,.24,.67,.25,1.07h-.87c-.06-.38-.18-.66-.36-.83-.18-.17-.44-.26-.78-.26s-.61,.08-.8,.23c-.19,.15-.28,.35-.28,.61,0,.19,.07,.34,.2,.46s.31,.23,.53,.33c.21,.1,.45,.2,.69,.3s.48,.2,.71,.3c.23,.1,.43,.22,.61,.36,.18,.13,.32,.3,.42,.5s.16,.45,.16,.74c0,.35-.08,.67-.25,.94s-.41,.49-.72,.64c-.32,.15-.7,.23-1.16,.23-.41,0-.77-.05-1.06-.16-.29-.11-.53-.25-.73-.42-.19-.17-.34-.36-.45-.55s-.18-.38-.21-.57-.04-.34-.03-.47h0Z" fill="#35374e"></path>
    <path d="M443.58,345.44h.94c.03,.36,.16,.66,.41,.89s.61,.34,1.08,.34c.29,0,.51-.04,.68-.11,.17-.08,.29-.18,.36-.31s.11-.28,.11-.44c0-.19-.05-.35-.15-.46s-.23-.21-.39-.29c-.17-.08-.35-.15-.56-.21-.25-.09-.5-.19-.75-.3-.26-.11-.5-.23-.72-.38s-.4-.33-.54-.54c-.14-.21-.2-.47-.2-.78,0-.25,.05-.49,.15-.72,.1-.22,.25-.42,.44-.58,.19-.17,.41-.29,.67-.39s.54-.14,.86-.14c.42,0,.78,.08,1.07,.25s.51,.41,.67,.72,.24,.67,.25,1.07h-.87c-.06-.38-.18-.66-.36-.83-.18-.17-.44-.26-.78-.26s-.61,.08-.8,.23c-.19,.15-.28,.35-.28,.61,0,.19,.07,.34,.2,.46s.31,.23,.53,.33c.21,.1,.45,.2,.69,.3s.48,.2,.71,.3c.23,.1,.43,.22,.61,.36,.18,.13,.32,.3,.42,.5s.16,.45,.16,.74c0,.35-.08,.67-.25,.94s-.41,.49-.72,.64c-.32,.15-.7,.23-1.16,.23-.41,0-.77-.05-1.06-.16-.29-.11-.53-.25-.73-.42-.19-.17-.34-.36-.45-.55s-.18-.38-.21-.57-.04-.34-.03-.47h0Z" fill="#35374e"></path>
    <path d="M455.7,346.55h-.25l1.48-5.41h1.1l-1.94,6.33h-.95l-1.88-5.55h.25l-1.88,5.55h-.95l-1.93-6.33h1.1l1.46,5.4h-.25l1.71-5.4h1.23l1.68,5.41h.02Z" fill="#35374e"></path>
    <path d="M461.67,347.6c-.54,0-1.05-.13-1.52-.39s-.85-.64-1.15-1.13c-.29-.49-.44-1.08-.44-1.75s.15-1.26,.44-1.75,.67-.88,1.15-1.15c.47-.27,.98-.41,1.52-.41s1.04,.14,1.51,.41,.85,.65,1.13,1.15c.29,.49,.43,1.08,.43,1.75s-.14,1.26-.43,1.75-.67,.87-1.13,1.13-.97,.39-1.51,.39Zm0-.95c.35,0,.69-.09,1-.27s.57-.44,.77-.79c.2-.35,.3-.78,.3-1.27s-.1-.92-.3-1.27c-.2-.35-.45-.62-.77-.8s-.65-.28-1-.28-.69,.09-1.01,.27-.58,.45-.78,.8c-.2,.35-.3,.78-.3,1.29s.1,.92,.3,1.27c.2,.35,.46,.61,.78,.79,.32,.18,.66,.27,1.01,.27h0Z" fill="#35374e"></path>
    <path d="M466.04,341.14h1.01v6.33h-1.01v-6.33Zm3.04,.95c-.43,0-.79,.11-1.08,.32-.29,.21-.52,.48-.68,.79-.17,.31-.27,.61-.32,.89v-.74c-.01-.08,0-.2,.04-.38,.03-.18,.1-.38,.19-.6s.22-.44,.37-.65c.16-.21,.36-.38,.6-.51s.54-.2,.89-.2v1.08h-.01Z" fill="#35374e"></path>
    <path d="M472.61,347.6c-.51,0-.97-.14-1.39-.42s-.75-.67-.99-1.17-.37-1.06-.37-1.69,.12-1.2,.35-1.7,.56-.89,.98-1.18c.41-.29,.89-.43,1.42-.43,.47,0,.86,.09,1.16,.26,.3,.17,.53,.41,.69,.72,.16,.3,.27,.66,.33,1.05,.06,.4,.1,.82,.1,1.28,0,.32-.03,.67-.1,1.04-.07,.38-.18,.74-.35,1.08-.16,.34-.39,.62-.69,.84-.3,.21-.68,.32-1.14,.32h0Zm.25-.96c.43,0,.79-.11,1.07-.32,.28-.21,.49-.49,.63-.84s.2-.74,.2-1.16c0-.46-.07-.87-.21-1.22-.14-.35-.35-.62-.63-.82s-.63-.3-1.06-.3c-.63,0-1.12,.22-1.47,.67-.35,.44-.52,1-.52,1.68,0,.45,.09,.85,.26,1.2s.41,.62,.71,.82,.64,.3,1.02,.3h0Zm1.9-8.04h1.01v8.87h-.92c-.02-.19-.04-.41-.06-.66s-.03-.46-.03-.61v-7.6Z" fill="#35374e"></path>
  </g>
  <g opacity=".2">
    <path d="M437.36,309.91h.95c-.07,.41-.22,.78-.45,1.11s-.54,.58-.91,.77c-.38,.19-.81,.29-1.3,.29-.59,0-1.12-.14-1.6-.42-.47-.28-.85-.67-1.12-1.17-.28-.49-.41-1.06-.41-1.69s.13-1.2,.4-1.7,.63-.89,1.1-1.18c.46-.29,.99-.43,1.57-.43,.62,0,1.14,.14,1.56,.41s.74,.68,.95,1.2c.21,.53,.29,1.18,.25,1.94h-4.81c.04,.41,.16,.78,.34,1.09s.43,.56,.73,.73c.3,.17,.65,.26,1.04,.26,.43,0,.8-.11,1.1-.34s.5-.52,.61-.88h0Zm-1.74-3.46c-.52,0-.96,.15-1.32,.46-.35,.3-.59,.72-.71,1.24h3.71c-.03-.56-.21-.98-.54-1.27s-.71-.43-1.15-.43h.01Z" fill="#35374e"></path>
    <path d="M438.95,305.62h1.27l1.96,2.72,2.6,3.61h-1.23l-2.05-2.89-2.55-3.45h0Zm5.7,.01l-2.46,3.45-2.01,2.89h-1.23l2.62-3.64,1.85-2.7h1.23Z" fill="#35374e"></path>
    <path d="M448.13,312.08c-.5,0-.96-.14-1.38-.42s-.75-.67-1-1.17c-.25-.49-.37-1.06-.37-1.69s.13-1.2,.38-1.7,.6-.89,1.03-1.18c.44-.29,.92-.43,1.46-.43,.59,0,1.04,.15,1.35,.45s.52,.7,.63,1.2c.11,.5,.17,1.05,.17,1.66,0,.32-.03,.67-.1,1.04-.07,.38-.18,.74-.35,1.08-.16,.34-.39,.62-.69,.84-.3,.21-.68,.32-1.14,.32h.01Zm.25-.96c.43,0,.79-.11,1.07-.32,.28-.21,.49-.49,.63-.84s.2-.74,.2-1.16c0-.46-.07-.87-.21-1.22-.14-.35-.35-.62-.63-.82s-.63-.3-1.06-.3c-.63,0-1.12,.22-1.47,.67-.35,.44-.52,1-.52,1.68,0,.45,.09,.85,.26,1.2s.41,.62,.71,.82,.64,.3,1.02,.3h0Zm1.9-5.51h1.01v6.33h-.92c-.03-.3-.05-.56-.06-.76-.02-.2-.03-.37-.03-.51v-5.07h0Z" fill="#35374e"></path>
    <path d="M452.94,305.62h1.01v6.33h-1.01v-6.33Zm3.19-.13c.34,0,.64,.05,.91,.15s.5,.25,.68,.44c.19,.19,.33,.43,.43,.7,.1,.27,.15,.58,.15,.93v4.23h-1.01v-3.98c0-.49-.11-.86-.34-1.1-.23-.24-.57-.37-1.03-.37-.35,0-.67,.09-.96,.27-.3,.18-.54,.42-.73,.73s-.31,.67-.35,1.07v-.74c.03-.35,.12-.68,.25-.96s.3-.53,.49-.74,.43-.37,.68-.48c.26-.11,.53-.17,.82-.17v.02Zm4.27,0c.34,0,.64,.05,.91,.15s.5,.25,.68,.44,.33,.43,.43,.7,.15,.58,.15,.93v4.23h-1.01v-3.98c0-.49-.11-.86-.34-1.1-.23-.24-.57-.37-1.03-.37-.35,0-.67,.09-.96,.27-.3,.18-.54,.42-.73,.73s-.31,.67-.35,1.07v-.74c.03-.35,.12-.68,.25-.96s.3-.53,.49-.74,.43-.37,.68-.48c.26-.11,.53-.17,.82-.17v.02Z" fill="#35374e"></path>
    <path d="M464.21,305.62h.98l.04,1.33v7.54h-1.01v-8.87h-.01Zm3.17,6.46c-.46,0-.84-.11-1.14-.32-.3-.22-.53-.49-.69-.84-.17-.34-.28-.7-.35-1.08-.07-.38-.1-.72-.1-1.04,0-.46,.03-.88,.09-1.28s.18-.75,.34-1.05,.39-.54,.69-.72c.3-.17,.69-.26,1.16-.26,.51,0,.97,.14,1.38,.43,.41,.29,.75,.68,.99,1.18s.37,1.06,.37,1.7-.13,1.2-.38,1.69-.59,.88-1.01,1.17c-.42,.28-.87,.42-1.36,.42h.01Zm-.25-.96c.39,0,.73-.1,1.03-.3s.53-.47,.7-.82,.25-.75,.25-1.2c0-.68-.17-1.24-.52-1.68-.35-.44-.84-.67-1.47-.67-.37,0-.7,.1-.99,.3s-.51,.47-.67,.82-.24,.76-.24,1.22c0,.42,.07,.81,.21,1.16s.35,.63,.63,.84,.63,.32,1.06,.32h0Z" fill="#35374e"></path>
    <path d="M471.55,303.08h1.01v8.87h-1.01v-8.87Z" fill="#35374e"></path>
    <path d="M478.82,309.91h.95c-.07,.41-.22,.78-.45,1.11s-.54,.58-.91,.77c-.38,.19-.81,.29-1.3,.29-.59,0-1.12-.14-1.6-.42-.47-.28-.85-.67-1.12-1.17-.28-.49-.41-1.06-.41-1.69s.13-1.2,.4-1.7,.63-.89,1.1-1.18c.46-.29,.99-.43,1.57-.43,.62,0,1.14,.14,1.56,.41s.74,.68,.95,1.2c.21,.53,.29,1.18,.25,1.94h-4.81c.04,.41,.16,.78,.34,1.09s.43,.56,.73,.73c.3,.17,.65,.26,1.04,.26,.43,0,.8-.11,1.1-.34s.5-.52,.61-.88h0Zm-1.74-3.46c-.52,0-.96,.15-1.32,.46-.35,.3-.59,.72-.71,1.24h3.71c-.03-.56-.21-.98-.54-1.27s-.71-.43-1.15-.43h.01Z" fill="#35374e"></path>
    <path d="M485.96,312.46c-.98,0-1.84-.19-2.58-.56-.74-.38-1.31-.91-1.72-1.6s-.61-1.5-.61-2.44,.21-1.75,.61-2.43c.41-.67,.98-1.19,1.72-1.55s1.6-.54,2.58-.54,1.84,.18,2.55,.54c.71,.36,1.26,.87,1.65,1.52,.38,.65,.58,1.43,.58,2.34,0,.37-.06,.71-.17,1.03s-.28,.56-.52,.75-.55,.28-.95,.28c-.26,0-.49-.04-.69-.11s-.37-.18-.5-.31-.24-.27-.3-.42c-.07-.15-.1-.3-.1-.46v-2.83h1.01v2.2c0,.21,.02,.39,.06,.55,.04,.16,.11,.28,.2,.36,.1,.08,.23,.13,.4,.13,.18,0,.31-.04,.41-.13,.09-.09,.16-.22,.19-.39s.05-.39,.05-.64c0-.55-.09-1.04-.26-1.47s-.42-.8-.75-1.1-.73-.53-1.22-.68-1.03-.23-1.63-.23-1.17,.08-1.66,.23c-.49,.16-.91,.39-1.26,.7s-.62,.69-.8,1.13c-.19,.45-.28,.96-.28,1.54,0,.77,.17,1.43,.49,1.98,.33,.55,.79,.98,1.39,1.27,.6,.29,1.3,.44,2.12,.44,.36,0,.68-.02,.99-.07,.3-.05,.58-.11,.84-.2,.26-.09,.49-.2,.7-.32l.42,.8c-.25,.15-.53,.28-.84,.39-.3,.11-.63,.19-.98,.24s-.73,.08-1.13,.08v-.02Zm-.44-1.99c-.47,0-.89-.11-1.25-.33s-.64-.53-.83-.91c-.19-.38-.29-.81-.29-1.27,0-.51,.1-.96,.3-1.36,.2-.4,.49-.72,.86-.96,.38-.24,.82-.35,1.34-.35s.88,.12,1.17,.37,.49,.58,.62,.98,.19,.84,.19,1.32c0,.19-.04,.43-.11,.72s-.2,.56-.36,.84c-.16,.27-.38,.5-.65,.69s-.59,.28-.98,.28v-.02Zm.24-.98c.28,0,.53-.04,.74-.13s.39-.21,.54-.35,.25-.31,.33-.5,.11-.37,.11-.56c0-.25-.04-.48-.11-.69s-.19-.38-.34-.53-.33-.26-.54-.34c-.22-.08-.46-.12-.73-.12-.58,0-1,.16-1.24,.47-.24,.32-.37,.72-.37,1.21,0,.42,.14,.79,.41,1.09s.67,.46,1.2,.46h0Z" fill="#35374e"></path>
    <path d="M492.26,305.62h1.01v6.33h-1.01v-6.33Zm3.19-.13c.34,0,.64,.05,.91,.15s.5,.25,.68,.44c.19,.19,.33,.43,.43,.7,.1,.27,.15,.58,.15,.93v4.23h-1.01v-3.98c0-.49-.11-.86-.34-1.1-.23-.24-.57-.37-1.03-.37-.35,0-.67,.09-.96,.27-.3,.18-.54,.42-.73,.73s-.31,.67-.35,1.07v-.74c.03-.35,.12-.68,.25-.96s.3-.53,.49-.74,.43-.37,.68-.48c.26-.11,.53-.17,.82-.17v.02Zm4.27,0c.34,0,.64,.05,.91,.15s.5,.25,.68,.44,.33,.43,.43,.7,.15,.58,.15,.93v4.23h-1.01v-3.98c0-.49-.11-.86-.34-1.1-.23-.24-.57-.37-1.03-.37-.35,0-.67,.09-.96,.27-.3,.18-.54,.42-.73,.73s-.31,.67-.35,1.07v-.74c.03-.35,.12-.68,.25-.96s.3-.53,.49-.74,.43-.37,.68-.48c.26-.11,.53-.17,.82-.17v.02Z" fill="#35374e"></path>
    <path d="M505.93,312.08c-.5,0-.96-.14-1.38-.42s-.75-.67-1-1.17c-.25-.49-.37-1.06-.37-1.69s.13-1.2,.38-1.7,.6-.89,1.03-1.18c.44-.29,.92-.43,1.46-.43,.59,0,1.04,.15,1.35,.45s.52,.7,.63,1.2c.11,.5,.17,1.05,.17,1.66,0,.32-.03,.67-.1,1.04-.07,.38-.18,.74-.35,1.08-.16,.34-.39,.62-.69,.84-.3,.21-.68,.32-1.14,.32h.01Zm.25-.96c.43,0,.79-.11,1.07-.32,.28-.21,.49-.49,.63-.84s.2-.74,.2-1.16c0-.46-.07-.87-.21-1.22-.14-.35-.35-.62-.63-.82s-.63-.3-1.06-.3c-.63,0-1.12,.22-1.47,.67-.35,.44-.52,1-.52,1.68,0,.45,.09,.85,.26,1.2s.41,.62,.71,.82,.64,.3,1.02,.3h0Zm1.9-5.51h1.01v6.33h-.92c-.03-.3-.05-.56-.06-.76-.02-.2-.03-.37-.03-.51v-5.07h0Z" fill="#35374e"></path>
    <path d="M511.99,303.08v1.23h-1.32v-1.23h1.32Zm-1.17,2.53h1.01v6.33h-1.01v-6.33Z" fill="#35374e"></path>
    <path d="M513.7,303.08h1.01v8.87h-1.01v-8.87Z" fill="#35374e"></path>
    <path d="M517.81,310.71v1.24h-1.32v-1.24h1.32Z" fill="#35374e"></path>
    <path d="M524.95,309.57c-.06,.52-.23,.97-.5,1.35s-.62,.66-1.03,.86-.86,.3-1.34,.3c-.54,0-1.05-.13-1.52-.39-.47-.26-.85-.64-1.15-1.13-.29-.49-.44-1.08-.44-1.75s.15-1.26,.44-1.75,.67-.88,1.15-1.15c.47-.27,.98-.41,1.52-.41,.48,0,.93,.1,1.34,.3,.41,.2,.75,.49,1.03,.86,.27,.37,.45,.81,.51,1.33h-.92c-.14-.48-.39-.86-.75-1.13-.35-.27-.76-.41-1.2-.41-.36,0-.71,.09-1.03,.28s-.58,.45-.77,.8c-.19,.35-.29,.78-.29,1.27s.1,.91,.29,1.26,.45,.62,.77,.8,.66,.27,1.03,.27c.51,0,.94-.14,1.26-.41s.56-.66,.7-1.15h.9Z" fill="#35374e"></path>
    <path d="M528.99,312.08c-.54,0-1.05-.13-1.52-.39-.47-.26-.85-.64-1.15-1.13-.29-.49-.44-1.08-.44-1.75s.15-1.26,.44-1.75,.67-.88,1.15-1.15c.47-.27,.98-.41,1.52-.41s1.04,.14,1.51,.41c.47,.27,.85,.65,1.13,1.15,.29,.49,.43,1.08,.43,1.75s-.14,1.26-.43,1.75-.67,.87-1.13,1.13-.97,.39-1.51,.39Zm0-.95c.35,0,.69-.09,1-.27s.57-.44,.77-.79,.3-.78,.3-1.27-.1-.92-.3-1.27c-.2-.35-.45-.62-.77-.8s-.65-.28-1-.28-.69,.09-1.01,.27-.58,.45-.78,.8c-.2,.35-.3,.78-.3,1.29s.1,.92,.3,1.27c.2,.35,.46,.61,.78,.79,.32,.18,.66,.27,1.01,.27h0Z" fill="#35374e"></path>
    <path d="M533.36,305.62h1.01v6.33h-1.01v-6.33Zm3.19-.13c.34,0,.64,.05,.91,.15s.5,.25,.68,.44c.19,.19,.33,.43,.43,.7,.1,.27,.15,.58,.15,.93v4.23h-1.01v-3.98c0-.49-.11-.86-.34-1.1-.23-.24-.57-.37-1.03-.37-.35,0-.67,.09-.96,.27-.3,.18-.54,.42-.73,.73s-.31,.67-.35,1.07v-.74c.03-.35,.12-.68,.25-.96s.3-.53,.49-.74,.43-.37,.68-.48c.26-.11,.53-.17,.82-.17v.02Zm4.27,0c.34,0,.64,.05,.91,.15,.27,.1,.5,.25,.68,.44s.33,.43,.43,.7,.15,.58,.15,.93v4.23h-1.01v-3.98c0-.49-.11-.86-.34-1.1-.23-.24-.57-.37-1.03-.37-.35,0-.67,.09-.96,.27-.3,.18-.54,.42-.73,.73s-.31,.67-.35,1.07v-.74c.03-.35,.12-.68,.25-.96s.3-.53,.49-.74,.43-.37,.68-.48c.26-.11,.53-.17,.82-.17v.02Z" fill="#35374e"></path>
  </g>
  <g opacity=".2">
    <path d="M435.27,376.85c-.5,0-.96-.14-1.38-.42s-.75-.67-1-1.17c-.25-.49-.37-1.06-.37-1.69s.13-1.2,.38-1.7,.6-.89,1.03-1.18c.44-.29,.92-.43,1.46-.43,.59,0,1.04,.15,1.35,.45s.52,.7,.63,1.2c.11,.5,.17,1.05,.17,1.66,0,.32-.03,.67-.1,1.04-.07,.38-.18,.74-.35,1.08-.16,.34-.39,.62-.69,.84-.3,.21-.68,.32-1.14,.32h.01Zm.25-.96c.43,0,.79-.11,1.07-.32,.28-.21,.49-.49,.63-.84s.2-.74,.2-1.16c0-.46-.07-.87-.21-1.22-.14-.35-.35-.62-.63-.82s-.63-.3-1.06-.3c-.63,0-1.12,.22-1.47,.67-.35,.44-.52,1-.52,1.68,0,.45,.09,.85,.26,1.2s.41,.62,.71,.82,.64,.3,1.02,.3h0Zm1.9-5.51h1.01v6.33h-.92c-.03-.3-.05-.56-.06-.76-.02-.2-.03-.37-.03-.51v-5.07h0Z" fill="#35374e"></path>
    <path d="M439.64,370.38h3.72v.95h-3.72v-.95Zm1.36-1.65h1.01v7.98h-1.01v-7.98Z" fill="#35374e"></path>
    <path d="M447.35,367.85h1.01v8.87h-1.01v-8.87Z" fill="#35374e"></path>
    <path d="M454.62,374.68h.95c-.07,.41-.22,.78-.45,1.11s-.54,.58-.91,.77c-.38,.19-.81,.29-1.3,.29-.59,0-1.12-.14-1.6-.42-.47-.28-.85-.67-1.12-1.17-.28-.49-.41-1.06-.41-1.69s.13-1.2,.4-1.7,.63-.89,1.1-1.18c.46-.29,.99-.43,1.57-.43,.62,0,1.14,.14,1.56,.41s.74,.68,.95,1.2c.21,.53,.29,1.18,.25,1.94h-4.81c.04,.41,.16,.78,.34,1.09s.43,.56,.73,.73c.3,.17,.65,.26,1.04,.26,.43,0,.8-.11,1.1-.34s.5-.52,.61-.88h0Zm-1.74-3.46c-.52,0-.96,.15-1.32,.46-.35,.3-.59,.72-.71,1.24h3.71c-.03-.56-.21-.98-.54-1.27s-.71-.43-1.15-.43h.01Z" fill="#35374e"></path>
    <path d="M459.31,376.85c-.5,0-.96-.14-1.38-.42s-.75-.67-1-1.17c-.25-.49-.37-1.06-.37-1.69s.13-1.2,.38-1.7,.6-.89,1.03-1.18c.44-.29,.92-.43,1.46-.43,.59,0,1.04,.15,1.35,.45s.52,.7,.63,1.2c.11,.5,.17,1.05,.17,1.66,0,.32-.03,.67-.1,1.04-.07,.38-.18,.74-.35,1.08-.16,.34-.39,.62-.69,.84-.3,.21-.68,.32-1.14,.32h.01Zm.25-.96c.43,0,.79-.11,1.07-.32,.28-.21,.49-.49,.63-.84s.2-.74,.2-1.16c0-.46-.07-.87-.21-1.22-.14-.35-.35-.62-.63-.82s-.63-.3-1.06-.3c-.63,0-1.12,.22-1.47,.67-.35,.44-.52,1-.52,1.68,0,.45,.09,.85,.26,1.2s.41,.62,.71,.82,.64,.3,1.02,.3h0Zm1.9-5.51h1.01v6.33h-.92c-.03-.3-.05-.56-.06-.76-.02-.2-.03-.37-.03-.51v-5.07h0Z" fill="#35374e"></path>
    <path d="M463.82,374.68h.94c.03,.36,.16,.66,.41,.89s.61,.34,1.08,.34c.29,0,.51-.04,.68-.11,.17-.08,.29-.18,.36-.31s.11-.28,.11-.44c0-.19-.05-.35-.15-.46s-.23-.21-.39-.29c-.17-.08-.35-.15-.56-.21-.25-.09-.5-.19-.75-.3-.26-.11-.5-.23-.72-.38s-.4-.33-.54-.54c-.14-.21-.2-.47-.2-.78,0-.25,.05-.49,.15-.72,.1-.22,.25-.42,.44-.58,.19-.17,.41-.29,.67-.39s.54-.14,.86-.14c.42,0,.78,.08,1.07,.25s.51,.41,.67,.72,.24,.67,.25,1.07h-.87c-.06-.38-.18-.66-.36-.83-.18-.17-.44-.26-.78-.26s-.61,.08-.8,.23c-.19,.15-.28,.35-.28,.61,0,.19,.07,.34,.2,.46s.31,.23,.53,.33c.21,.1,.45,.2,.69,.3s.48,.2,.71,.3c.23,.1,.43,.22,.61,.36,.18,.13,.32,.3,.42,.5s.16,.45,.16,.74c0,.35-.08,.67-.25,.94s-.41,.49-.72,.64c-.32,.15-.7,.23-1.16,.23-.41,0-.77-.05-1.06-.16-.29-.11-.53-.25-.73-.42-.19-.17-.34-.36-.45-.55s-.18-.38-.21-.57-.04-.34-.03-.47h0Z" fill="#35374e"></path>
    <path d="M469.27,370.38h3.72v.95h-3.72v-.95Zm1.36-1.65h1.01v7.98h-1.01v-7.98Z" fill="#35374e"></path>
    <path d="M479.13,376.85c-.56,0-1.03-.11-1.43-.32-.4-.22-.7-.5-.91-.86s-.32-.76-.32-1.2c0-.5,.12-.91,.35-1.25,.24-.33,.56-.58,.96-.75s.85-.25,1.34-.25,.95,.08,1.35,.25,.72,.41,.96,.75c.24,.33,.35,.75,.35,1.25,0,.44-.11,.84-.32,1.2s-.51,.65-.91,.86c-.39,.21-.87,.32-1.44,.32h.02Zm0-4.29c-.43,0-.83-.07-1.18-.2-.36-.13-.64-.35-.85-.64s-.32-.67-.32-1.12c0-.42,.1-.8,.29-1.13,.19-.33,.47-.6,.82-.8,.35-.2,.77-.3,1.24-.3s.9,.1,1.25,.3c.35,.2,.62,.46,.82,.8,.19,.33,.29,.71,.29,1.13,0,.46-.11,.83-.32,1.12-.21,.29-.49,.5-.85,.64-.35,.13-.75,.2-1.19,.2Zm0,3.34c.36,0,.67-.06,.91-.18,.25-.12,.43-.29,.55-.51s.18-.46,.18-.73c0-.3-.06-.55-.18-.78-.12-.22-.31-.4-.55-.53s-.55-.19-.91-.19-.67,.06-.91,.19-.43,.3-.55,.53c-.12,.22-.18,.48-.18,.78,0,.27,.06,.52,.18,.73,.12,.22,.31,.39,.55,.51,.25,.12,.55,.18,.91,.18Zm0-3.98c.28,0,.52-.06,.72-.18s.35-.28,.46-.47c.11-.2,.17-.42,.17-.68s-.05-.48-.17-.67c-.11-.19-.26-.34-.46-.45s-.44-.16-.72-.16-.51,.05-.71,.16c-.2,.11-.36,.25-.47,.45-.11,.19-.17,.42-.17,.67s.05,.48,.17,.68c.11,.2,.27,.36,.47,.47,.2,.12,.44,.18,.71,.18Z" fill="#35374e"></path>
    <path d="M491.35,374.34c-.06,.52-.23,.97-.5,1.35s-.62,.66-1.03,.86-.86,.3-1.34,.3c-.54,0-1.05-.13-1.52-.39s-.85-.64-1.15-1.13c-.29-.49-.44-1.08-.44-1.75s.15-1.26,.44-1.75,.67-.88,1.15-1.15c.47-.27,.98-.41,1.52-.41,.48,0,.93,.1,1.34,.3,.41,.2,.75,.49,1.03,.86,.27,.37,.45,.81,.51,1.33h-.92c-.14-.48-.39-.86-.75-1.13-.35-.27-.76-.41-1.2-.41-.36,0-.71,.09-1.03,.28s-.58,.45-.77,.8c-.19,.35-.29,.78-.29,1.27s.1,.91,.29,1.26,.45,.62,.77,.8,.66,.27,1.03,.27c.51,0,.94-.14,1.26-.41s.56-.66,.7-1.15h.9Z" fill="#35374e"></path>
    <path d="M492.79,376.72v-8.87h1.01v8.87h-1.01Zm4.36,0v-3.98c0-.33-.05-.6-.15-.82-.1-.21-.25-.38-.46-.49-.2-.11-.46-.17-.76-.17-.35,0-.67,.09-.96,.27-.3,.18-.54,.42-.73,.73s-.31,.67-.35,1.07v-.74c.03-.35,.12-.68,.25-.96,.13-.29,.29-.53,.49-.74,.2-.21,.43-.37,.68-.48,.26-.11,.53-.17,.82-.17,.34,0,.64,.05,.91,.15s.5,.25,.68,.44,.33,.43,.43,.7,.15,.58,.15,.93v4.23h-1.01v.03Z" fill="#35374e"></path>
    <path d="M502.2,376.85c-.5,0-.96-.14-1.38-.42s-.75-.67-1-1.17c-.25-.49-.37-1.06-.37-1.69s.13-1.2,.38-1.7,.6-.89,1.03-1.18c.44-.29,.92-.43,1.46-.43,.59,0,1.04,.15,1.35,.45s.52,.7,.63,1.2c.11,.5,.17,1.05,.17,1.66,0,.32-.03,.67-.1,1.04-.07,.38-.18,.74-.35,1.08-.16,.34-.39,.62-.69,.84-.3,.21-.68,.32-1.14,.32h.01Zm.25-.96c.43,0,.79-.11,1.07-.32,.28-.21,.49-.49,.63-.84s.2-.74,.2-1.16c0-.46-.07-.87-.21-1.22-.14-.35-.35-.62-.63-.82s-.63-.3-1.06-.3c-.63,0-1.12,.22-1.47,.67-.35,.44-.52,1-.52,1.68,0,.45,.09,.85,.26,1.2s.41,.62,.71,.82,.64,.3,1.02,.3h0Zm1.9-5.51h1.01v6.33h-.92c-.03-.3-.05-.56-.06-.76-.02-.2-.03-.37-.03-.51v-5.07h0Z" fill="#35374e"></path>
    <path d="M507.02,370.38h1.01v6.33h-1.01v-6.33Zm3.04,.95c-.43,0-.79,.11-1.08,.32-.29,.21-.52,.48-.68,.79-.17,.31-.27,.61-.32,.89v-.74c-.01-.08,0-.2,.04-.38,.03-.18,.1-.38,.19-.6s.22-.44,.37-.65c.16-.21,.36-.38,.6-.51s.54-.2,.89-.2v1.08h-.01Z" fill="#35374e"></path>
    <path d="M513.59,376.85c-.5,0-.96-.14-1.38-.42-.42-.28-.75-.67-1-1.17-.25-.49-.37-1.06-.37-1.69s.13-1.2,.38-1.7,.6-.89,1.03-1.18c.44-.29,.92-.43,1.46-.43,.59,0,1.04,.15,1.35,.45s.52,.7,.63,1.2,.17,1.05,.17,1.66c0,.32-.03,.67-.1,1.04-.07,.38-.18,.74-.35,1.08-.16,.34-.39,.62-.69,.84-.3,.21-.68,.32-1.14,.32h0Zm.25-.96c.43,0,.79-.11,1.07-.32,.28-.21,.49-.49,.63-.84s.2-.74,.2-1.16c0-.46-.07-.87-.21-1.22s-.35-.62-.63-.82-.63-.3-1.06-.3c-.63,0-1.12,.22-1.47,.67-.35,.44-.52,1-.52,1.68,0,.45,.09,.85,.26,1.2s.41,.62,.71,.82,.64,.3,1.02,.3h0Zm1.9-5.51h1.01v6.33h-.92c-.03-.3-.05-.56-.06-.76-.02-.2-.03-.37-.03-.51v-5.07h0Z" fill="#35374e"></path>
    <path d="M524.03,374.34c-.06,.52-.23,.97-.5,1.35s-.62,.66-1.03,.86-.86,.3-1.34,.3c-.54,0-1.05-.13-1.52-.39-.47-.26-.85-.64-1.15-1.13-.29-.49-.44-1.08-.44-1.75s.15-1.26,.44-1.75,.67-.88,1.15-1.15c.47-.27,.98-.41,1.52-.41,.48,0,.93,.1,1.34,.3,.41,.2,.75,.49,1.03,.86,.27,.37,.45,.81,.51,1.33h-.92c-.14-.48-.39-.86-.75-1.13-.35-.27-.76-.41-1.2-.41-.36,0-.71,.09-1.03,.28s-.58,.45-.77,.8c-.19,.35-.29,.78-.29,1.27s.1,.91,.29,1.26,.45,.62,.77,.8,.66,.27,1.03,.27c.51,0,.94-.14,1.26-.41s.56-.66,.7-1.15h.9Z" fill="#35374e"></path>
    <path d="M524.88,370.38h3.72v.95h-3.72v-.95Zm1.36-1.65h1.01v7.98h-1.01v-7.98Z" fill="#35374e"></path>
    <path d="M534.16,374.68h.95c-.07,.41-.22,.78-.45,1.11-.23,.33-.54,.58-.91,.77-.38,.19-.81,.29-1.3,.29-.59,0-1.12-.14-1.6-.42-.47-.28-.85-.67-1.12-1.17-.28-.49-.41-1.06-.41-1.69s.13-1.2,.4-1.7,.63-.89,1.1-1.18c.46-.29,.99-.43,1.57-.43,.62,0,1.14,.14,1.56,.41s.74,.68,.95,1.2c.21,.53,.29,1.18,.25,1.94h-4.81c.04,.41,.16,.78,.34,1.09s.43,.56,.73,.73,.65,.26,1.04,.26c.43,0,.8-.11,1.1-.34s.5-.52,.61-.88h0Zm-1.74-3.46c-.52,0-.96,.15-1.32,.46-.35,.3-.59,.72-.71,1.24h3.71c-.03-.56-.21-.98-.54-1.27s-.71-.43-1.15-.43h.01Z" fill="#35374e"></path>
    <path d="M536.45,370.38h1.01v6.33h-1.01v-6.33Zm3.04,.95c-.43,0-.79,.11-1.08,.32-.29,.21-.52,.48-.68,.79-.17,.31-.27,.61-.32,.89v-.74c-.01-.08,0-.2,.04-.38,.03-.18,.1-.38,.19-.6s.22-.44,.37-.65c.16-.21,.36-.38,.6-.51s.54-.2,.89-.2v1.08h0Z" fill="#35374e"></path>
    <path d="M540.33,374.68h.94c.03,.36,.16,.66,.41,.89s.61,.34,1.08,.34c.29,0,.51-.04,.68-.11,.17-.08,.29-.18,.36-.31s.11-.28,.11-.44c0-.19-.05-.35-.15-.46-.1-.11-.23-.21-.39-.29-.17-.08-.35-.15-.56-.21-.25-.09-.5-.19-.75-.3-.26-.11-.5-.23-.72-.38s-.4-.33-.54-.54c-.14-.21-.2-.47-.2-.78,0-.25,.05-.49,.15-.72,.1-.22,.25-.42,.44-.58,.19-.17,.41-.29,.67-.39s.54-.14,.86-.14c.42,0,.78,.08,1.07,.25s.51,.41,.67,.72,.24,.67,.25,1.07h-.87c-.06-.38-.18-.66-.36-.83-.18-.17-.44-.26-.78-.26s-.61,.08-.8,.23c-.19,.15-.28,.35-.28,.61,0,.19,.07,.34,.2,.46s.31,.23,.53,.33c.21,.1,.45,.2,.69,.3s.48,.2,.71,.3c.23,.1,.43,.22,.61,.36,.18,.13,.32,.3,.42,.5s.16,.45,.16,.74c0,.35-.08,.67-.25,.94s-.41,.49-.72,.64c-.32,.15-.7,.23-1.16,.23-.41,0-.77-.05-1.06-.16-.29-.11-.53-.25-.73-.42-.19-.17-.34-.36-.45-.55s-.18-.38-.21-.57-.04-.34-.03-.47h0Z" fill="#35374e"></path>
  </g>
  <g>
    <path d="M444.2,421.27h1.01v8.23h-1.01v-8.23Z" fill="#35374e"></path>
    <path d="M452.36,429.63c-.5,0-.96-.14-1.38-.42s-.75-.67-1-1.17c-.25-.49-.37-1.06-.37-1.69s.13-1.2,.38-1.7,.6-.89,1.03-1.18c.44-.29,.92-.43,1.46-.43,.59,0,1.04,.15,1.35,.45s.52,.7,.63,1.2c.11,.5,.17,1.05,.17,1.66,0,.32-.03,.67-.1,1.04-.07,.38-.18,.74-.35,1.08-.16,.34-.39,.62-.69,.84-.3,.21-.68,.32-1.14,.32h.01Zm.25-.96c.43,0,.79-.11,1.07-.32,.28-.21,.49-.49,.63-.84s.2-.74,.2-1.16c0-.46-.07-.87-.21-1.22-.14-.35-.35-.62-.63-.82s-.63-.3-1.06-.3c-.63,0-1.12,.22-1.47,.67-.35,.44-.52,1-.52,1.68,0,.45,.09,.85,.26,1.2s.41,.62,.71,.82,.64,.3,1.02,.3h0Zm1.9-5.51h1.01v6.33h-.92c-.03-.3-.05-.56-.06-.76-.02-.2-.03-.37-.03-.51v-5.07h0Z" fill="#35374e"></path>
    <path d="M459.44,428.5c-.45,0-.87-.11-1.27-.32-.4-.21-.73-.53-.97-.93-.25-.41-.37-.89-.37-1.46s.12-1.05,.37-1.46,.57-.73,.96-.95c.4-.22,.83-.34,1.29-.34,.14,0,.28,.01,.41,.03s.25,.05,.37,.09h2.57v1.09c-.36,0-.72-.07-1.08-.2s-.67-.27-.92-.42l-.05-.05c.3,.16,.54,.35,.73,.57s.33,.47,.43,.74,.15,.57,.15,.89c0,.57-.12,1.05-.36,1.46s-.56,.72-.96,.93c-.4,.22-.83,.32-1.29,.32h-.01Zm1.86,3.54v-.28c0-.45-.12-.77-.35-.98-.23-.2-.58-.3-1.04-.3h-1.27c-.28,0-.52-.02-.73-.07-.21-.05-.38-.12-.51-.21-.14-.09-.24-.21-.3-.34s-.1-.29-.1-.46c0-.32,.1-.56,.29-.73,.19-.16,.43-.27,.72-.31s.56-.04,.82,0l.61,.14c-.46,.03-.81,.07-1.06,.14s-.37,.21-.37,.43c0,.13,.05,.23,.15,.31s.24,.12,.44,.12h1.32c.44,0,.84,.06,1.2,.18s.65,.33,.87,.62,.33,.69,.33,1.2v.53h-1.02Zm-1.86-4.47c.28,0,.54-.07,.78-.2s.44-.33,.59-.6,.23-.58,.23-.96-.07-.7-.22-.97-.34-.47-.59-.61c-.25-.14-.51-.21-.79-.21s-.54,.07-.79,.21c-.25,.14-.44,.34-.6,.6-.15,.26-.23,.59-.23,.98s.08,.7,.23,.96c.15,.26,.35,.46,.6,.6s.51,.2,.79,.2h0Z" fill="#35374e"></path>
    <path d="M463.99,423.17h1.01v6.33h-1.01v-6.33Zm3.04,.95c-.43,0-.79,.11-1.08,.32-.29,.21-.52,.48-.68,.79-.17,.31-.27,.61-.32,.89v-.74c-.01-.08,0-.2,.04-.38,.03-.18,.1-.38,.19-.6s.22-.44,.37-.65c.16-.21,.36-.38,.6-.51s.54-.2,.89-.2v1.08h-.01Z" fill="#35374e"></path>
    <path d="M472.65,427.46h.95c-.07,.41-.22,.78-.45,1.11s-.54,.58-.91,.77c-.38,.19-.81,.29-1.3,.29-.59,0-1.12-.14-1.6-.42-.47-.28-.85-.67-1.12-1.17-.28-.49-.41-1.06-.41-1.69s.13-1.2,.4-1.7,.63-.89,1.1-1.18c.46-.29,.99-.43,1.57-.43,.62,0,1.14,.14,1.56,.41s.74,.68,.95,1.2c.21,.53,.29,1.18,.25,1.94h-4.81c.04,.41,.16,.78,.34,1.09s.43,.56,.73,.73c.3,.17,.65,.26,1.04,.26,.43,0,.8-.11,1.1-.34s.5-.52,.61-.88h0Zm-1.74-3.46c-.52,0-.96,.15-1.32,.46-.35,.3-.59,.72-.71,1.24h3.71c-.03-.56-.21-.98-.54-1.27s-.71-.43-1.15-.43h.01Z" fill="#35374e"></path>
    <path d="M479.43,427.46h.95c-.07,.41-.22,.78-.45,1.11s-.54,.58-.91,.77c-.38,.19-.81,.29-1.3,.29-.59,0-1.12-.14-1.6-.42-.47-.28-.85-.67-1.12-1.17-.28-.49-.41-1.06-.41-1.69s.13-1.2,.4-1.7,.63-.89,1.1-1.18c.46-.29,.99-.43,1.57-.43,.62,0,1.14,.14,1.56,.41s.74,.68,.95,1.2c.21,.53,.29,1.18,.25,1.94h-4.81c.04,.41,.16,.78,.34,1.09s.43,.56,.73,.73c.3,.17,.65,.26,1.04,.26,.43,0,.8-.11,1.1-.34s.5-.52,.61-.88h0Zm-1.74-3.46c-.52,0-.96,.15-1.32,.46-.35,.3-.59,.72-.71,1.24h3.71c-.03-.56-.21-.98-.54-1.27s-.71-.43-1.15-.43h.01Z" fill="#35374e"></path>
    <path d="M490.74,428.58h-.25l1.48-5.41h1.1l-1.94,6.33h-.95l-1.88-5.55h.25l-1.88,5.55h-.95l-1.93-6.33h1.1l1.46,5.4h-.25l1.71-5.4h1.23l1.68,5.41h.02Z" fill="#35374e"></path>
    <path d="M495.4,420.64v1.23h-1.32v-1.23h1.32Zm-1.17,2.53h1.01v6.33h-1.01v-6.33Z" fill="#35374e"></path>
    <path d="M496.55,423.17h3.72v.95h-3.72v-.95Zm1.36-1.65h1.01v7.98h-1.01v-7.98Z" fill="#35374e"></path>
    <path d="M501.63,429.5v-8.87h1.01v8.87h-1.01Zm4.36,0v-3.98c0-.33-.05-.6-.15-.82-.1-.21-.25-.38-.46-.49-.2-.11-.46-.17-.76-.17-.35,0-.67,.09-.96,.27-.3,.18-.54,.42-.73,.73s-.31,.67-.35,1.07v-.74c.03-.35,.12-.68,.25-.96,.13-.29,.29-.53,.49-.74,.2-.21,.43-.37,.68-.48,.26-.11,.53-.17,.82-.17,.34,0,.64,.05,.91,.15s.5,.25,.68,.44,.33,.43,.43,.7,.15,.58,.15,.93v4.23h-1.01v.03Z" fill="#35374e"></path>
    <path d="M510.16,421.27h6.59v.95h-6.59v-.95Zm2.79,.85h1.01v7.38h-1.01v-7.38Z" fill="#FF8E72"></path>
    <path d="M521.11,427.46h.95c-.07,.41-.22,.78-.45,1.11-.23,.33-.54,.58-.91,.77-.38,.19-.81,.29-1.3,.29-.59,0-1.12-.14-1.6-.42-.47-.28-.85-.67-1.12-1.17-.28-.49-.41-1.06-.41-1.69s.13-1.2,.4-1.7,.63-.89,1.1-1.18c.46-.29,.99-.43,1.57-.43,.62,0,1.14,.14,1.56,.41s.74,.68,.95,1.2c.21,.53,.29,1.18,.25,1.94h-4.81c.04,.41,.16,.78,.34,1.09s.43,.56,.73,.73,.65,.26,1.04,.26c.43,0,.8-.11,1.1-.34s.5-.52,.61-.88h0Zm-1.74-3.46c-.52,0-.96,.15-1.32,.46-.35,.3-.59,.72-.71,1.24h3.71c-.03-.56-.21-.98-.54-1.27s-.71-.43-1.15-.43h.01Z" fill="#FF8E72"></path>
    <path d="M523.4,423.17h1.01v6.33h-1.01v-6.33Zm3.04,.95c-.43,0-.79,.11-1.08,.32-.29,.21-.52,.48-.68,.79-.17,.31-.27,.61-.32,.89v-.74c-.01-.08,0-.2,.04-.38,.03-.18,.1-.38,.19-.6s.22-.44,.37-.65c.16-.21,.36-.38,.6-.51s.54-.2,.89-.2v1.08h0Z" fill="#FF8E72"></path>
    <path d="M527.58,423.17h1.01v6.33h-1.01v-6.33Zm3.19-.13c.34,0,.64,.05,.91,.15s.5,.25,.68,.44c.19,.19,.33,.43,.43,.7,.1,.27,.15,.58,.15,.93v4.23h-1.01v-3.98c0-.49-.11-.86-.34-1.1-.23-.24-.57-.37-1.03-.37-.35,0-.67,.09-.96,.27-.3,.18-.54,.42-.73,.73s-.31,.67-.35,1.07v-.74c.03-.35,.12-.68,.25-.96s.3-.53,.49-.74,.43-.37,.68-.48c.26-.11,.53-.17,.82-.17v.02Zm4.27,0c.34,0,.64,.05,.91,.15,.27,.1,.5,.25,.68,.44s.33,.43,.43,.7,.15,.58,.15,.93v4.23h-1.01v-3.98c0-.49-.11-.86-.34-1.1-.23-.24-.57-.37-1.03-.37-.35,0-.67,.09-.96,.27-.3,.18-.54,.42-.73,.73s-.31,.67-.35,1.07v-.74c.03-.35,.12-.68,.25-.96s.3-.53,.49-.74,.43-.37,.68-.48c.26-.11,.53-.17,.82-.17v.02Z" fill="#FF8E72"></path>
    <path d="M538.55,427.46h.94c.03,.36,.16,.66,.41,.89s.61,.34,1.08,.34c.29,0,.51-.04,.68-.11,.17-.08,.29-.18,.36-.31s.11-.28,.11-.44c0-.19-.05-.35-.15-.46-.1-.11-.23-.21-.39-.29-.17-.08-.35-.15-.56-.21-.25-.09-.5-.19-.75-.3-.26-.11-.5-.23-.72-.38s-.4-.33-.54-.54c-.14-.21-.2-.47-.2-.78,0-.25,.05-.49,.15-.72,.1-.22,.25-.42,.44-.58,.19-.17,.41-.29,.67-.39s.54-.14,.86-.14c.42,0,.78,.08,1.07,.25s.51,.41,.67,.72,.24,.67,.25,1.07h-.87c-.06-.38-.18-.66-.36-.83-.18-.17-.44-.26-.78-.26s-.61,.08-.8,.23c-.19,.15-.28,.35-.28,.61,0,.19,.07,.34,.2,.46s.31,.23,.53,.33c.21,.1,.45,.2,.69,.3s.48,.2,.71,.3c.23,.1,.43,.22,.61,.36,.18,.13,.32,.3,.42,.5s.16,.45,.16,.74c0,.35-.08,.67-.25,.94s-.41,.49-.72,.64c-.32,.15-.7,.23-1.16,.23-.41,0-.77-.05-1.06-.16-.29-.11-.53-.25-.73-.42-.19-.17-.34-.36-.45-.55s-.18-.38-.21-.57-.04-.34-.03-.47h0Z" fill="#FF8E72"></path>
    <path d="M549.5,429.63c-.5,0-.96-.14-1.38-.42s-.75-.67-1-1.17c-.25-.49-.37-1.06-.37-1.69s.13-1.2,.38-1.7,.6-.89,1.03-1.18c.44-.29,.92-.43,1.46-.43,.59,0,1.04,.15,1.35,.45s.52,.7,.63,1.2,.17,1.05,.17,1.66c0,.32-.03,.67-.1,1.04-.07,.38-.18,.74-.35,1.08-.16,.34-.39,.62-.69,.84-.3,.21-.68,.32-1.14,.32h0Zm.25-.96c.43,0,.79-.11,1.07-.32,.28-.21,.49-.49,.63-.84s.2-.74,.2-1.16c0-.46-.07-.87-.21-1.22s-.35-.62-.63-.82-.63-.3-1.06-.3c-.63,0-1.12,.22-1.47,.67-.35,.44-.52,1-.52,1.68,0,.45,.09,.85,.26,1.2s.41,.62,.71,.82,.64,.3,1.02,.3h0Zm1.9-5.51h1.01v6.33h-.92c-.03-.3-.05-.56-.06-.76-.02-.2-.03-.37-.03-.51v-5.07h0Z" fill="#35374e"></path>
    <path d="M554.31,423.17h1.01v6.33h-1.01v-6.33Zm3.19-.13c.34,0,.64,.05,.91,.15s.5,.25,.68,.44c.19,.19,.33,.43,.43,.7,.1,.27,.15,.58,.15,.93v4.23h-1.01v-3.98c0-.49-.11-.86-.34-1.1-.23-.24-.57-.37-1.03-.37-.35,0-.67,.09-.96,.27-.3,.18-.54,.42-.73,.73s-.31,.67-.35,1.07v-.74c.03-.35,.12-.68,.25-.96s.3-.53,.49-.74,.43-.37,.68-.48c.26-.11,.53-.17,.82-.17v.02Z" fill="#35374e"></path>
    <path d="M563.72,429.63c-.51,0-.97-.14-1.39-.42-.42-.28-.75-.67-.99-1.17s-.37-1.06-.37-1.69,.12-1.2,.35-1.7,.56-.89,.98-1.18c.41-.29,.89-.43,1.42-.43,.47,0,.86,.09,1.16,.26s.53,.41,.69,.72c.16,.3,.27,.66,.33,1.05,.06,.4,.1,.82,.1,1.28,0,.32-.03,.67-.1,1.04-.07,.38-.18,.74-.35,1.08-.16,.34-.39,.62-.69,.84-.3,.21-.68,.32-1.14,.32h0Zm.25-.96c.43,0,.79-.11,1.07-.32,.28-.21,.49-.49,.63-.84s.2-.74,.2-1.16c0-.46-.07-.87-.21-1.22s-.35-.62-.63-.82-.63-.3-1.06-.3c-.63,0-1.12,.22-1.47,.67-.35,.44-.52,1-.52,1.68,0,.45,.09,.85,.26,1.2s.41,.62,.71,.82,.64,.3,1.02,.3h0Zm1.9-8.04h1.01v8.87h-.92c-.02-.19-.04-.41-.06-.66s-.03-.46-.03-.61v-7.6Z" fill="#35374e"></path>
    <path d="M572.36,426.59v-.95h2.58c.51,0,.92-.16,1.24-.48s.47-.73,.47-1.24-.16-.94-.47-1.25-.73-.46-1.24-.46h-2.38v7.28h-1.01v-8.23h3.39c.38,0,.74,.06,1.06,.18s.62,.29,.87,.52c.25,.23,.44,.51,.58,.84s.21,.71,.21,1.13-.07,.8-.21,1.13-.33,.61-.58,.84-.54,.4-.87,.52-.68,.18-1.06,.18h-2.58Z" fill="#FF8E72"></path>
    <path d="M579.06,423.17h1.01v6.33h-1.01v-6.33Zm3.04,.95c-.43,0-.79,.11-1.08,.32-.29,.21-.52,.48-.68,.79-.17,.31-.27,.61-.32,.89v-.74c-.01-.08,0-.2,.04-.38,.03-.18,.1-.38,.19-.6s.22-.44,.37-.65c.16-.21,.36-.38,.6-.51s.54-.2,.89-.2v1.08h0Z" fill="#FF8E72"></path>
    <path d="M584.49,420.64v1.23h-1.32v-1.23h1.32Zm-1.17,2.53h1.01v6.33h-1.01v-6.33Z" fill="#FF8E72"></path>
    <path d="M588.52,428.63h-.3l1.94-5.46h1.1l-2.41,6.33h-.95l-2.39-6.33h1.1l1.91,5.46h0Z" fill="#FF8E72"></path>
    <path d="M594.54,429.63c-.5,0-.96-.14-1.38-.42s-.75-.67-1-1.17c-.25-.49-.37-1.06-.37-1.69s.13-1.2,.38-1.7,.6-.89,1.03-1.18c.44-.29,.92-.43,1.46-.43,.59,0,1.04,.15,1.35,.45s.52,.7,.63,1.2,.17,1.05,.17,1.66c0,.32-.03,.67-.1,1.04-.07,.38-.18,.74-.35,1.08-.16,.34-.39,.62-.69,.84-.3,.21-.68,.32-1.14,.32h0Zm.25-.96c.43,0,.79-.11,1.07-.32,.28-.21,.49-.49,.63-.84s.2-.74,.2-1.16c0-.46-.07-.87-.21-1.22s-.35-.62-.63-.82-.63-.3-1.06-.3c-.63,0-1.12,.22-1.47,.67-.35,.44-.52,1-.52,1.68,0,.45,.09,.85,.26,1.2s.41,.62,.71,.82,.64,.3,1.02,.3h0Zm1.9-5.51h1.01v6.33h-.92c-.03-.3-.05-.56-.06-.76-.02-.2-.03-.37-.03-.51v-5.07h0Z" fill="#FF8E72"></path>
    <path d="M604.98,427.12c-.06,.52-.23,.97-.5,1.35s-.62,.66-1.03,.86-.86,.3-1.34,.3c-.54,0-1.05-.13-1.52-.39-.47-.26-.85-.64-1.15-1.13-.29-.49-.44-1.08-.44-1.75s.15-1.26,.44-1.75,.67-.88,1.15-1.15c.47-.27,.98-.41,1.52-.41,.48,0,.93,.1,1.34,.3,.41,.2,.75,.49,1.03,.86,.27,.37,.45,.81,.51,1.33h-.92c-.14-.48-.39-.86-.75-1.13-.35-.27-.76-.41-1.2-.41-.36,0-.71,.09-1.03,.28s-.58,.45-.77,.8c-.19,.35-.29,.78-.29,1.27s.1,.91,.29,1.26,.45,.62,.77,.8,.66,.27,1.03,.27c.51,0,.94-.14,1.26-.41s.56-.66,.7-1.15h.9Z" fill="#FF8E72"></path>
    <path d="M605.7,423.17h1.09l2.27,6.08-.89,.25-2.47-6.33h0Zm5.89,0l-3.53,8.87h-1.1l1.53-3.42,2.03-5.45h1.07Z" fill="#FF8E72"></path>
  </g>
  <path d="M639.89,375.17c-1.78,0-3.22-1.44-3.22-3.22s1.44-3.22,3.22-3.22,3.22,1.44,3.22,3.22-1.44,3.22-3.22,3.22Zm0-5.44c-1.22,0-2.22,1-2.22,2.22s1,2.22,2.22,2.22,2.22-1,2.22-2.22-1-2.22-2.22-2.22Z" fill="#fff"></path>
  <g>
    <path d="M290.51,78.06c-.15,0-.3-.07-.4-.2-.17-.22-.12-.54,.1-.7,.2-.15,5.08-3.71,11.32-3.71,.28,0,.5,.22,.5,.5s-.22,.5-.5,.5c-5.9,0-10.67,3.48-10.72,3.51-.09,.07-.19,.1-.3,.1h0Z" fill="#35374e"></path>
    <ellipse cx="295.13" cy="82.62" rx="2.02" ry="2.65" fill="#35374e"></ellipse>
    <ellipse cx="318.77" cy="88.46" rx="2.65" ry="2.02" transform="translate(161.23 379.35) rotate(-77.07)" fill="#35374e"></ellipse>
    <path d="M323.23,85.41c-.16,0-.33-.08-.42-.23-1.35-2.12-3.85-3.68-3.88-3.7-.23-.15-.31-.45-.16-.69,.14-.23,.45-.31,.69-.16,.11,.07,2.71,1.7,4.19,4.01,.15,.23,.08,.54-.15,.69-.08,.05-.18,.08-.27,.08Z" fill="#35374e"></path>
  </g>
  <path d="M307.77,97.29c-.08,0-.15,0-.23-.03l-3.45-.84c-.27-.07-.43-.34-.37-.6,.07-.27,.34-.43,.6-.37l3.45,.84-.05-12.42c0-.28,.22-.5,.5-.5s.5,.22,.5,.5v12.46c0,.3-.13,.57-.37,.76-.17,.13-.38,.21-.59,.21h0Z" fill="#35374e"></path>
</svg>
