<svg version="1.2" xmlns="http://www.w3.org/2000/svg" viewBox="0 0 1280 720" width="1280" height="720">
	<title>Nouveau projet</title>
	<style>
		.s0 { fill: #f4f3d8 } 
		.s1 { fill: #b1e7f1 } 
		.s2 { fill: #bcedae } 
		.s3 { fill: #b1e7f1;stroke: #1a1a1a;stroke-miterlimit:10;stroke-width: 20 } 
		.s4 { fill: #bcedae;stroke: #1a1a1a;stroke-miterlimit:10;stroke-width: 20 } 
		.s5 { fill: #1a1a1a } 
		.s6 { opacity: .5;fill: #da6a65 } 
		.s7 { fill: #b8eccf;stroke: #1a1a1a;stroke-miterlimit:10;stroke-width: 20 } 
	</style>
	<path id="&lt;Path&gt;" fill-rule="evenodd" class="s0" d="m1166 456.6c1.5 100.5-99.9 160.2-189.1 173.3-57.1 9.1-115.4 3.9-172.9 8.4-43.3 3.2-85 14-126.1 29-37.7 13.5-75.7 28.2-115.6 36-111.8 20.9-236.7 5.9-328.9-63.2-75.4-59.1-72-125.2-75.8-212.4-1.8-36.6-4.6-73.5-13.2-109.3-2.5-10.9-5.5-21.7-8.6-32.5-8.3-29.7-19.5-59.8-22.2-90.2-4.5-44.7 14.8-84.1 55.3-105.3 20.1-10.7 41.8-16.4 64-20.5 52.5-9.4 106.2-11.4 158.6-20.1 41.9-6.6 82.7-17.7 123.9-27.2 28.7-6.6 58-12.1 87.4-14.3 58.1-4.3 117.5 1.1 173.1 18.5 55.1 17.5 105 47.3 153.7 77.8 79.5 48.9 148.9 100.3 191 186.2 7.4 14.7 13.8 30 19.5 45.4 14 38.7 25.5 78.8 25.9 120.2z"/>
	<path id="&lt;Compound Path&gt;" fill-rule="evenodd" class="s1" d="m425.9 197.7c-118.2 56.9-133.6 221.2-18.5 289 80.9 45.9 186.4 1.8 233.5-72.9 19.9-30.9 30.5-68.7 26.2-105.2-12.9-112.5-146.5-158.6-241-111z"/>
	<path id="&lt;Compound Path&gt;" fill-rule="evenodd" class="s1" d="m411.1 152.1c-126.1 60.7-142.5 236-19.8 308.3 86.4 49 198.9 1.9 249.2-77.8 21.2-33 32.5-73.2 27.9-112.2-13.7-120-156.3-169.2-257-118.4z"/>
	<path id="&lt;Compound Path&gt;" fill-rule="evenodd" class="s2" d="m677.7 212.4c-103.3 50.6-140.1 185.9-58.1 272.1 61 64.4 165.9 66.6 235.7 14.3 62.5-44.9 95-129.4 67.7-202.4-35.8-97.9-155.8-130.4-245-84.1z"/>
	<path id="&lt;Compound Path&gt;" fill-rule="evenodd" class="s3" d="m446.9 171.2c-155.5 55.5-131.9 293.6 40.6 304.8 44.3 3 87-9.5 119.5-40.6 114.7-109.9 1.6-321.9-160.1-264.2z"/>
	<path id="&lt;Path&gt;" fill-rule="evenodd" class="s4" d="m729.4 220.6c130.8-17.9 226.9 133.1 141.1 238.2-58.4 71.4-166.7 75-228.8 6.5-83.7-92.2-14.7-230.7 87.7-244.7z"/>
	<path id="&lt;Path&gt;" fill-rule="evenodd" class="s5" d="m802.4 397.8c28.1-6.2 10.9 52.7-42 59.7-46.8 6.2-80.7-31.7-74.6-47.9 17-23.2 21.1 34.9 69.1 27.8 28.6-4.2 40.3-38 47.5-39.6z"/>
	<path id="&lt;Path&gt;" fill-rule="evenodd" class="s5" d="m707.3 324.3c1.9-0.7 2.9 1.2 2.9 4.3 0.1 2.5-0.8 5.8-2.4 9-3.7 7.4-12.3 13.2-20.8 11.3-8.2-1.8-14.3-8.8-16.3-16-0.4-1.9-0.8-6.7 2.3-5.4 2.1 1.1 3.9 3.6 5.9 5.6 3.1 3.1 7.3 6 11.7 5.5 6.6-0.4 11.2-8 14.3-12.1 0.7-0.8 1.5-1.7 2.4-2.1z"/>
	<path id="&lt;Path&gt;" fill-rule="evenodd" class="s5" d="m793.1 327.2c-1.9-0.5-2.7 1.3-2.3 4.3 0.7 5 5.4 11.1 10.5 13.9 10.4 6.2 23.3 2 29.2-8.3 2.4-4.1 3.5-10.3 0.7-10.8-1.3 0-2.1 0.9-3.4 1.9-0.9 0.9-2.1 2.1-3.3 3.3-2.9 3-6.6 5.9-10.9 6.4-7.4 1.2-14.1-6.4-18.4-9.7-0.7-0.4-1.4-0.8-2.1-1z"/>
	<path id="&lt;Path&gt;" fill-rule="evenodd" class="s6" d="m816.9 361.8c19.7-4 24.1 24.9 6.8 27.9-20.5 3.7-22.4-24.8-6.8-27.9z"/>
	<path id="&lt;Path&gt;" fill-rule="evenodd" class="s6" d="m682 368c19.1-5.9 25.5 20.2 13.7 25.8-20.2 9.6-28.4-21.3-13.7-25.8z"/>
	<path id="&lt;Path&gt;" fill-rule="evenodd" class="s7" d="m616.1 426.9c-23.5-52.5-10.3-120.3 27.9-158.9 0.5-0.6 1.5-0.4 1.8 0.4 15.9 49.6 9.7 114.7-27.9 158.7-0.5 0.6-1.5 0.5-1.8-0.2z"/>
	<path id="&lt;Path&gt;" fill-rule="evenodd" class="s5" d="m462.5 289.8c-26.7 5.7-33.1-35.2-11-40.1 29.1-6.6 32.6 35.5 11 40.1z"/>
	<path id="&lt;Path&gt;" fill-rule="evenodd" class="s5" d="m572.4 312.4c-17.6-2.5-19.8-35.4-2-39.7 30.6-7.3 32.3 44 2 39.7z"/>
	<path id="&lt;Path&gt;" fill-rule="evenodd" class="s5" d="m446.2 353c-28.1-6.1-10.8 52.7 42.2 59.5 46.8 6.1 80.6-31.9 74.4-48.1-17-23.2-20.9 35-69 28-28.6-4.1-40.3-37.8-47.6-39.4z"/>
	<path id="&lt;Path&gt;" fill-rule="evenodd" class="s6" d="m436.9 321c9.5 12.1-7.5 23.9-14.7 17-12.5-11.9 7.4-26.3 14.7-17z"/>
	<path id="&lt;Path&gt;" fill-rule="evenodd" class="s6" d="m584.1 334.2c9.5 12.1-7.5 23.9-14.7 16.9-12.5-11.8 7.4-26.2 14.7-16.9z"/>
	<g id="Layer 1">
	</g>
</svg>