<svg xmlns="http://www.w3.org/2000/svg" viewBox="0 0 865.76 682.89"><rect x="13.45" y="614.42" width="838.87" height="0.44" fill="#ebebeb"/><path d="M409.77,535.14H66.51A10.16,10.16,0,0,1,56.37,525V42.46A10.16,10.16,0,0,1,66.51,32.39H409.77a10.15,10.15,0,0,1,10.15,10.16h0V525A10.15,10.15,0,0,1,409.77,535.14ZM66.51,32.75a9.7,9.7,0,0,0-9.69,9.71V525a9.7,9.7,0,0,0,9.69,9.7H409.77a9.72,9.72,0,0,0,9.71-9.7V42.46a9.73,9.73,0,0,0-9.71-9.71Z" fill="#ebebeb"/><rect x="732.13" y="631.35" width="56.12" height="0.44" fill="#ebebeb"/><rect x="525.2" y="626.53" width="59.39" height="0.44" fill="#ebebeb"/><rect x="693.48" y="647.86" width="110.98" height="0.44" fill="#ebebeb"/><rect x="81.71" y="644.88" width="34.19" height="0.44" fill="#ebebeb"/><rect x="131.73" y="644.88" width="53.85" height="0.44" fill="#ebebeb"/><rect x="325.47" y="637.38" width="96.99" height="0.44" fill="#ebebeb"/><rect x="481.32" y="375.2" width="263.78" height="10.4" fill="#e6e6e6"/><rect x="451.48" y="375.2" width="269.75" height="10.4" fill="#f0f0f0"/><rect x="140.67" y="68.61" width="239.99" height="267.85" fill="#ebebeb"/><rect x="380.67" y="68.61" width="2.17" height="267.85" fill="#e0e0e0"/><rect x="158.47" y="86.37" width="204.44" height="232.3" fill="#f5f5f5"/><rect x="268.23" y="245.79" width="57.58" height="80.58" fill="#fff"/><polygon points="198.97 333.42 256.53 333.42 260.67 252.82 203.11 252.82 198.97 333.42" fill="#fff"/><polygon points="148.82 233.62 206.38 233.62 210.52 153.01 152.96 153.01 148.82 233.62" fill="#fff"/><rect x="317.47" y="107.99" width="62.03" height="44.32" transform="translate(203.19 472.6) rotate(-87.49)" fill="#fff"/><rect x="141.3" y="83.1" width="62.03" height="44.32" transform="translate(59.61 272.8) rotate(-87.49)" fill="#fff"/><rect x="317.48" y="180.38" width="62.03" height="44.32" transform="translate(141.35 548.31) rotate(-89.24)" fill="#fff"/><rect x="221.29" y="97.71" width="93.9" height="131.45" transform="translate(-4.62 7.84) rotate(-1.66)" fill="#fff"/><rect x="99.48" y="368.39" width="98.68" height="246.04" fill="#f0f0f0"/><rect x="104.89" y="374.56" width="87.86" height="72.42" fill="#e6e6e6"/><rect x="104.89" y="453.49" width="87.86" height="72.42" fill="#e6e6e6"/><rect x="104.89" y="532.42" width="87.86" height="72.42" fill="#e6e6e6"/><rect x="104.89" y="374.56" width="34.56" height="72.42" fill="#e0e0e0"/><rect x="104.89" y="453.49" width="34.56" height="72.42" fill="#e0e0e0"/><rect x="104.87" y="532.42" width="34.56" height="72.42" fill="#e0e0e0"/><rect x="198.17" y="368.39" width="26.79" height="246.04" fill="#f5f5f5"/><rect x="204.99" y="368.39" width="98.68" height="246.04" fill="#f0f0f0"/><rect x="210.4" y="374.56" width="87.86" height="72.42" fill="#e6e6e6"/><rect x="210.4" y="453.49" width="87.86" height="72.42" fill="#e6e6e6"/><rect x="210.41" y="532.4" width="87.86" height="72.42" fill="#e6e6e6"/><rect x="210.4" y="374.56" width="34.56" height="72.42" fill="#e0e0e0"/><rect x="210.4" y="453.49" width="34.56" height="72.42" fill="#e0e0e0"/><rect x="210.38" y="532.42" width="34.56" height="72.42" fill="#e0e0e0"/><rect x="303.67" y="368.39" width="26.79" height="246.04" fill="#f5f5f5"/><path d="M176.89,511.67c0,7.86-10.17,14.22-22.71,14.22s-22.63-6.4-22.63-14.22Z" fill="#f0f0f0"/><path d="M176.89,501c0,7.86-10.17,14.22-22.71,14.22S131.5,508.9,131.5,501Z" fill="#f0f0f0"/><path d="M285.33,432.76c0,7.86-12.71,14.22-28.45,14.22s-28.44-6.36-28.44-14.22Z" fill="#fafafa"/><path d="M285.33,422.11c0,7.86-12.71,14.22-28.45,14.22s-28.44-6.38-28.44-14.22Z" fill="#fafafa"/><rect x="216.37" y="542.84" width="71.34" height="61.99" fill="#f0f0f0"/><rect x="287.69" y="542.85" width="10.56" height="61.99" fill="#e0e0e0"/><rect x="110.86" y="384.99" width="71.34" height="61.99" fill="#f0f0f0"/><rect x="182.18" y="384.99" width="10.56" height="61.99" fill="#e0e0e0"/><rect x="464.2" y="484.19" width="13.85" height="130.24" fill="#e6e6e6"/><rect x="460.49" y="484.19" width="8.16" height="130.24" fill="#f0f0f0"/><rect x="457.98" y="484.19" width="196.56" height="14.42" fill="#f0f0f0"/><rect x="742.44" y="484.19" width="13.85" height="130.24" fill="#e6e6e6"/><rect x="739.84" y="484.19" width="8.16" height="130.24" fill="#f0f0f0"/><rect x="660.47" y="484.19" width="98.29" height="14.42" fill="#e6e6e6"/><rect x="655.72" y="484.19" width="13.85" height="130.24" fill="#e6e6e6"/><rect x="652.02" y="484.19" width="8.16" height="130.24" fill="#f0f0f0"/><path d="M615.43,588.32l17.26,48.07a7.23,7.23,0,0,0,6.79,4.78h8.7a7.22,7.22,0,0,0,7.21-6.81l2.64-46ZM647,632.48h-7.08L626,594.19h22.85Z" fill="#f9a332"/><path d="M455.3,588.32,475,644.87a8.25,8.25,0,0,0,7.76,5.63h9.94a8.36,8.36,0,0,0,8.24-8l3-54.17Zm36,51.95h-8.09l-15.81-45h26.11Z" fill="#f9a332"/><path d="M247.54,573.32l3,54.17a8.36,8.36,0,0,0,8.24,8h9.94a8.28,8.28,0,0,0,7.77-5.62l19.73-56.56ZM258,580.23H284.1l-15.82,45h-8.09Z" fill="#f9a332"/><path d="M85.51,578.1l3,54.17a8.35,8.35,0,0,0,8.24,8h9.94a8.24,8.24,0,0,0,7.76-5.62l19.74-56.55ZM96,585h26.11l-15.81,45H98.17Z" fill="#f9a332"/><path d="M432.44,303.52l22.94,15.71-8,23.4-13-5.7S420.26,326.53,432.44,303.52Z" fill="#e28560"/><polygon points="518.68 325.41 497.6 338.12 490.66 349.95 490.66 360.28 518.68 353.42 524.49 333.32 518.68 325.41" fill="#e28560"/><path d="M65.31,502.17V576.4a11.92,11.92,0,0,0,11.92,11.92H658A11.92,11.92,0,0,0,670,576.4V420.25a6.65,6.65,0,0,0-6.65-6.65H644.08v-43a12.25,12.25,0,0,0-12.25-12.25H221a12.24,12.24,0,0,0-12.25,12.25v44H139a23.38,23.38,0,0,0-18.64,9.26L68.64,492.27A16.4,16.4,0,0,0,65.31,502.17Z" fill="#fbb040"/><path d="M478.56,574.23H92.72A9.74,9.74,0,0,1,83,564.49V505.36a9.74,9.74,0,0,1,9.73-9.74h19.59v1H92.72A8.75,8.75,0,0,0,84,505.36v59.13a8.75,8.75,0,0,0,8.73,8.74H478.56a9.49,9.49,0,0,0,9.47-9.48V536.28a48.68,48.68,0,0,1,9.37-28.81l62.65-86.22a29.46,29.46,0,0,1,23.76-12.11h60.27v1H583.81a28.46,28.46,0,0,0-22.95,11.69l-62.65,86.22A47.74,47.74,0,0,0,489,536.28v27.47A10.49,10.49,0,0,1,478.56,574.23Z" fill="#f9a332"/><path d="M359,456.66h-1V426a13.21,13.21,0,0,0-13.2-13.2H228.65a13.22,13.22,0,0,0-13.2,13.2v13.05h-1V426a14.22,14.22,0,0,1,14.2-14.2H344.79A14.22,14.22,0,0,1,359,426Z" fill="#f9a332"/><path d="M536.46,456.66h-1V426c0-7.28-6.68-13.2-14.89-13.2H390.18c-8.2,0-14.88,5.92-14.88,13.2v30.3h-1V426c0-7.83,7.13-14.2,15.88-14.2H520.57c8.76,0,15.89,6.37,15.89,14.2Z" fill="#f9a332"/><path d="M459.7,352.46l-13.34,10.23a6.22,6.22,0,0,0-2.46,5.41c.27,3.29,2,7.72,9.34,8.67,0,0,8.17.88,22.78-6l20.88-29.72.7-2.95Z" fill="#e6946f"/><path d="M457,351.57a70.19,70.19,0,0,0-10.3,4.62s-5.89-10.41-15.62-15.27l3.32-4s-14.17-9.51-2-33.41L424.36,294a4.53,4.53,0,0,0-7.1.19,11,11,0,0,0-1.64,3.39s-20.36-13.49-32.53-3.32c0,0-11.73,6.83-5.53,29.09l19.69,49.25a64.7,64.7,0,0,1,7,23.56,37.85,37.85,0,0,1-7.54,25.82L380,444.26l5.75,2s6.64-4.2,11.07-13.94c0,0,27-52.5,49.55-69.62l13.34-10.23Z" fill="#BCEEAD"/><g opacity="0.2"><path d="M443.88,355.74c-3.76,1.42-7.61,2.83-11.4,4.19l-.55.2a.8.8,0,0,0-.35,1.15l1.57,4.6a15.51,15.51,0,0,1,.58,1.83c.08.87-.6,1.39-1.32,1.69l-1.08.56-8.64,4.44c-1.39.71-2.81,1.29-3.44,2.77-4,12-8,24.84-12.23,36.79,3.23-11.43,7-23.53,10.53-34.86l.36-1.16c.46-2.3,2.36-3.56,4.35-4.4l8.67-4.36,1.08-.55c.34-.17.95-.38.89-.86-.29-1.16-1.57-5.08-1.92-6.29a1.42,1.42,0,0,1,.73-1.9l.59-.19c3.83-1.24,7.74-2.48,11.58-3.65Z"/></g><g opacity="0.2"><path d="M398.36,317.68c6.41,4.3,12.62,8.91,18.73,13.61l.25.19a.94.94,0,0,1-.62,1.7c-4.46-1-9.54-2.29-13.94-3.55,4.47.69,9.61,1.71,14,2.6,0,0-.05,0,0,0s.05.05,0,0l-.25-.19c-6.17-4.63-12.28-9.37-18.14-14.39Z"/></g><g opacity="0.2"><path d="M414.17,296.66c-2,7.36-3.92,14.89-3.2,22.57-2.15-7.5-.1-15.71,3.2-22.57Z"/></g><path d="M490.66,350,476,370.79s-22.32,26.56-28.29,66.13a90.72,90.72,0,0,1-5.72,20.7l-3.65,8.93a37.92,37.92,0,0,1,7.76,26.51s30.53.81,40.17,5.89c0,0,.53-73.63,28.91-92.64,0,0,57.84-34.83,77.38-52.89,0,0,19.82-11.22,7-34.19,0,0-5.36-14.4-27.85-8L532.07,322l.37-2a1.54,1.54,0,0,0-1.91-1.78c-3.82,1-11.06,3.42-11.85,7.17,0,0-1.33,14.76.54,22.8L495.66,357a.75.75,0,0,1-1-.61C494.56,355.3,493.77,353.36,490.66,350Z" fill="#BCEEAD"/><g opacity="0.2"><path d="M452.55,426.12c9.85-14.48,20.66-28.41,33.08-40.8l2.06-2a.42.42,0,0,0-.08-.64l-3.23-3-1.07-1c-.43-.35-1-.9-.88-1.56a1.45,1.45,0,0,1,1.38-1.22l1.43-.3,2.86-.56c.94-.17,3.39-.68,4.3-.85l.71-.14c.44-.1.79-.08.93-.5.32-3.44,1.25-13.07,1.62-16.64-.23,3.74-.69,13.24-1,16.82-.23.94-1.37.92-2.09,1.12l-4.28,1-2.85.64-1.42.3c-.28,0-.67.13-.69.48s.34.52.6.8l1.09,1,3.25,2.93a1.39,1.39,0,0,1,.17,2l-2.1,2.08c-12.34,12.4-23.23,26.17-33.76,40.11Z"/></g><g opacity="0.2"><path d="M505.83,372.57c2.4,9.82,5.59,24.88,7.81,34.87a167.11,167.11,0,0,1-7.81-34.87Z"/></g><g opacity="0.2"><path d="M521.12,347.4c16.33-9.41,34.15-18,50-28.17-7.53,5.95-16.06,10.48-24.39,15.2-8.44,4.53-16.94,9-25.65,13Z"/></g><g opacity="0.2"><path d="M532.07,322a62.88,62.88,0,0,1,1.61,16.12A63.33,63.33,0,0,1,532.07,322Z"/></g><g opacity="0.2"><path d="M555.9,320.36c-1.89,3-2.17,6.3-2.29,9.7-1.37-3.2-.75-7.68,2.29-9.7Z"/></g><path d="M385.74,446.25l13.49,4.43s30,3.7,39.13,15.87c0,0,8-16.27,9.37-29.63,0,0,6-39.58,28.29-66.13,0,0-13.61,6.77-22.78,6,0,0-9.13-1-9.34-8.67a5.62,5.62,0,0,1,2.46-5.41s-3.1,1.32-13.74,13.71c0,0-15.52,19.07-26.89,39.77l-8.92,16.14S393.11,441.07,385.74,446.25Z" fill="#fff"/><path d="M208.52,634.14c-.51,5.32-7.25,4.64-7.25,4.64l-27.39,1.75c-2.67-16.85-7.28-22.19-7.56-22.51h0c7.68-2,15.14-15.63,15.14-15.63l25.62,6.8c-4.62,8.38-.29,18-.29,18C208.23,630.23,208.68,632.48,208.52,634.14Z" fill="#e6946f"/><path d="M179.52,644.29c-31.63.42-44.44-1.7-49.16-2.93a4.27,4.27,0,0,1-2.63-6.27c4.37-7.43,24.25-14.86,24.25-14.86,15.66-7.54,14.33-2.22,14.33-2.22h0c.28.32,4.89,5.66,7.56,22.51l27.39-1.75s6.74.68,7.25-4.64h0C227.13,643.14,179.52,644.29,179.52,644.29Z" fill="#BCEEAD"/><path d="M163.42,462.91s-35.8-9.57-41.12,6.38c0,0-7.8,13.59,11.34,22.4,0,0,36.59,14.09,52.66,12.45a8.45,8.45,0,0,0,7.58-6.87c.53-3.35-1-7.31-9.9-8.83l-17.64-6.27S169.09,473.9,163.42,462.91Z" fill="#BCEEAD"/><rect x="456.8" y="292.72" width="38.44" height="58.57" rx="12.28" transform="translate(224.78 -194.87) rotate(30)" fill="#e6946f"/><path d="M512.79,314.79c9.76-14.29-2.44-7-2.44-7-2.79-44.25-12.54-19.16-12.54-19.16-27.18-34.5-31.39,12.17-31.39,12.17a21.72,21.72,0,0,1,9.6-6.09s1.89,13.19,17.4,21.31c0,0-.29,4.78,1.3,8,0,0-14.64,17.83-25.51,6.67-5.25-5.39-9.76-6.62-13-6.46A8.43,8.43,0,0,0,449,329.1c-2.56,5.37-5.93,16.81,8,22.47,0,0,20,9.2,40.57-13.45l8.72-2.93s13-7.69,10.25-14.79a12.14,12.14,0,0,0-3.78-5.61Z" fill="#414042"/><ellipse cx="500.35" cy="333.14" rx="8.87" ry="5.87" transform="translate(-59.86 551.08) rotate(-54.91)" fill="#e6946f"/><path d="M163.42,462.91s9.93,16-3.9,33.68c0,0,11.79-.59,19.72-4.9,0,0-5.87-13.12.5-25.56C179.74,466.13,170.16,464.33,163.42,462.91Z" fill="#e6946f"/><path d="M183.8,459.65s-19.78,21.67,7.07,49l44.27-24.5-53.7,118.24,46.17,12.25L284.13,502s129-15.6,162-9c0,0,8.39-36.75-46.89-42.38L380,444.26,288.6,415.08a22.62,22.62,0,0,0-16.9,1.26Z" fill="#031D44"/><g opacity="0.2"><path d="M399.23,450.68a100.52,100.52,0,0,1,18.49,9,101.79,101.79,0,0,1-18.49-9Z"/></g><g opacity="0.2"><path d="M237,478.49c2.32-13.29,12.26-20.44,25.54-16.9,0,0,19.48,7.38,19.5,7.37,18.82,7.22,39.55,15.18,58.12,22.73-18.84-6.74-39.66-14.64-58.47-21.8l-19.41-7.48a26.64,26.64,0,0,0-8.42-.89c-9,.4-15.26,8.64-16.86,17Z"/></g><path d="M642.1,332.47c13-8.39,30.57-11.31,43.66-7.28a29.08,29.08,0,0,1,18.94,16.69c4.79,11.37,21.92,19.16,39.14,17.74,15.18-1.27,25.57-9.07,28.5-21.39a.81.81,0,0,1,1.57.36h0c-3,12.84-14.22,21.28-29.89,22.58-1.51.12-2.91.18-4.47.18-16.44,0-31.58-7.68-36.29-18.86a27.5,27.5,0,0,0-18-15.79c-12.68-3.92-29.75-1.07-42.35,7.09A28.07,28.07,0,0,1,627.51,338" fill="#031D44"/><path d="M465.17,250.56a.8.8,0,0,1-.74-.5c-.09-.27-10.47-27.16,4.32-48.08,7.2-10.19,16.39-14.4,24.5-18.11,8.42-3.83,15.66-7.15,17.88-16.29.62-2.62,1.19-5.31,1.78-8.16,3.53-16.95,7.52-36.16,27.16-40.12a.77.77,0,0,1,.91.6h0a.79.79,0,0,1-.61.93h0c-18.61,3.77-22.49,22.43-25.92,38.89-.61,2.87-1.18,5.58-1.8,8.22-2.38,9.88-10,13.34-18.79,17.35-7.93,3.63-16.92,7.73-23.89,17.59-14.27,20.21-4.22,46.32-4.13,46.59a.77.77,0,0,1-.43,1h0A.62.62,0,0,1,465.17,250.56Z" fill="#031D44"/><path d="M530.63,260.9a.34.34,0,0,1-.2,0,.78.78,0,0,1-.55-.95c.1-.33,9.63-33.39,35-44.24,9.5-4.05,18.1-4,25.69-3.91,13.08.12,24.39.22,36.6-19.77,20.2-33.08,26-39.14,53.22-41.25a177.21,177.21,0,0,1,22.93.09c15.65.79,26.88,1.35,33.53-10.53a.78.78,0,0,1,1.41.69l0,.08c-7.12,12.72-19.41,12.11-35,11.31a179.57,179.57,0,0,0-22.73,0c-26.5,2.06-32.15,8-52,40.5-12.68,20.74-24.41,20.63-37.95,20.52-7.82,0-15.86-.14-25,3.79-24.72,10.55-34.07,42.89-34.14,43.22A.8.8,0,0,1,530.63,260.9Z" fill="#031D44"/><path d="M437.43,284.43c-10.55,0-20.77-2.78-27.94-8.11a26.41,26.41,0,0,1-10.8-24.62c2.6-31.31-6.8-43.56-22.79-53.22C356.74,186.91,351,164,361,138.59a.79.79,0,0,1,1-.44h0a.79.79,0,0,1,.44,1c-9.66,24.6-4.18,46.82,14.29,57.91,19.49,11.79,25.88,26.62,23.48,54.7A25,25,0,0,0,410.38,275c11.6,8.61,31.56,10.3,47.45,4a.78.78,0,1,1,.58,1.45A57.48,57.48,0,0,1,437.43,284.43Z" fill="#031D44"/><path d="M655.86,277.48c-4.47-3.61-6.26-4.69-9.08-15.14,0,0-2-2.23-3.53,2s2.58,11.9,2.67,15-11.33,1.67-13.93,2.47a3.83,3.83,0,0,0-.56,7s-6.77,3,.65,7.53c0,0-4.69,4.23,1,7.27,0,0-1.88,3.71,5,6,5.07,1.69,23.26-1.8,26.09-5.12l-1.56-19.35C661.72,280.88,659,280,655.86,277.48Z" fill="#BCEEAD"/><g opacity="0.7" style="isolation:isolate"><path d="M655.86,277.48c-4.47-3.61-6.26-4.69-9.08-15.14,0,0-2-2.23-3.53,2s2.58,11.9,2.67,15-11.33,1.67-13.93,2.47a3.83,3.83,0,0,0-.56,7s-6.77,3,.65,7.53c0,0-4.69,4.23,1,7.27,0,0-1.88,3.71,5,6,5.07,1.69,23.26-1.8,26.09-5.12l-1.56-19.35C661.72,280.88,659,280,655.86,277.48Z" fill="#fafafa"/></g><rect x="662.8" y="280.59" width="11.55" height="24.95" rx="1.61" transform="matrix(1, -0.09, 0.09, 1, -23.32, 60.35)" fill="#BCEEAD"/><g opacity="0.7" style="isolation:isolate"><path d="M668,303.06a1.44,1.44,0,1,0,1.32-1.57,1.46,1.46,0,0,0-1.32,1.56Z" fill="#fafafa"/></g><path d="M573.62,257.15a2.42,2.42,0,0,0,1.41.12,2,2,0,0,0,1.39-1.12c.7-1.35.13-2.88-1.78-4.7a15.1,15.1,0,0,1-3.89-11.77,5.38,5.38,0,0,1,2.52-4.21c4.31-2.19,8,4.29,8,4.35a.78.78,0,0,0,1.06.31h0a.8.8,0,0,0,.31-1.06c-1.56-2.74-5.62-7.3-10.13-5a6.79,6.79,0,0,0-3.35,5.39,16.65,16.65,0,0,0,4.37,13.13c.89.85,1.88,2,1.47,2.82a.49.49,0,0,1-.36.31,1,1,0,0,1-.75-.18c-.28-.21-.36-.38-.34-.47a.24.24,0,0,1,.09-.15.73.73,0,0,0,.93-.46v0a.83.83,0,0,0-.56-1,1.58,1.58,0,0,0-1.84.86,1.91,1.91,0,0,0,.76,2.51A2.51,2.51,0,0,0,573.62,257.15Z" fill="#BCEEAD"/><path d="M587.93,262.53a2.52,2.52,0,0,0,.72.17,1.91,1.91,0,0,0,2.2-1.39,1.57,1.57,0,0,0-.81-1.85.78.78,0,0,0-.64,1.43l-.08.11c-.08.11-.24.16-.58.14a1.09,1.09,0,0,1-.69-.36.55.55,0,0,1,0-.47c.22-.88,1.74-1.11,3-1.14a16.66,16.66,0,0,0,12-7,6.7,6.7,0,0,0,1-6.26c-1.87-4.7-7.94-4-11-2.94a.77.77,0,0,0-.47,1,.78.78,0,0,0,1,.48c.07,0,7.13-2.44,8.92,2a5.35,5.35,0,0,1-.89,4.82,15.24,15.24,0,0,1-10.69,6.26c-2.63.09-4.07.85-4.45,2.33a2.13,2.13,0,0,0,.31,1.77A2.58,2.58,0,0,0,587.93,262.53Z" fill="#BCEEAD"/><g opacity="0.5"><path d="M573.62,257.15a2.42,2.42,0,0,0,1.41.12,2,2,0,0,0,1.39-1.12c.7-1.35.13-2.88-1.78-4.7a15.1,15.1,0,0,1-3.89-11.77,5.38,5.38,0,0,1,2.52-4.21c4.31-2.19,8,4.29,8,4.35a.78.78,0,0,0,1.06.31h0a.8.8,0,0,0,.31-1.06c-1.56-2.74-5.62-7.3-10.13-5a6.79,6.79,0,0,0-3.35,5.39,16.65,16.65,0,0,0,4.37,13.13c.89.85,1.88,2,1.47,2.82a.49.49,0,0,1-.36.31,1,1,0,0,1-.75-.18c-.28-.21-.36-.38-.34-.47a.24.24,0,0,1,.09-.15.73.73,0,0,0,.93-.46v0a.83.83,0,0,0-.56-1,1.58,1.58,0,0,0-1.84.86,1.91,1.91,0,0,0,.76,2.51A2.51,2.51,0,0,0,573.62,257.15Z" fill="#fafafa"/><path d="M587.93,262.53a2.52,2.52,0,0,0,.72.17,1.91,1.91,0,0,0,2.2-1.39,1.57,1.57,0,0,0-.81-1.85.78.78,0,0,0-.64,1.43l-.08.11c-.08.11-.24.16-.58.14a1.09,1.09,0,0,1-.69-.36.55.55,0,0,1,0-.47c.22-.88,1.74-1.11,3-1.14a16.66,16.66,0,0,0,12-7,6.7,6.7,0,0,0,1-6.26c-1.87-4.7-7.94-4-11-2.94a.77.77,0,0,0-.47,1,.78.78,0,0,0,1,.48c.07,0,7.13-2.44,8.92,2a5.35,5.35,0,0,1-.89,4.82,15.24,15.24,0,0,1-10.69,6.26c-2.63.09-4.07.85-4.45,2.33a2.13,2.13,0,0,0,.31,1.77A2.58,2.58,0,0,0,587.93,262.53Z" fill="#fafafa"/></g><path d="M583,259.73l-1.8,4.7,1.31.5a2.59,2.59,0,0,0,1.53,3.32h0l.69.27-1.3,3.46-12.76-4.81,1.32-3.47.69.26a2.58,2.58,0,0,0,3.32-1.52v0l1.31.5,1.79-4.7c-8.78-10-1.57-11.79-.22-15.34a22.07,22.07,0,0,0,1-8.39l18.2,6.87a22.3,22.3,0,0,0-4.79,7C592,251.92,596.28,258,583,259.73Z" fill="#031D44"/><g opacity="0.7" style="isolation:isolate"><path d="M583,259.73l-1.8,4.7,1.31.5a2.59,2.59,0,0,0,1.53,3.32h0l.69.27-1.3,3.46-12.76-4.81,1.32-3.47.69.26a2.58,2.58,0,0,0,3.32-1.52v0l1.31.5,1.79-4.7c-8.78-10-1.57-11.79-.22-15.34a22.07,22.07,0,0,0,1-8.39l18.2,6.87a22.3,22.3,0,0,0-4.79,7C592,251.92,596.28,258,583,259.73Z" fill="#fafafa"/></g><rect x="573.37" y="260.42" width="7.12" height="19.35" transform="translate(120.5 714.47) rotate(-69.32)" fill="#BCEEAD"/><g opacity="0.4" style="isolation:isolate"><rect x="573.37" y="260.42" width="7.12" height="19.35" transform="translate(120.5 714.47) rotate(-69.32)" fill="#fafafa"/></g><polygon points="573.45 144.32 571.29 146.81 568.58 144.93 567.11 147.87 564.02 146.74 563.32 149.95 560.05 149.62 560.17 152.91 556.91 153.4 557.87 156.56 554.83 157.84 556.52 160.66 553.91 162.66 556.26 164.96 554.22 167.55 557.07 169.21 555.74 172.21 558.9 173.1 558.37 176.36 561.66 176.44 561.94 179.71 565.15 178.97 566.25 182.07 569.16 180.57 570.99 183.29 573.45 181.1 575.89 183.29 577.72 180.57 580.65 182.07 581.74 178.97 584.95 179.71 585.23 176.44 588.52 176.36 587.99 173.1 591.15 172.21 589.82 169.21 592.67 167.55 590.63 164.96 592.97 162.66 590.35 160.66 592.06 157.84 589.02 156.56 589.96 153.4 586.7 152.91 586.85 149.62 583.56 149.95 582.87 146.74 579.78 147.87 578.31 144.93 575.61 146.81 573.45 144.32" fill="#BCEEAD"/><g opacity="0.7" style="isolation:isolate"><polygon points="573.45 144.32 571.29 146.81 568.58 144.93 567.11 147.87 564.02 146.74 563.32 149.95 560.05 149.62 560.17 152.91 556.91 153.4 557.87 156.56 554.83 157.84 556.52 160.66 553.91 162.66 556.26 164.96 554.22 167.55 557.07 169.21 555.74 172.21 558.9 173.1 558.37 176.36 561.66 176.44 561.94 179.71 565.15 178.97 566.25 182.07 569.16 180.57 570.99 183.29 573.45 181.1 575.89 183.29 577.72 180.57 580.65 182.07 581.74 178.97 584.95 179.71 585.23 176.44 588.52 176.36 587.99 173.1 591.15 172.21 589.82 169.21 592.67 167.55 590.63 164.96 592.97 162.66 590.35 160.66 592.06 157.84 589.02 156.56 589.96 153.4 586.7 152.91 586.85 149.62 583.56 149.95 582.87 146.74 579.78 147.87 578.31 144.93 575.61 146.81 573.45 144.32" fill="#fafafa"/></g><g opacity="0.6" style="isolation:isolate"><circle cx="573.44" cy="163.83" r="15.09" transform="translate(-22.3 136.11) rotate(-13.28)" fill="#fafafa"/></g><path d="M571,182.7a3.13,3.13,0,0,1,3.13-3.13,3.2,3.2,0,0,1,.87.12c0-.31,0-.62,0-.94a6.52,6.52,0,0,1,6.52-6.51,6,6,0,0,1,1.19.13,5.68,5.68,0,0,1,10.55,2.86h.09a5.25,5.25,0,1,1,0,10.49H573.93A3.12,3.12,0,0,1,571,182.7Z" fill="#031D44"/><g opacity="0.5" style="isolation:isolate"><path d="M571,182.7a3.13,3.13,0,0,1,3.13-3.13,3.2,3.2,0,0,1,.87.12c0-.31,0-.62,0-.94a6.52,6.52,0,0,1,6.52-6.51,6,6,0,0,1,1.19.13,5.68,5.68,0,0,1,10.55,2.86h.09a5.25,5.25,0,1,1,0,10.49H573.93A3.12,3.12,0,0,1,571,182.7Z" fill="#fafafa"/></g><path d="M572.37,174.43a2.93,2.93,0,0,0-2.93-2.92,2.46,2.46,0,0,0-.85.12,4.61,4.61,0,0,0,0-.91,6.23,6.23,0,0,0-7.4-6.15,5.42,5.42,0,0,0-10.05,2.74h-.09a5,5,0,0,0,0,10h18.34A3,3,0,0,0,572.37,174.43Z" fill="#031D44"/><g opacity="0.5" style="isolation:isolate"><path d="M572.37,174.43a2.93,2.93,0,0,0-2.93-2.92,2.46,2.46,0,0,0-.85.12,4.61,4.61,0,0,0,0-.91,6.23,6.23,0,0,0-7.4-6.15,5.42,5.42,0,0,0-10.05,2.74h-.09a5,5,0,0,0,0,10h18.34A3,3,0,0,0,572.37,174.43Z" fill="#fafafa"/></g><path d="M650.56,200.06c.51,2.16,9.51,1.83,20.09-.72s18.79-6.4,18.21-8.56-9.52-1.84-20.1.73S650,197.9,650.56,200.06Zm5.91-1.22c-.37-1.57,5.29-4.17,12.64-5.93s13.57-2,13.94-.52-5.29,4.16-12.63,5.93S656.83,200.34,656.47,198.84Z" fill="#031D44"/><circle cx="675.23" cy="218.3" r="23.29" fill="#BCEEAD"/><g opacity="0.7" style="isolation:isolate"><circle cx="675.23" cy="218.3" r="23.29" fill="#fafafa"/></g><path d="M678.11,230.07c6.18-1.57,10.12-7.11,8.82-12.53A.78.78,0,0,0,686,217h0a.74.74,0,0,0-.57.89.09.09,0,0,0,0,0c1.09,4.55-2.35,9.31-7.67,10.61s-10.59-1.36-11.68-5.93a.81.81,0,0,0-1-.56.76.76,0,0,0-.56.92v0C665.85,228.39,671.94,231.57,678.11,230.07Z" fill="#BCEEAD"/><path d="M679.87,212a.79.79,0,0,0,.58-.94,2.27,2.27,0,0,1,4.33-1.38,1.63,1.63,0,0,1,.07.3.81.81,0,0,0,1.57-.36h0a3.83,3.83,0,1,0-7.44,1.8A.79.79,0,0,0,679.87,212Z" fill="#BCEEAD"/><path d="M662.33,216.21a.79.79,0,0,0,.58-1,2.27,2.27,0,0,1,4.4-1.07.76.76,0,0,0,.91.59h0a.78.78,0,0,0,.58-.94,3.82,3.82,0,0,0-7.43,1.8h0A.78.78,0,0,0,662.33,216.21Z" fill="#BCEEAD"/><circle cx="447.7" cy="163.77" r="23.29" transform="translate(15.33 364.54) rotate(-45)" fill="#031D44"/><g opacity="0.7" style="isolation:isolate"><circle cx="447.7" cy="163.77" r="23.29" transform="translate(15.33 364.54) rotate(-45)" fill="#fafafa"/></g><path d="M444.55,175.55c6.14,1.65,12.29-1.37,13.73-6.74a.76.76,0,0,0-.49-.94h-.06L437,162.29a.74.74,0,0,0-.94.49s0,0,0,.05C434.6,168.2,438.42,173.9,444.55,175.55Z" fill="#031D44"/><path d="M454.79,160.52a.79.79,0,0,0,1-.57,2.26,2.26,0,0,1,4.37,1.18.81.81,0,0,0,.58,1,.79.79,0,0,0,1-.57,3.82,3.82,0,1,0-7.38-2A.82.82,0,0,0,454.79,160.52Z" fill="#031D44"/><path d="M437.43,155.82a.78.78,0,0,0,1-.55,2.26,2.26,0,1,1,4.36,1.18.81.81,0,0,0,1.57.4,3.83,3.83,0,0,0-7.39-2A.78.78,0,0,0,437.43,155.82Z" fill="#031D44"/><path d="M534,205.91c-7.43-6.88-16.33-1-19.6,6.91-6.85-5.06-17.51-5.54-20.35,4.21-4.69,16.42,16.67,24.46,26.49,27.2,1.13.33,2,.6,2.8.79.55-.57,1.21-1.26,2-2.12C532.29,235.48,546.47,217.54,534,205.91Z" fill="#BCEEAD"/><g opacity="0.5" style="isolation:isolate"><path d="M534,205.91c-7.43-6.88-16.33-1-19.6,6.91-6.85-5.06-17.51-5.54-20.35,4.21-4.69,16.42,16.67,24.46,26.49,27.2,1.13.33,2,.6,2.8.79.55-.57,1.21-1.26,2-2.12C532.29,235.48,546.47,217.54,534,205.91Z" fill="#fafafa"/></g><g opacity="0.2" style="isolation:isolate"><path d="M501.24,211.86c-3.28,1.08-5.22,4.17-4.33,6.87s4.29,4,7.58,3,5.21-4.16,4.31-6.87S504.52,210.78,501.24,211.86Z" fill="#fafafa"/></g><g opacity="0.2" style="isolation:isolate"><path d="M501.24,224a1.94,1.94,0,1,0-1,3.76,1.93,1.93,0,0,0,2.25-1.06A2.14,2.14,0,0,0,501.24,224Z" fill="#fafafa"/></g><path d="M772.92,221.19c-4-9.3-14.57-7.42-20.71-1.56-4.26-7.38-13.85-12.07-20.35-4.26-11,13.16,5.51,29.1,13.42,35.53.89.74,1.56,1.35,2.25,1.83.72-.29,1.57-.67,2.66-1.14C759.6,247.63,779.78,236.84,772.92,221.19Z" fill="#BCEEAD"/><g opacity="0.5" style="isolation:isolate"><path d="M772.92,221.19c-4-9.3-14.57-7.42-20.71-1.56-4.26-7.38-13.85-12.07-20.35-4.26-11,13.16,5.51,29.1,13.42,35.53.89.74,1.56,1.35,2.25,1.83.72-.29,1.57-.67,2.66-1.14C759.6,247.63,779.78,236.84,772.92,221.19Z" fill="#fafafa"/></g><g opacity="0.2" style="isolation:isolate"><ellipse cx="740.09" cy="218.72" rx="5.18" ry="6.26" transform="translate(454.07 935.49) rotate(-84.71)" fill="#fafafa"/></g><g opacity="0.2" style="isolation:isolate"><path d="M735.71,224.7a1.93,1.93,0,1,0,.1,3A2.12,2.12,0,0,0,735.71,224.7Z" fill="#fafafa"/></g><polygon points="509.28 110.24 507.45 113.95 503.33 114.56 506.31 117.45 505.6 121.54 509.28 119.61 512.96 121.54 512.25 117.45 515.23 114.56 511.11 113.95 509.28 110.24" fill="#031D44"/><polygon points="600.59 289.19 598.76 292.92 594.64 293.51 597.62 296.41 596.91 300.51 600.59 298.57 604.27 300.51 603.56 296.41 606.54 293.51 602.42 292.92 600.59 289.19" fill="#031D44"/><polygon points="551.86 192.15 550.03 195.88 545.93 196.47 548.88 199.37 548.18 203.46 551.86 201.53 555.54 203.46 554.83 199.37 557.81 196.47 553.71 195.88 551.86 192.15" fill="#031D44"/><polygon points="410.27 197.81 408.44 201.53 404.32 202.13 407.3 205.02 406.61 209.12 410.27 207.18 413.95 209.12 413.25 205.02 416.22 202.13 412.12 201.53 410.27 197.81" fill="#031D44"/><polygon points="634.1 219.8 632.27 223.52 628.17 224.12 631.14 227.01 630.44 231.1 634.1 229.18 637.78 231.1 637.08 227.01 640.05 224.12 635.95 223.52 634.1 219.8" fill="#031D44"/><polygon points="762.35 313.69 760.52 317.41 756.41 318.01 759.38 320.9 758.68 325.01 762.35 323.06 766.03 325.01 765.33 320.9 768.3 318.01 764.19 317.41 762.35 313.69" fill="#031D44"/><polygon points="679.95 128.4 678.11 132.12 674 132.72 676.98 135.61 676.27 139.71 679.95 137.77 683.63 139.71 682.93 135.61 685.9 132.72 681.78 132.12 679.95 128.4" fill="#031D44"/><polygon points="718.91 269.53 714.36 278.75 704.2 280.22 711.56 287.39 709.82 297.5 718.91 292.73 728.01 297.5 726.27 287.39 733.61 280.22 723.46 278.75 718.91 269.53" fill="#031D44"/><g opacity="0.7" style="isolation:isolate"><polygon points="718.91 269.53 714.36 278.75 704.2 280.22 711.56 287.39 709.82 297.5 718.91 292.73 728.01 297.5 726.27 287.39 733.61 280.22 723.46 278.75 718.91 269.53" fill="#fafafa"/></g><polygon points="435.69 234.62 431.15 243.83 421 245.31 428.34 252.48 426.6 262.6 435.69 257.82 444.79 262.6 443.05 252.48 450.41 245.31 440.23 243.83 435.69 234.62" fill="#031D44"/><g opacity="0.7" style="isolation:isolate"><polygon points="435.69 234.62 431.15 243.83 421 245.31 428.34 252.48 426.6 262.6 435.69 257.82 444.79 262.6 443.05 252.48 450.41 245.31 440.23 243.83 435.69 234.62" fill="#fafafa"/></g><polygon points="394.7 132.32 391.97 137.84 385.9 138.71 390.3 143 389.25 149.06 394.7 146.19 400.13 149.06 399.1 143 403.48 138.71 397.4 137.84 394.7 132.32" fill="#031D44"/><g opacity="0.7" style="isolation:isolate"><polygon points="394.7 132.32 391.97 137.84 385.9 138.71 390.3 143 389.25 149.06 394.7 146.19 400.13 149.06 399.1 143 403.48 138.71 397.4 137.84 394.7 132.32" fill="#fafafa"/></g><polygon points="783.96 265.83 781.69 270.44 776.62 271.17 780.28 274.76 779.42 279.83 783.96 277.44 788.51 279.83 787.63 274.76 791.31 271.17 786.23 270.44 783.96 265.83" fill="#031D44"/><g opacity="0.7" style="isolation:isolate"><polygon points="783.96 265.83 781.69 270.44 776.62 271.17 780.28 274.76 779.42 279.83 783.96 277.44 788.51 279.83 787.63 274.76 791.31 271.17 786.23 270.44 783.96 265.83" fill="#fafafa"/></g><polygon points="764.11 160.11 759.57 169.31 749.41 170.8 756.75 177.96 755.01 188.08 764.11 183.31 773.2 188.08 771.47 177.96 778.82 170.8 768.66 169.31 764.11 160.11" fill="#031D44"/><g opacity="0.7" style="isolation:isolate"><polygon points="764.11 160.11 759.57 169.31 749.41 170.8 756.75 177.96 755.01 188.08 764.11 183.31 773.2 188.08 771.47 177.96 778.82 170.8 768.66 169.31 764.11 160.11" fill="#fafafa"/></g><polygon points="619.4 120.07 614.87 129.27 604.69 130.74 612.05 137.91 610.31 148.04 619.4 143.27 628.5 148.04 626.76 137.91 634.1 130.74 623.94 129.27 619.4 120.07" fill="#031D44"/><g opacity="0.7" style="isolation:isolate"><polygon points="619.4 120.07 614.87 129.27 604.69 130.74 612.05 137.91 610.31 148.04 619.4 143.27 628.5 148.04 626.76 137.91 634.1 130.74 623.94 129.27 619.4 120.07" fill="#fafafa"/></g></svg>