<svg version="1.2" xmlns="http://www.w3.org/2000/svg" viewBox="0 0 500 500" width="500" height="500">
	<title>Nouveau projet</title>
	<style>
		.s0 { fill: #f4f3d8 } 
		.s1 { fill: #b1e7f1 } 
		.s2 { fill: #bcedae } 
		.s3 { fill: #b1e7f1;stroke: #1a1a1a;stroke-miterlimit:10;stroke-width: 20 } 
		.s4 { fill: #bcedae;stroke: #1a1a1a;stroke-miterlimit:10;stroke-width: 20 } 
		.s5 { fill: #1a1a1a } 
		.s6 { opacity: .5;fill: #da6a65 } 
		.s7 { fill: #b8eccf;stroke: #1a1a1a;stroke-miterlimit:10;stroke-width: 20 } 
	</style>
	<g id="Layer 1">
	</g>
	<path id="&lt;Path&gt;" fill-rule="evenodd" class="s0" d="m250.3 500c-136.8 0-247.3-110.5-247.3-247.3 0-136.8 110.5-247.3 247.3-247.3 136.8 0 247.3 110.5 247.3 247.3 0 136.8-110.5 247.3-247.3 247.3z"/>
	<path id="&lt;Compound Path&gt;" fill-rule="evenodd" class="s1" d="m113 151.4c-81.8 39.4-92.5 153.1-12.8 200 56 31.8 129 1.3 161.6-50.5 13.8-21.3 21.1-47.5 18.1-72.7-8.9-77.9-101.4-109.8-166.8-76.8z"/>
	<path id="&lt;Compound Path&gt;" fill-rule="evenodd" class="s1" d="m102.8 119.9c-87.3 42-98.7 163.3-13.7 213.3 59.7 33.9 137.6 1.3 172.4-53.8 14.7-22.8 22.5-50.7 19.3-77.6-9.5-83.1-108.1-117.2-177.9-82z"/>
	<path id="&lt;Compound Path&gt;" fill-rule="evenodd" class="s2" d="m287.3 161.6c-71.6 35-97 128.7-40.3 188.3 42.3 44.6 114.9 46.1 163.2 9.9 43.3-31.1 65.7-89.6 46.8-140.1-24.8-67.7-107.8-90.2-169.5-58.2z"/>
	<path id="&lt;Compound Path&gt;" fill-rule="evenodd" class="s3" d="m127.5 133.1c-107.6 38.4-91.3 203.1 28.1 211 30.7 2 60.2-6.7 82.7-28.2 79.4-76 1.1-222.8-110.8-182.8z"/>
	<path id="&lt;Path&gt;" fill-rule="evenodd" class="s4" d="m323.1 167.2c90.4-12.3 157 92.2 97.6 164.9-40.4 49.4-115.4 51.9-158.4 4.5-57.9-63.8-10.1-159.7 60.8-169.4z"/>
	<path id="&lt;Path&gt;" fill-rule="evenodd" class="s5" d="m373.6 289.9c19.4-4.3 7.5 36.5-29.1 41.3-32.4 4.3-55.9-21.9-51.6-33.1 11.7-16.1 14.6 24.1 47.8 19.2 19.8-2.9 27.8-26.3 32.9-27.4z"/>
	<path id="&lt;Path&gt;" fill-rule="evenodd" class="s5" d="m307.8 239.1c1.3-0.5 1.9 0.7 2 2.9 0 1.7-0.6 4-1.7 6.2-2.6 5.2-8.5 9.2-14.4 7.9-5.7-1.3-9.9-6.1-11.3-11.1-0.3-1.3-0.6-4.7 1.6-3.8 1.5 0.8 2.7 2.6 4.1 3.9 2.1 2.2 5 4.1 8.1 3.8 4.5-0.3 7.7-5.5 9.9-8.3 0.4-0.6 1-1.2 1.6-1.5z"/>
	<path id="&lt;Path&gt;" fill-rule="evenodd" class="s5" d="m367.1 241c-1.3-0.3-1.8 0.9-1.6 3 0.5 3.5 3.8 7.7 7.3 9.6 7.2 4.3 16.1 1.4 20.2-5.7 1.7-2.9 2.5-7.2 0.5-7.5-0.9 0-1.5 0.6-2.3 1.3-0.7 0.7-1.5 1.5-2.4 2.3-2 2.1-4.5 4.1-7.5 4.4-5.1 0.9-9.7-4.4-12.7-6.6-0.5-0.4-1-0.6-1.4-0.8z"/>
	<path id="&lt;Path&gt;" fill-rule="evenodd" class="s6" d="m383.6 265c13.6-2.8 16.7 17.2 4.7 19.3-14.2 2.5-15.5-17.1-4.7-19.3z"/>
	<path id="&lt;Path&gt;" fill-rule="evenodd" class="s6" d="m290.2 269.2c13.2-4 17.7 14 9.5 17.9-13.9 6.6-19.6-14.7-9.5-17.9z"/>
	<path id="&lt;Path&gt;" fill-rule="evenodd" class="s7" d="m244.6 310c-16.2-36.3-7.1-83.3 19.3-110 0.4-0.4 1.1-0.2 1.3 0.3 11 34.4 6.7 79.4-19.3 109.9-0.4 0.4-1.1 0.3-1.3-0.2z"/>
	<path id="&lt;Path&gt;" fill-rule="evenodd" class="s5" d="m138.3 215.1c-18.4 4-22.9-24.3-7.6-27.7 20.1-4.5 22.6 24.6 7.6 27.7z"/>
	<path id="&lt;Path&gt;" fill-rule="evenodd" class="s5" d="m214.4 230.8c-12.2-1.7-13.7-24.5-1.4-27.5 21.1-5.1 22.4 30.4 1.4 27.5z"/>
	<path id="&lt;Path&gt;" fill-rule="evenodd" class="s5" d="m127 258.9c-19.4-4.2-7.4 36.5 29.3 41.2 32.3 4.2 55.7-22.1 51.5-33.3-11.9-16.1-14.5 24.2-47.8 19.4-19.8-2.9-27.9-26.2-33-27.3z"/>
	<path id="&lt;Path&gt;" fill-rule="evenodd" class="s6" d="m120.6 236.8c6.6 8.3-5.2 16.5-10.2 11.7-8.6-8.2 5.2-18.2 10.2-11.7z"/>
	<path id="&lt;Path&gt;" fill-rule="evenodd" class="s6" d="m222.5 245.9c6.5 8.3-5.2 16.5-10.2 11.7-8.6-8.2 5.1-18.2 10.2-11.7z"/>
</svg>